%TF.GenerationSoftware,KiCad,Pcbnew,(5.1.12)-1*%
%TF.CreationDate,2023-08-18T20:52:49-06:00*%
%TF.ProjectId,X,582e6b69-6361-4645-9f70-636258585858,rev?*%
%TF.SameCoordinates,Original*%
%TF.FileFunction,Soldermask,Bot*%
%TF.FilePolarity,Negative*%
%FSLAX46Y46*%
G04 Gerber Fmt 4.6, Leading zero omitted, Abs format (unit mm)*
G04 Created by KiCad (PCBNEW (5.1.12)-1) date 2023-08-18 20:52:49*
%MOMM*%
%LPD*%
G01*
G04 APERTURE LIST*
%ADD10O,1.700000X1.700000*%
%ADD11R,1.700000X1.700000*%
G04 APERTURE END LIST*
%TO.C,C3*%
G36*
G01*
X122905400Y-121497100D02*
X122905400Y-121022100D01*
G75*
G02*
X123142900Y-120784600I237500J0D01*
G01*
X123742900Y-120784600D01*
G75*
G02*
X123980400Y-121022100I0J-237500D01*
G01*
X123980400Y-121497100D01*
G75*
G02*
X123742900Y-121734600I-237500J0D01*
G01*
X123142900Y-121734600D01*
G75*
G02*
X122905400Y-121497100I0J237500D01*
G01*
G37*
G36*
G01*
X121180400Y-121497100D02*
X121180400Y-121022100D01*
G75*
G02*
X121417900Y-120784600I237500J0D01*
G01*
X122017900Y-120784600D01*
G75*
G02*
X122255400Y-121022100I0J-237500D01*
G01*
X122255400Y-121497100D01*
G75*
G02*
X122017900Y-121734600I-237500J0D01*
G01*
X121417900Y-121734600D01*
G75*
G02*
X121180400Y-121497100I0J237500D01*
G01*
G37*
%TD*%
D10*
%TO.C,J3*%
X156692600Y-124460000D03*
X154152600Y-124460000D03*
X151612600Y-124460000D03*
X149072600Y-124460000D03*
X146532600Y-124460000D03*
D11*
X143992600Y-124460000D03*
%TD*%
D10*
%TO.C,J6*%
X121158000Y-127635000D03*
X146558000Y-130175000D03*
X151638000Y-127635000D03*
X136398000Y-130175000D03*
X154178000Y-130175000D03*
X156718000Y-130175000D03*
X159258000Y-127635000D03*
D11*
X121158000Y-130175000D03*
D10*
X138938000Y-130175000D03*
X166878000Y-130175000D03*
X166878000Y-127635000D03*
X169418000Y-130175000D03*
X169418000Y-127635000D03*
X171958000Y-127635000D03*
X171958000Y-130175000D03*
X174498000Y-130175000D03*
X133858000Y-127635000D03*
X149098000Y-130175000D03*
X164338000Y-127635000D03*
X174498000Y-127635000D03*
X177038000Y-130175000D03*
X177038000Y-127635000D03*
X138938000Y-127635000D03*
X141478000Y-130175000D03*
X126238000Y-127635000D03*
X133858000Y-130175000D03*
X123698000Y-127635000D03*
X128778000Y-130175000D03*
X131318000Y-130175000D03*
X131318000Y-127635000D03*
X144018000Y-127635000D03*
X146558000Y-127635000D03*
X149098000Y-127635000D03*
X154178000Y-127635000D03*
X126238000Y-130175000D03*
X156718000Y-127635000D03*
X141478000Y-127635000D03*
X151638000Y-130175000D03*
X123698000Y-130175000D03*
X136398000Y-127635000D03*
X128778000Y-127635000D03*
X144018000Y-130175000D03*
X159258000Y-130175000D03*
X161798000Y-127635000D03*
X164338000Y-130175000D03*
X161798000Y-130175000D03*
%TD*%
%TO.C,J2*%
X121285000Y-79375000D03*
X146685000Y-81915000D03*
X151765000Y-79375000D03*
X136525000Y-81915000D03*
X154305000Y-81915000D03*
X156845000Y-81915000D03*
X159385000Y-79375000D03*
D11*
X121285000Y-81915000D03*
D10*
X139065000Y-81915000D03*
X167005000Y-81915000D03*
X167005000Y-79375000D03*
X169545000Y-81915000D03*
X169545000Y-79375000D03*
X172085000Y-79375000D03*
X172085000Y-81915000D03*
X174625000Y-81915000D03*
X133985000Y-79375000D03*
X149225000Y-81915000D03*
X164465000Y-79375000D03*
X174625000Y-79375000D03*
X177165000Y-81915000D03*
X177165000Y-79375000D03*
X139065000Y-79375000D03*
X141605000Y-81915000D03*
X126365000Y-79375000D03*
X133985000Y-81915000D03*
X123825000Y-79375000D03*
X128905000Y-81915000D03*
X131445000Y-81915000D03*
X131445000Y-79375000D03*
X144145000Y-79375000D03*
X146685000Y-79375000D03*
X149225000Y-79375000D03*
X154305000Y-79375000D03*
X126365000Y-81915000D03*
X156845000Y-79375000D03*
X141605000Y-79375000D03*
X151765000Y-81915000D03*
X123825000Y-81915000D03*
X136525000Y-79375000D03*
X128905000Y-79375000D03*
X144145000Y-81915000D03*
X159385000Y-81915000D03*
X161925000Y-79375000D03*
X164465000Y-81915000D03*
X161925000Y-81915000D03*
%TD*%
%TO.C,C4*%
G36*
G01*
X121180400Y-124443500D02*
X121180400Y-123968500D01*
G75*
G02*
X121417900Y-123731000I237500J0D01*
G01*
X122017900Y-123731000D01*
G75*
G02*
X122255400Y-123968500I0J-237500D01*
G01*
X122255400Y-124443500D01*
G75*
G02*
X122017900Y-124681000I-237500J0D01*
G01*
X121417900Y-124681000D01*
G75*
G02*
X121180400Y-124443500I0J237500D01*
G01*
G37*
G36*
G01*
X122905400Y-124443500D02*
X122905400Y-123968500D01*
G75*
G02*
X123142900Y-123731000I237500J0D01*
G01*
X123742900Y-123731000D01*
G75*
G02*
X123980400Y-123968500I0J-237500D01*
G01*
X123980400Y-124443500D01*
G75*
G02*
X123742900Y-124681000I-237500J0D01*
G01*
X123142900Y-124681000D01*
G75*
G02*
X122905400Y-124443500I0J237500D01*
G01*
G37*
%TD*%
%TO.C,J4*%
X177292000Y-98044000D03*
X177292000Y-95504000D03*
D11*
X177292000Y-92964000D03*
%TD*%
%TO.C,J5*%
X177292000Y-111379000D03*
D10*
X177292000Y-113919000D03*
X177292000Y-116459000D03*
%TD*%
%TO.C,R5*%
G36*
G01*
X153612400Y-99246700D02*
X153612400Y-98771700D01*
G75*
G02*
X153849900Y-98534200I237500J0D01*
G01*
X154349900Y-98534200D01*
G75*
G02*
X154587400Y-98771700I0J-237500D01*
G01*
X154587400Y-99246700D01*
G75*
G02*
X154349900Y-99484200I-237500J0D01*
G01*
X153849900Y-99484200D01*
G75*
G02*
X153612400Y-99246700I0J237500D01*
G01*
G37*
G36*
G01*
X151787400Y-99246700D02*
X151787400Y-98771700D01*
G75*
G02*
X152024900Y-98534200I237500J0D01*
G01*
X152524900Y-98534200D01*
G75*
G02*
X152762400Y-98771700I0J-237500D01*
G01*
X152762400Y-99246700D01*
G75*
G02*
X152524900Y-99484200I-237500J0D01*
G01*
X152024900Y-99484200D01*
G75*
G02*
X151787400Y-99246700I0J237500D01*
G01*
G37*
%TD*%
%TO.C,R6*%
G36*
G01*
X154587400Y-100270300D02*
X154587400Y-100745300D01*
G75*
G02*
X154349900Y-100982800I-237500J0D01*
G01*
X153849900Y-100982800D01*
G75*
G02*
X153612400Y-100745300I0J237500D01*
G01*
X153612400Y-100270300D01*
G75*
G02*
X153849900Y-100032800I237500J0D01*
G01*
X154349900Y-100032800D01*
G75*
G02*
X154587400Y-100270300I0J-237500D01*
G01*
G37*
G36*
G01*
X152762400Y-100270300D02*
X152762400Y-100745300D01*
G75*
G02*
X152524900Y-100982800I-237500J0D01*
G01*
X152024900Y-100982800D01*
G75*
G02*
X151787400Y-100745300I0J237500D01*
G01*
X151787400Y-100270300D01*
G75*
G02*
X152024900Y-100032800I237500J0D01*
G01*
X152524900Y-100032800D01*
G75*
G02*
X152762400Y-100270300I0J-237500D01*
G01*
G37*
%TD*%
M02*
