M48
; DRILL file {KiCad (5.1.12)-1} date 08/18/23 20:54:36
; FORMAT={-:-/ absolute / inch / decimal}
; #@! TF.CreationDate,2023-08-18T20:54:36-06:00
; #@! TF.GenerationSoftware,Kicad,Pcbnew,(5.1.12)-1
; #@! TF.FileFunction,Plated,1,2,PTH
FMAT,2
INCH
T1C0.0157
T2C0.0394
%
G90
G05
T1
X5.35Y-3.85
X5.4Y-3.85
X5.52Y-4.8156
X5.55Y-3.85
X5.65Y-3.85
X5.66Y-3.96
X5.7Y-3.85
X5.989Y-3.897
X5.992Y-4.353
X6.067Y-3.899
X6.6Y-3.58
T2
X4.77Y-5.025
X4.77Y-5.125
X4.775Y-3.125
X4.775Y-3.225
X4.87Y-5.025
X4.87Y-5.125
X4.875Y-3.125
X4.875Y-3.225
X4.97Y-5.025
X4.97Y-5.125
X4.975Y-3.125
X4.975Y-3.225
X5.07Y-5.025
X5.07Y-5.125
X5.075Y-3.125
X5.075Y-3.225
X5.17Y-5.025
X5.17Y-5.125
X5.175Y-3.125
X5.175Y-3.225
X5.27Y-5.025
X5.27Y-5.125
X5.275Y-3.125
X5.275Y-3.225
X5.37Y-5.025
X5.37Y-5.125
X5.375Y-3.125
X5.375Y-3.225
X5.47Y-5.025
X5.47Y-5.125
X5.475Y-3.125
X5.475Y-3.225
X5.57Y-5.025
X5.57Y-5.125
X5.575Y-3.125
X5.575Y-3.225
X5.669Y-4.9
X5.67Y-5.025
X5.67Y-5.125
X5.675Y-3.125
X5.675Y-3.225
X5.769Y-4.9
X5.77Y-5.025
X5.77Y-5.125
X5.775Y-3.125
X5.775Y-3.225
X5.869Y-4.9
X5.87Y-5.025
X5.87Y-5.125
X5.875Y-3.125
X5.875Y-3.225
X5.969Y-4.9
X5.97Y-5.025
X5.97Y-5.125
X5.975Y-3.125
X5.975Y-3.225
X6.069Y-4.9
X6.07Y-5.025
X6.07Y-5.125
X6.075Y-3.125
X6.075Y-3.225
X6.169Y-4.9
X6.17Y-5.025
X6.17Y-5.125
X6.175Y-3.125
X6.175Y-3.225
X6.27Y-5.025
X6.27Y-5.125
X6.275Y-3.125
X6.275Y-3.225
X6.37Y-5.025
X6.37Y-5.125
X6.375Y-3.125
X6.375Y-3.225
X6.47Y-5.025
X6.47Y-5.125
X6.475Y-3.125
X6.475Y-3.225
X6.57Y-5.025
X6.57Y-5.125
X6.575Y-3.125
X6.575Y-3.225
X6.67Y-5.025
X6.67Y-5.125
X6.675Y-3.125
X6.675Y-3.225
X6.77Y-5.025
X6.77Y-5.125
X6.775Y-3.125
X6.775Y-3.225
X6.87Y-5.025
X6.87Y-5.125
X6.875Y-3.125
X6.875Y-3.225
X6.97Y-5.025
X6.97Y-5.125
X6.975Y-3.125
X6.975Y-3.225
X6.98Y-3.66
X6.98Y-3.76
X6.98Y-3.86
X6.98Y-4.385
X6.98Y-4.485
X6.98Y-4.585
T0
M30
