%TF.GenerationSoftware,KiCad,Pcbnew,(5.1.12)-1*%
%TF.CreationDate,2023-08-18T20:52:48-06:00*%
%TF.ProjectId,X,582e6b69-6361-4645-9f70-636258585858,rev?*%
%TF.SameCoordinates,Original*%
%TF.FileFunction,Copper,L1,Top*%
%TF.FilePolarity,Positive*%
%FSLAX46Y46*%
G04 Gerber Fmt 4.6, Leading zero omitted, Abs format (unit mm)*
G04 Created by KiCad (PCBNEW (5.1.12)-1) date 2023-08-18 20:52:48*
%MOMM*%
%LPD*%
G01*
G04 APERTURE LIST*
%TA.AperFunction,SMDPad,CuDef*%
%ADD10R,1.000000X1.000000*%
%TD*%
%TA.AperFunction,SMDPad,CuDef*%
%ADD11R,5.000000X5.000000*%
%TD*%
%TA.AperFunction,SMDPad,CuDef*%
%ADD12R,0.900000X2.000000*%
%TD*%
%TA.AperFunction,SMDPad,CuDef*%
%ADD13R,2.000000X0.900000*%
%TD*%
%TA.AperFunction,ComponentPad*%
%ADD14O,1.700000X1.700000*%
%TD*%
%TA.AperFunction,ComponentPad*%
%ADD15R,1.700000X1.700000*%
%TD*%
%TA.AperFunction,SMDPad,CuDef*%
%ADD16R,1.700000X0.900000*%
%TD*%
%TA.AperFunction,ViaPad*%
%ADD17C,0.800000*%
%TD*%
%TA.AperFunction,Conductor*%
%ADD18C,1.000000*%
%TD*%
%TA.AperFunction,Conductor*%
%ADD19C,0.250000*%
%TD*%
%TA.AperFunction,Conductor*%
%ADD20C,0.500000*%
%TD*%
%TA.AperFunction,Conductor*%
%ADD21C,0.254000*%
%TD*%
%TA.AperFunction,Conductor*%
%ADD22C,0.100000*%
%TD*%
G04 APERTURE END LIST*
D10*
%TO.P,TP5,1*%
%TO.N,/TMS*%
X155448000Y-107950000D03*
%TD*%
%TO.P,TP4,1*%
%TO.N,/TDI*%
X155448000Y-109982000D03*
%TD*%
%TO.P,TP3,1*%
%TO.N,/TCK*%
X155448000Y-105918000D03*
%TD*%
%TO.P,TP2,1*%
%TO.N,/TDO*%
X155448000Y-103886000D03*
%TD*%
%TO.P,TP1,1*%
%TO.N,GND*%
X155448000Y-101854000D03*
%TD*%
D11*
%TO.P,U1,39*%
%TO.N,GND*%
X142069200Y-105749600D03*
D12*
%TO.P,U1,1*%
X134569200Y-113249600D03*
%TO.P,U1,2*%
%TO.N,IO0*%
X135839200Y-113249600D03*
%TO.P,U1,3*%
%TO.N,EN*%
X137109200Y-113249600D03*
%TO.P,U1,4*%
%TO.N,Net-(U1-Pad4)*%
X138379200Y-113249600D03*
%TO.P,U1,5*%
%TO.N,Net-(U1-Pad5)*%
X139649200Y-113249600D03*
%TO.P,U1,6*%
%TO.N,Net-(U1-Pad6)*%
X140919200Y-113249600D03*
%TO.P,U1,7*%
%TO.N,Net-(U1-Pad7)*%
X142189200Y-113249600D03*
%TO.P,U1,8*%
%TO.N,Net-(U1-Pad8)*%
X143459200Y-113249600D03*
%TO.P,U1,9*%
%TO.N,Net-(U1-Pad9)*%
X144729200Y-113249600D03*
%TO.P,U1,10*%
%TO.N,Net-(U1-Pad10)*%
X145999200Y-113249600D03*
%TO.P,U1,11*%
%TO.N,Net-(U1-Pad11)*%
X147269200Y-113249600D03*
%TO.P,U1,12*%
%TO.N,Net-(U1-Pad12)*%
X148539200Y-113249600D03*
%TO.P,U1,13*%
%TO.N,/TMS*%
X149809200Y-113249600D03*
%TO.P,U1,14*%
%TO.N,/TDI*%
X151079200Y-113249600D03*
D13*
%TO.P,U1,15*%
%TO.N,GND*%
X152079200Y-110464600D03*
%TO.P,U1,16*%
%TO.N,/TCK*%
X152079200Y-109194600D03*
%TO.P,U1,17*%
%TO.N,Net-(U1-Pad17)*%
X152079200Y-107924600D03*
%TO.P,U1,18*%
%TO.N,Net-(U1-Pad18)*%
X152079200Y-106654600D03*
%TO.P,U1,19*%
%TO.N,Net-(U1-Pad19)*%
X152079200Y-105384600D03*
%TO.P,U1,20*%
%TO.N,Net-(U1-Pad20)*%
X152079200Y-104114600D03*
%TO.P,U1,21*%
%TO.N,Net-(U1-Pad21)*%
X152079200Y-102844600D03*
%TO.P,U1,22*%
%TO.N,Net-(U1-Pad22)*%
X152079200Y-101574600D03*
%TO.P,U1,23*%
%TO.N,/TDO*%
X152079200Y-100304600D03*
%TO.P,U1,24*%
%TO.N,/IO2*%
X152079200Y-99034600D03*
D12*
%TO.P,U1,25*%
%TO.N,IO0*%
X151079200Y-96249600D03*
%TO.P,U1,26*%
%TO.N,Net-(U1-Pad26)*%
X149809200Y-96249600D03*
%TO.P,U1,27*%
%TO.N,Net-(U1-Pad27)*%
X148539200Y-96249600D03*
%TO.P,U1,28*%
%TO.N,Net-(U1-Pad28)*%
X147269200Y-96249600D03*
%TO.P,U1,29*%
%TO.N,SPI0_CS0*%
X145999200Y-96249600D03*
%TO.P,U1,30*%
%TO.N,SPI0_SCLK*%
X144729200Y-96249600D03*
%TO.P,U1,31*%
%TO.N,SPI0_MOSI*%
X143459200Y-96249600D03*
%TO.P,U1,32*%
%TO.N,Net-(U1-Pad32)*%
X142189200Y-96249600D03*
%TO.P,U1,33*%
%TO.N,GPIO_HANDSHAKE*%
X140919200Y-96249600D03*
%TO.P,U1,34*%
%TO.N,Net-(R3-Pad2)*%
X139649200Y-96249600D03*
%TO.P,U1,35*%
%TO.N,Net-(R2-Pad2)*%
X138379200Y-96249600D03*
%TO.P,U1,36*%
%TO.N,GPIO_DATA_READY*%
X137109200Y-96249600D03*
%TO.P,U1,37*%
%TO.N,SPI0_MISO*%
X135839200Y-96249600D03*
%TO.P,U1,38*%
%TO.N,GND*%
X134569200Y-96249600D03*
%TD*%
D14*
%TO.P,J3,6*%
%TO.N,Net-(J3-Pad6)*%
X156692600Y-124460000D03*
%TO.P,J3,5*%
%TO.N,Net-(J3-Pad5)*%
X154152600Y-124460000D03*
%TO.P,J3,4*%
%TO.N,Net-(J3-Pad4)*%
X151612600Y-124460000D03*
%TO.P,J3,3*%
%TO.N,Net-(J3-Pad3)*%
X149072600Y-124460000D03*
%TO.P,J3,2*%
%TO.N,GND*%
X146532600Y-124460000D03*
D15*
%TO.P,J3,1*%
X143992600Y-124460000D03*
%TD*%
D14*
%TO.P,J6,2*%
%TO.N,GND*%
X121158000Y-127635000D03*
%TO.P,J6,21*%
%TO.N,SPI0_MISO*%
X146558000Y-130175000D03*
%TO.P,J6,26*%
%TO.N,Net-(J6-Pad26)*%
X151638000Y-127635000D03*
%TO.P,J6,13*%
%TO.N,Net-(J6-Pad13)*%
X136398000Y-130175000D03*
%TO.P,J6,27*%
%TO.N,Net-(J6-Pad27)*%
X154178000Y-130175000D03*
%TO.P,J6,29*%
%TO.N,Net-(J6-Pad29)*%
X156718000Y-130175000D03*
%TO.P,J6,32*%
%TO.N,Net-(J6-Pad32)*%
X159258000Y-127635000D03*
D15*
%TO.P,J6,1*%
%TO.N,GND*%
X121158000Y-130175000D03*
D14*
%TO.P,J6,15*%
%TO.N,GPIO_DATA_READY*%
X138938000Y-130175000D03*
%TO.P,J6,37*%
%TO.N,Net-(J6-Pad37)*%
X166878000Y-130175000D03*
%TO.P,J6,38*%
%TO.N,Net-(J6-Pad38)*%
X166878000Y-127635000D03*
%TO.P,J6,39*%
%TO.N,Net-(J6-Pad39)*%
X169418000Y-130175000D03*
%TO.P,J6,40*%
%TO.N,Net-(J6-Pad40)*%
X169418000Y-127635000D03*
%TO.P,J6,42*%
%TO.N,Net-(J6-Pad42)*%
X171958000Y-127635000D03*
%TO.P,J6,41*%
%TO.N,Net-(J6-Pad41)*%
X171958000Y-130175000D03*
%TO.P,J6,43*%
%TO.N,GND*%
X174498000Y-130175000D03*
%TO.P,J6,12*%
%TO.N,EN*%
X133858000Y-127635000D03*
%TO.P,J6,23*%
%TO.N,GPIO_HANDSHAKE*%
X149098000Y-130175000D03*
%TO.P,J6,36*%
%TO.N,Net-(J6-Pad36)*%
X164338000Y-127635000D03*
%TO.P,J6,44*%
%TO.N,GND*%
X174498000Y-127635000D03*
%TO.P,J6,45*%
X177038000Y-130175000D03*
%TO.P,J6,46*%
X177038000Y-127635000D03*
%TO.P,J6,16*%
%TO.N,Net-(J6-Pad16)*%
X138938000Y-127635000D03*
%TO.P,J6,17*%
%TO.N,SPI0_CS0*%
X141478000Y-130175000D03*
%TO.P,J6,6*%
%TO.N,Net-(J6-Pad6)*%
X126238000Y-127635000D03*
%TO.P,J6,11*%
%TO.N,Net-(J6-Pad11)*%
X133858000Y-130175000D03*
%TO.P,J6,4*%
%TO.N,IO0*%
X123698000Y-127635000D03*
%TO.P,J6,7*%
%TO.N,Net-(J6-Pad7)*%
X128778000Y-130175000D03*
%TO.P,J6,9*%
%TO.N,Net-(J6-Pad9)*%
X131318000Y-130175000D03*
%TO.P,J6,10*%
%TO.N,Net-(J6-Pad10)*%
X131318000Y-127635000D03*
%TO.P,J6,20*%
%TO.N,Net-(J6-Pad20)*%
X144018000Y-127635000D03*
%TO.P,J6,22*%
%TO.N,SPI0_SCLK*%
X146558000Y-127635000D03*
%TO.P,J6,24*%
%TO.N,Net-(J6-Pad24)*%
X149098000Y-127635000D03*
%TO.P,J6,28*%
%TO.N,Net-(J6-Pad28)*%
X154178000Y-127635000D03*
%TO.P,J6,5*%
%TO.N,Net-(J6-Pad5)*%
X126238000Y-130175000D03*
%TO.P,J6,30*%
%TO.N,Net-(J6-Pad30)*%
X156718000Y-127635000D03*
%TO.P,J6,18*%
%TO.N,SPI0_MOSI*%
X141478000Y-127635000D03*
%TO.P,J6,25*%
%TO.N,Net-(J6-Pad25)*%
X151638000Y-130175000D03*
%TO.P,J6,3*%
%TO.N,IO0*%
X123698000Y-130175000D03*
%TO.P,J6,14*%
%TO.N,Net-(J6-Pad14)*%
X136398000Y-127635000D03*
%TO.P,J6,8*%
%TO.N,Net-(J6-Pad8)*%
X128778000Y-127635000D03*
%TO.P,J6,19*%
%TO.N,Net-(J6-Pad19)*%
X144018000Y-130175000D03*
%TO.P,J6,31*%
%TO.N,Net-(J6-Pad31)*%
X159258000Y-130175000D03*
%TO.P,J6,34*%
%TO.N,Net-(J6-Pad34)*%
X161798000Y-127635000D03*
%TO.P,J6,35*%
%TO.N,Net-(J6-Pad35)*%
X164338000Y-130175000D03*
%TO.P,J6,33*%
%TO.N,Net-(J6-Pad33)*%
X161798000Y-130175000D03*
%TD*%
%TO.P,J2,2*%
%TO.N,Net-(J2-Pad2)*%
X121285000Y-79375000D03*
%TO.P,J2,21*%
%TO.N,Net-(J2-Pad21)*%
X146685000Y-81915000D03*
%TO.P,J2,26*%
%TO.N,Net-(J2-Pad26)*%
X151765000Y-79375000D03*
%TO.P,J2,13*%
%TO.N,Net-(J2-Pad13)*%
X136525000Y-81915000D03*
%TO.P,J2,27*%
%TO.N,Net-(J2-Pad27)*%
X154305000Y-81915000D03*
%TO.P,J2,29*%
%TO.N,Net-(J2-Pad29)*%
X156845000Y-81915000D03*
%TO.P,J2,32*%
%TO.N,Net-(J2-Pad32)*%
X159385000Y-79375000D03*
D15*
%TO.P,J2,1*%
%TO.N,Net-(J2-Pad1)*%
X121285000Y-81915000D03*
D14*
%TO.P,J2,15*%
%TO.N,Net-(J2-Pad15)*%
X139065000Y-81915000D03*
%TO.P,J2,37*%
%TO.N,Net-(J2-Pad37)*%
X167005000Y-81915000D03*
%TO.P,J2,38*%
%TO.N,Net-(J2-Pad38)*%
X167005000Y-79375000D03*
%TO.P,J2,39*%
%TO.N,Net-(J2-Pad39)*%
X169545000Y-81915000D03*
%TO.P,J2,40*%
%TO.N,Net-(J2-Pad40)*%
X169545000Y-79375000D03*
%TO.P,J2,42*%
%TO.N,Net-(J2-Pad42)*%
X172085000Y-79375000D03*
%TO.P,J2,41*%
%TO.N,Net-(J2-Pad41)*%
X172085000Y-81915000D03*
%TO.P,J2,43*%
%TO.N,Net-(J2-Pad43)*%
X174625000Y-81915000D03*
%TO.P,J2,12*%
%TO.N,Net-(J2-Pad12)*%
X133985000Y-79375000D03*
%TO.P,J2,23*%
%TO.N,Net-(J2-Pad23)*%
X149225000Y-81915000D03*
%TO.P,J2,36*%
%TO.N,Net-(J2-Pad36)*%
X164465000Y-79375000D03*
%TO.P,J2,44*%
%TO.N,Net-(J2-Pad44)*%
X174625000Y-79375000D03*
%TO.P,J2,45*%
%TO.N,Net-(J2-Pad45)*%
X177165000Y-81915000D03*
%TO.P,J2,46*%
%TO.N,Net-(J2-Pad46)*%
X177165000Y-79375000D03*
%TO.P,J2,16*%
%TO.N,Net-(J2-Pad16)*%
X139065000Y-79375000D03*
%TO.P,J2,17*%
%TO.N,Net-(J2-Pad17)*%
X141605000Y-81915000D03*
%TO.P,J2,6*%
%TO.N,Net-(J2-Pad6)*%
X126365000Y-79375000D03*
%TO.P,J2,11*%
%TO.N,Net-(J2-Pad11)*%
X133985000Y-81915000D03*
%TO.P,J2,4*%
%TO.N,Net-(J2-Pad4)*%
X123825000Y-79375000D03*
%TO.P,J2,7*%
%TO.N,Net-(J2-Pad7)*%
X128905000Y-81915000D03*
%TO.P,J2,9*%
%TO.N,Net-(J2-Pad9)*%
X131445000Y-81915000D03*
%TO.P,J2,10*%
%TO.N,Net-(J2-Pad10)*%
X131445000Y-79375000D03*
%TO.P,J2,20*%
%TO.N,Net-(J2-Pad20)*%
X144145000Y-79375000D03*
%TO.P,J2,22*%
%TO.N,Net-(J2-Pad22)*%
X146685000Y-79375000D03*
%TO.P,J2,24*%
%TO.N,Net-(J2-Pad24)*%
X149225000Y-79375000D03*
%TO.P,J2,28*%
%TO.N,Net-(J2-Pad28)*%
X154305000Y-79375000D03*
%TO.P,J2,5*%
%TO.N,Net-(J2-Pad5)*%
X126365000Y-81915000D03*
%TO.P,J2,30*%
%TO.N,Net-(J2-Pad30)*%
X156845000Y-79375000D03*
%TO.P,J2,18*%
%TO.N,Net-(J2-Pad18)*%
X141605000Y-79375000D03*
%TO.P,J2,25*%
%TO.N,Net-(J2-Pad25)*%
X151765000Y-81915000D03*
%TO.P,J2,3*%
%TO.N,Net-(J2-Pad3)*%
X123825000Y-81915000D03*
%TO.P,J2,14*%
%TO.N,Net-(J2-Pad14)*%
X136525000Y-79375000D03*
%TO.P,J2,8*%
%TO.N,Net-(J2-Pad8)*%
X128905000Y-79375000D03*
%TO.P,J2,19*%
%TO.N,Net-(J2-Pad19)*%
X144145000Y-81915000D03*
%TO.P,J2,31*%
%TO.N,Net-(J2-Pad31)*%
X159385000Y-81915000D03*
%TO.P,J2,34*%
%TO.N,Net-(J2-Pad34)*%
X161925000Y-79375000D03*
%TO.P,J2,35*%
%TO.N,Net-(J2-Pad35)*%
X164465000Y-81915000D03*
%TO.P,J2,33*%
%TO.N,Net-(J2-Pad33)*%
X161925000Y-81915000D03*
%TD*%
%TO.P,C1,1*%
%TO.N,EN*%
%TA.AperFunction,SMDPad,CuDef*%
G36*
G01*
X156447500Y-115319000D02*
X155972500Y-115319000D01*
G75*
G02*
X155735000Y-115081500I0J237500D01*
G01*
X155735000Y-114481500D01*
G75*
G02*
X155972500Y-114244000I237500J0D01*
G01*
X156447500Y-114244000D01*
G75*
G02*
X156685000Y-114481500I0J-237500D01*
G01*
X156685000Y-115081500D01*
G75*
G02*
X156447500Y-115319000I-237500J0D01*
G01*
G37*
%TD.AperFunction*%
%TO.P,C1,2*%
%TO.N,GND*%
%TA.AperFunction,SMDPad,CuDef*%
G36*
G01*
X156447500Y-113594000D02*
X155972500Y-113594000D01*
G75*
G02*
X155735000Y-113356500I0J237500D01*
G01*
X155735000Y-112756500D01*
G75*
G02*
X155972500Y-112519000I237500J0D01*
G01*
X156447500Y-112519000D01*
G75*
G02*
X156685000Y-112756500I0J-237500D01*
G01*
X156685000Y-113356500D01*
G75*
G02*
X156447500Y-113594000I-237500J0D01*
G01*
G37*
%TD.AperFunction*%
%TD*%
%TO.P,C2,2*%
%TO.N,GND*%
%TA.AperFunction,SMDPad,CuDef*%
G36*
G01*
X140304400Y-115909100D02*
X140304400Y-115434100D01*
G75*
G02*
X140541900Y-115196600I237500J0D01*
G01*
X141141900Y-115196600D01*
G75*
G02*
X141379400Y-115434100I0J-237500D01*
G01*
X141379400Y-115909100D01*
G75*
G02*
X141141900Y-116146600I-237500J0D01*
G01*
X140541900Y-116146600D01*
G75*
G02*
X140304400Y-115909100I0J237500D01*
G01*
G37*
%TD.AperFunction*%
%TO.P,C2,1*%
%TO.N,EN*%
%TA.AperFunction,SMDPad,CuDef*%
G36*
G01*
X138579400Y-115909100D02*
X138579400Y-115434100D01*
G75*
G02*
X138816900Y-115196600I237500J0D01*
G01*
X139416900Y-115196600D01*
G75*
G02*
X139654400Y-115434100I0J-237500D01*
G01*
X139654400Y-115909100D01*
G75*
G02*
X139416900Y-116146600I-237500J0D01*
G01*
X138816900Y-116146600D01*
G75*
G02*
X138579400Y-115909100I0J237500D01*
G01*
G37*
%TD.AperFunction*%
%TD*%
%TO.P,C5,1*%
%TO.N,IO0*%
%TA.AperFunction,SMDPad,CuDef*%
G36*
G01*
X156320500Y-96904000D02*
X155845500Y-96904000D01*
G75*
G02*
X155608000Y-96666500I0J237500D01*
G01*
X155608000Y-96066500D01*
G75*
G02*
X155845500Y-95829000I237500J0D01*
G01*
X156320500Y-95829000D01*
G75*
G02*
X156558000Y-96066500I0J-237500D01*
G01*
X156558000Y-96666500D01*
G75*
G02*
X156320500Y-96904000I-237500J0D01*
G01*
G37*
%TD.AperFunction*%
%TO.P,C5,2*%
%TO.N,GND*%
%TA.AperFunction,SMDPad,CuDef*%
G36*
G01*
X156320500Y-95179000D02*
X155845500Y-95179000D01*
G75*
G02*
X155608000Y-94941500I0J237500D01*
G01*
X155608000Y-94341500D01*
G75*
G02*
X155845500Y-94104000I237500J0D01*
G01*
X156320500Y-94104000D01*
G75*
G02*
X156558000Y-94341500I0J-237500D01*
G01*
X156558000Y-94941500D01*
G75*
G02*
X156320500Y-95179000I-237500J0D01*
G01*
G37*
%TD.AperFunction*%
%TD*%
%TO.P,J4,3*%
%TO.N,TXD*%
X177292000Y-98044000D03*
%TO.P,J4,2*%
%TO.N,RXD*%
X177292000Y-95504000D03*
D15*
%TO.P,J4,1*%
%TO.N,GND*%
X177292000Y-92964000D03*
%TD*%
%TO.P,J5,1*%
%TO.N,GND*%
X177292000Y-111379000D03*
D14*
%TO.P,J5,2*%
%TO.N,Net-(J3-Pad4)*%
X177292000Y-113919000D03*
%TO.P,J5,3*%
%TO.N,Net-(J3-Pad5)*%
X177292000Y-116459000D03*
%TD*%
%TO.P,R1,1*%
%TO.N,IO0*%
%TA.AperFunction,SMDPad,CuDef*%
G36*
G01*
X135252000Y-115901499D02*
X135252000Y-115426499D01*
G75*
G02*
X135489500Y-115188999I237500J0D01*
G01*
X135989500Y-115188999D01*
G75*
G02*
X136227000Y-115426499I0J-237500D01*
G01*
X136227000Y-115901499D01*
G75*
G02*
X135989500Y-116138999I-237500J0D01*
G01*
X135489500Y-116138999D01*
G75*
G02*
X135252000Y-115901499I0J237500D01*
G01*
G37*
%TD.AperFunction*%
%TO.P,R1,2*%
%TO.N,EN*%
%TA.AperFunction,SMDPad,CuDef*%
G36*
G01*
X137077000Y-115901499D02*
X137077000Y-115426499D01*
G75*
G02*
X137314500Y-115188999I237500J0D01*
G01*
X137814500Y-115188999D01*
G75*
G02*
X138052000Y-115426499I0J-237500D01*
G01*
X138052000Y-115901499D01*
G75*
G02*
X137814500Y-116138999I-237500J0D01*
G01*
X137314500Y-116138999D01*
G75*
G02*
X137077000Y-115901499I0J237500D01*
G01*
G37*
%TD.AperFunction*%
%TD*%
%TO.P,R2,1*%
%TO.N,TXD*%
%TA.AperFunction,SMDPad,CuDef*%
G36*
G01*
X138065500Y-91843400D02*
X138540500Y-91843400D01*
G75*
G02*
X138778000Y-92080900I0J-237500D01*
G01*
X138778000Y-92580900D01*
G75*
G02*
X138540500Y-92818400I-237500J0D01*
G01*
X138065500Y-92818400D01*
G75*
G02*
X137828000Y-92580900I0J237500D01*
G01*
X137828000Y-92080900D01*
G75*
G02*
X138065500Y-91843400I237500J0D01*
G01*
G37*
%TD.AperFunction*%
%TO.P,R2,2*%
%TO.N,Net-(R2-Pad2)*%
%TA.AperFunction,SMDPad,CuDef*%
G36*
G01*
X138065500Y-93668400D02*
X138540500Y-93668400D01*
G75*
G02*
X138778000Y-93905900I0J-237500D01*
G01*
X138778000Y-94405900D01*
G75*
G02*
X138540500Y-94643400I-237500J0D01*
G01*
X138065500Y-94643400D01*
G75*
G02*
X137828000Y-94405900I0J237500D01*
G01*
X137828000Y-93905900D01*
G75*
G02*
X138065500Y-93668400I237500J0D01*
G01*
G37*
%TD.AperFunction*%
%TD*%
%TO.P,R3,2*%
%TO.N,Net-(R3-Pad2)*%
%TA.AperFunction,SMDPad,CuDef*%
G36*
G01*
X139564100Y-93668400D02*
X140039100Y-93668400D01*
G75*
G02*
X140276600Y-93905900I0J-237500D01*
G01*
X140276600Y-94405900D01*
G75*
G02*
X140039100Y-94643400I-237500J0D01*
G01*
X139564100Y-94643400D01*
G75*
G02*
X139326600Y-94405900I0J237500D01*
G01*
X139326600Y-93905900D01*
G75*
G02*
X139564100Y-93668400I237500J0D01*
G01*
G37*
%TD.AperFunction*%
%TO.P,R3,1*%
%TO.N,RXD*%
%TA.AperFunction,SMDPad,CuDef*%
G36*
G01*
X139564100Y-91843400D02*
X140039100Y-91843400D01*
G75*
G02*
X140276600Y-92080900I0J-237500D01*
G01*
X140276600Y-92580900D01*
G75*
G02*
X140039100Y-92818400I-237500J0D01*
G01*
X139564100Y-92818400D01*
G75*
G02*
X139326600Y-92580900I0J237500D01*
G01*
X139326600Y-92080900D01*
G75*
G02*
X139564100Y-91843400I237500J0D01*
G01*
G37*
%TD.AperFunction*%
%TD*%
D16*
%TO.P,SW1,1*%
%TO.N,GND*%
X163576000Y-112219000D03*
%TO.P,SW1,2*%
%TO.N,EN*%
X163576000Y-115619000D03*
%TD*%
%TO.P,SW2,1*%
%TO.N,IO0*%
X163830000Y-97204000D03*
%TO.P,SW2,2*%
%TO.N,GND*%
X163830000Y-93804000D03*
%TD*%
%TO.P,D1,1*%
%TO.N,GND*%
%TA.AperFunction,SMDPad,CuDef*%
G36*
G01*
X120088200Y-125256300D02*
X120088200Y-124781300D01*
G75*
G02*
X120325700Y-124543800I237500J0D01*
G01*
X120900700Y-124543800D01*
G75*
G02*
X121138200Y-124781300I0J-237500D01*
G01*
X121138200Y-125256300D01*
G75*
G02*
X120900700Y-125493800I-237500J0D01*
G01*
X120325700Y-125493800D01*
G75*
G02*
X120088200Y-125256300I0J237500D01*
G01*
G37*
%TD.AperFunction*%
%TO.P,D1,2*%
%TO.N,Net-(D1-Pad2)*%
%TA.AperFunction,SMDPad,CuDef*%
G36*
G01*
X121838200Y-125256300D02*
X121838200Y-124781300D01*
G75*
G02*
X122075700Y-124543800I237500J0D01*
G01*
X122650700Y-124543800D01*
G75*
G02*
X122888200Y-124781300I0J-237500D01*
G01*
X122888200Y-125256300D01*
G75*
G02*
X122650700Y-125493800I-237500J0D01*
G01*
X122075700Y-125493800D01*
G75*
G02*
X121838200Y-125256300I0J237500D01*
G01*
G37*
%TD.AperFunction*%
%TD*%
%TO.P,D2,2*%
%TO.N,Net-(D2-Pad2)*%
%TA.AperFunction,SMDPad,CuDef*%
G36*
G01*
X154640800Y-98797100D02*
X154640800Y-99272100D01*
G75*
G02*
X154403300Y-99509600I-237500J0D01*
G01*
X153828300Y-99509600D01*
G75*
G02*
X153590800Y-99272100I0J237500D01*
G01*
X153590800Y-98797100D01*
G75*
G02*
X153828300Y-98559600I237500J0D01*
G01*
X154403300Y-98559600D01*
G75*
G02*
X154640800Y-98797100I0J-237500D01*
G01*
G37*
%TD.AperFunction*%
%TO.P,D2,1*%
%TO.N,GND*%
%TA.AperFunction,SMDPad,CuDef*%
G36*
G01*
X156390800Y-98797100D02*
X156390800Y-99272100D01*
G75*
G02*
X156153300Y-99509600I-237500J0D01*
G01*
X155578300Y-99509600D01*
G75*
G02*
X155340800Y-99272100I0J237500D01*
G01*
X155340800Y-98797100D01*
G75*
G02*
X155578300Y-98559600I237500J0D01*
G01*
X156153300Y-98559600D01*
G75*
G02*
X156390800Y-98797100I0J-237500D01*
G01*
G37*
%TD.AperFunction*%
%TD*%
%TO.P,R4,1*%
%TO.N,IO0*%
%TA.AperFunction,SMDPad,CuDef*%
G36*
G01*
X126215600Y-124781300D02*
X126215600Y-125256300D01*
G75*
G02*
X125978100Y-125493800I-237500J0D01*
G01*
X125478100Y-125493800D01*
G75*
G02*
X125240600Y-125256300I0J237500D01*
G01*
X125240600Y-124781300D01*
G75*
G02*
X125478100Y-124543800I237500J0D01*
G01*
X125978100Y-124543800D01*
G75*
G02*
X126215600Y-124781300I0J-237500D01*
G01*
G37*
%TD.AperFunction*%
%TO.P,R4,2*%
%TO.N,Net-(D1-Pad2)*%
%TA.AperFunction,SMDPad,CuDef*%
G36*
G01*
X124390600Y-124781300D02*
X124390600Y-125256300D01*
G75*
G02*
X124153100Y-125493800I-237500J0D01*
G01*
X123653100Y-125493800D01*
G75*
G02*
X123415600Y-125256300I0J237500D01*
G01*
X123415600Y-124781300D01*
G75*
G02*
X123653100Y-124543800I237500J0D01*
G01*
X124153100Y-124543800D01*
G75*
G02*
X124390600Y-124781300I0J-237500D01*
G01*
G37*
%TD.AperFunction*%
%TD*%
D17*
%TO.N,GND*%
X152196800Y-110566200D03*
%TO.N,RXD*%
X167640000Y-90932000D03*
%TO.N,SPI0_MISO*%
X135890000Y-97790000D03*
%TO.N,SPI0_SCLK*%
X144780000Y-97790000D03*
%TO.N,GPIO_HANDSHAKE*%
X140970000Y-97790000D03*
X140208000Y-122316599D03*
%TO.N,SPI0_MOSI*%
X143510000Y-97790000D03*
%TO.N,GPIO_DATA_READY*%
X137160000Y-97790000D03*
%TO.N,SPI0_CS0*%
X143764000Y-100584000D03*
%TO.N,Net-(D2-Pad2)*%
X154101800Y-99034600D03*
%TO.N,/IO2*%
X152120600Y-98983800D03*
%TD*%
D18*
%TO.N,EN*%
X137160000Y-115259499D02*
X137564500Y-115663999D01*
X137160000Y-113275000D02*
X137160000Y-115259499D01*
X139109299Y-115663999D02*
X139116900Y-115671600D01*
X133858000Y-127635000D02*
X137160000Y-124333000D01*
X163576000Y-115619000D02*
X163576000Y-116078000D01*
X163576000Y-116078000D02*
X162306000Y-117348000D01*
X137160000Y-117348000D02*
X137160000Y-115259499D01*
X137160000Y-124333000D02*
X137160000Y-117348000D01*
X139116900Y-115671600D02*
X139116900Y-116153100D01*
X137922000Y-117348000D02*
X137160000Y-117348000D01*
X139116900Y-116256900D02*
X140208000Y-117348000D01*
X139116900Y-115671600D02*
X139116900Y-116256900D01*
X140208000Y-117348000D02*
X137922000Y-117348000D01*
X154686000Y-117348000D02*
X140208000Y-117348000D01*
X156210000Y-115824000D02*
X154686000Y-117348000D01*
X156210000Y-115824000D02*
X157734000Y-117348000D01*
X156210000Y-114781500D02*
X156210000Y-115824000D01*
X157734000Y-117348000D02*
X154686000Y-117348000D01*
X162306000Y-117348000D02*
X157734000Y-117348000D01*
X156210000Y-115824000D02*
X156210000Y-116586000D01*
X137564500Y-116228500D02*
X138303000Y-116967000D01*
X137564500Y-115663999D02*
X137564500Y-116228500D01*
X138303000Y-116967000D02*
X137922000Y-117348000D01*
X139116900Y-116153100D02*
X138303000Y-116967000D01*
D19*
%TO.N,GND*%
X152130000Y-110499400D02*
X152196800Y-110566200D01*
X152130000Y-110490000D02*
X152130000Y-110499400D01*
D18*
%TO.N,IO0*%
X135890000Y-115513499D02*
X135739500Y-115663999D01*
X135890000Y-113275000D02*
X135890000Y-115513499D01*
X123698000Y-127635000D02*
X123698000Y-130175000D01*
X155991500Y-96275000D02*
X156083000Y-96366500D01*
X151130000Y-96275000D02*
X155991500Y-96275000D01*
X156083000Y-96366500D02*
X156818500Y-96366500D01*
X157656000Y-97204000D02*
X163830000Y-97204000D01*
X156818500Y-96366500D02*
X157656000Y-97204000D01*
X135739500Y-115663999D02*
X135669001Y-115663999D01*
X123825000Y-127635000D02*
X123698000Y-127635000D01*
X125730000Y-125730000D02*
X123825000Y-127635000D01*
X133858000Y-125730000D02*
X125730000Y-125730000D01*
X135739500Y-123848500D02*
X133858000Y-125730000D01*
X135739500Y-115663999D02*
X135739500Y-123848500D01*
X151130000Y-97435678D02*
X148844000Y-99721678D01*
X151130000Y-96275000D02*
X151130000Y-97435678D01*
X148844000Y-99721678D02*
X148844000Y-107442000D01*
X148844000Y-107442000D02*
X145542000Y-110744000D01*
X135890000Y-111920678D02*
X135890000Y-113275000D01*
X137066678Y-110744000D02*
X135890000Y-111920678D01*
X145542000Y-110744000D02*
X137066678Y-110744000D01*
D19*
X125728100Y-125728100D02*
X125730000Y-125730000D01*
X125728100Y-125018800D02*
X125728100Y-125728100D01*
D20*
%TO.N,Net-(J3-Pad4)*%
X171323000Y-113919000D02*
X177292000Y-113919000D01*
X166370000Y-118872000D02*
X171323000Y-113919000D01*
X157226000Y-118872000D02*
X166370000Y-118872000D01*
X151638000Y-124460000D02*
X157226000Y-118872000D01*
D19*
X151612600Y-124460000D02*
X151638000Y-124460000D01*
D20*
%TO.N,Net-(J3-Pad5)*%
X171577000Y-116459000D02*
X177292000Y-116459000D01*
X167640000Y-120396000D02*
X171577000Y-116459000D01*
X158216600Y-120396000D02*
X167640000Y-120396000D01*
X154152600Y-124460000D02*
X158216600Y-120396000D01*
%TO.N,TXD*%
X167640000Y-88900000D02*
X176784000Y-98044000D01*
X139573000Y-88900000D02*
X167640000Y-88900000D01*
X138303000Y-90170000D02*
X139573000Y-88900000D01*
X176784000Y-98044000D02*
X177292000Y-98044000D01*
X138303000Y-92330900D02*
X138303000Y-90170000D01*
D19*
%TO.N,RXD*%
X167640000Y-90932000D02*
X167640000Y-90932000D01*
D20*
X139801600Y-92330900D02*
X139801600Y-91592400D01*
X139801600Y-91592400D02*
X140462000Y-90932000D01*
X140462000Y-90932000D02*
X167640000Y-90932000D01*
D19*
%TO.N,SPI0_MISO*%
X135890000Y-96275000D02*
X135890000Y-97790000D01*
%TO.N,SPI0_SCLK*%
X144780000Y-96275000D02*
X144780000Y-97790000D01*
%TO.N,GPIO_HANDSHAKE*%
X140970000Y-96275000D02*
X140970000Y-97790000D01*
X147701000Y-128778000D02*
X149098000Y-130175000D01*
X140716000Y-128778000D02*
X147701000Y-128778000D01*
X140208000Y-128270000D02*
X140716000Y-128778000D01*
X140208000Y-122459198D02*
X140208000Y-128270000D01*
X140350599Y-122316599D02*
X140208000Y-122459198D01*
%TO.N,SPI0_MOSI*%
X143510000Y-96275000D02*
X143510000Y-97790000D01*
%TO.N,GPIO_DATA_READY*%
X137160000Y-96275000D02*
X137160000Y-97790000D01*
%TO.N,SPI0_CS0*%
X146050000Y-98298000D02*
X143764000Y-100584000D01*
X146050000Y-96275000D02*
X146050000Y-98298000D01*
D20*
%TO.N,Net-(R2-Pad2)*%
X138303000Y-94155900D02*
X138303000Y-94361000D01*
X138430000Y-94488000D02*
X138430000Y-96275000D01*
X138303000Y-94361000D02*
X138430000Y-94488000D01*
%TO.N,Net-(R3-Pad2)*%
X139801600Y-94155900D02*
X139801600Y-94894400D01*
X139700000Y-94996000D02*
X139700000Y-96275000D01*
X139801600Y-94894400D02*
X139700000Y-94996000D01*
D19*
%TO.N,/TMS*%
X154813000Y-107950000D02*
X155448000Y-107950000D01*
X154051000Y-108712000D02*
X154813000Y-107950000D01*
X154051000Y-110617000D02*
X154051000Y-108712000D01*
X153162000Y-111506000D02*
X154051000Y-110617000D01*
X150876000Y-111506000D02*
X153162000Y-111506000D01*
X149860000Y-112522000D02*
X150876000Y-111506000D01*
X149860000Y-113275000D02*
X149860000Y-112522000D01*
%TO.N,/TDI*%
X151130000Y-113275000D02*
X153425000Y-113275000D01*
X153425000Y-113275000D02*
X155448000Y-111252000D01*
X155448000Y-111252000D02*
X155448000Y-109982000D01*
%TO.N,/TCK*%
X155194000Y-106172000D02*
X155448000Y-106172000D01*
X155194000Y-106172000D02*
X155448000Y-105918000D01*
X154432000Y-106172000D02*
X155194000Y-106172000D01*
X153543000Y-107061000D02*
X154432000Y-106172000D01*
X153543000Y-108486322D02*
X153543000Y-107061000D01*
X152809322Y-109220000D02*
X153543000Y-108486322D01*
X152130000Y-109220000D02*
X152809322Y-109220000D01*
%TO.N,/TDO*%
X152130000Y-100330000D02*
X152809322Y-100330000D01*
X154051000Y-102489000D02*
X155448000Y-103886000D01*
X152758522Y-100304600D02*
X154051000Y-101597078D01*
X154051000Y-101597078D02*
X154051000Y-102489000D01*
X152079200Y-100304600D02*
X152758522Y-100304600D01*
%TO.N,Net-(D1-Pad2)*%
X122363200Y-125018800D02*
X123903100Y-125018800D01*
%TD*%
D21*
%TO.N,GND*%
X120338368Y-78221525D02*
X120131525Y-78428368D01*
X119969010Y-78671589D01*
X119857068Y-78941842D01*
X119800000Y-79228740D01*
X119800000Y-79521260D01*
X119857068Y-79808158D01*
X119969010Y-80078411D01*
X120131525Y-80321632D01*
X120263380Y-80453487D01*
X120190820Y-80475498D01*
X120080506Y-80534463D01*
X119983815Y-80613815D01*
X119904463Y-80710506D01*
X119845498Y-80820820D01*
X119809188Y-80940518D01*
X119796928Y-81065000D01*
X119796928Y-82765000D01*
X119809188Y-82889482D01*
X119845498Y-83009180D01*
X119904463Y-83119494D01*
X119983815Y-83216185D01*
X120080506Y-83295537D01*
X120190820Y-83354502D01*
X120310518Y-83390812D01*
X120435000Y-83403072D01*
X122135000Y-83403072D01*
X122259482Y-83390812D01*
X122379180Y-83354502D01*
X122489494Y-83295537D01*
X122586185Y-83216185D01*
X122665537Y-83119494D01*
X122724502Y-83009180D01*
X122746513Y-82936620D01*
X122878368Y-83068475D01*
X123121589Y-83230990D01*
X123391842Y-83342932D01*
X123678740Y-83400000D01*
X123971260Y-83400000D01*
X124258158Y-83342932D01*
X124528411Y-83230990D01*
X124771632Y-83068475D01*
X124978475Y-82861632D01*
X125095000Y-82687240D01*
X125211525Y-82861632D01*
X125418368Y-83068475D01*
X125661589Y-83230990D01*
X125931842Y-83342932D01*
X126218740Y-83400000D01*
X126511260Y-83400000D01*
X126798158Y-83342932D01*
X127068411Y-83230990D01*
X127311632Y-83068475D01*
X127518475Y-82861632D01*
X127635000Y-82687240D01*
X127751525Y-82861632D01*
X127958368Y-83068475D01*
X128201589Y-83230990D01*
X128471842Y-83342932D01*
X128758740Y-83400000D01*
X129051260Y-83400000D01*
X129338158Y-83342932D01*
X129608411Y-83230990D01*
X129851632Y-83068475D01*
X130058475Y-82861632D01*
X130175000Y-82687240D01*
X130291525Y-82861632D01*
X130498368Y-83068475D01*
X130741589Y-83230990D01*
X131011842Y-83342932D01*
X131298740Y-83400000D01*
X131591260Y-83400000D01*
X131878158Y-83342932D01*
X132148411Y-83230990D01*
X132391632Y-83068475D01*
X132598475Y-82861632D01*
X132715000Y-82687240D01*
X132831525Y-82861632D01*
X133038368Y-83068475D01*
X133281589Y-83230990D01*
X133551842Y-83342932D01*
X133838740Y-83400000D01*
X134131260Y-83400000D01*
X134418158Y-83342932D01*
X134688411Y-83230990D01*
X134931632Y-83068475D01*
X135138475Y-82861632D01*
X135255000Y-82687240D01*
X135371525Y-82861632D01*
X135578368Y-83068475D01*
X135821589Y-83230990D01*
X136091842Y-83342932D01*
X136378740Y-83400000D01*
X136671260Y-83400000D01*
X136958158Y-83342932D01*
X137228411Y-83230990D01*
X137471632Y-83068475D01*
X137678475Y-82861632D01*
X137795000Y-82687240D01*
X137911525Y-82861632D01*
X138118368Y-83068475D01*
X138361589Y-83230990D01*
X138631842Y-83342932D01*
X138918740Y-83400000D01*
X139211260Y-83400000D01*
X139498158Y-83342932D01*
X139768411Y-83230990D01*
X140011632Y-83068475D01*
X140218475Y-82861632D01*
X140335000Y-82687240D01*
X140451525Y-82861632D01*
X140658368Y-83068475D01*
X140901589Y-83230990D01*
X141171842Y-83342932D01*
X141458740Y-83400000D01*
X141751260Y-83400000D01*
X142038158Y-83342932D01*
X142308411Y-83230990D01*
X142551632Y-83068475D01*
X142758475Y-82861632D01*
X142875000Y-82687240D01*
X142991525Y-82861632D01*
X143198368Y-83068475D01*
X143441589Y-83230990D01*
X143711842Y-83342932D01*
X143998740Y-83400000D01*
X144291260Y-83400000D01*
X144578158Y-83342932D01*
X144848411Y-83230990D01*
X145091632Y-83068475D01*
X145298475Y-82861632D01*
X145415000Y-82687240D01*
X145531525Y-82861632D01*
X145738368Y-83068475D01*
X145981589Y-83230990D01*
X146251842Y-83342932D01*
X146538740Y-83400000D01*
X146831260Y-83400000D01*
X147118158Y-83342932D01*
X147388411Y-83230990D01*
X147631632Y-83068475D01*
X147838475Y-82861632D01*
X147955000Y-82687240D01*
X148071525Y-82861632D01*
X148278368Y-83068475D01*
X148521589Y-83230990D01*
X148791842Y-83342932D01*
X149078740Y-83400000D01*
X149371260Y-83400000D01*
X149658158Y-83342932D01*
X149928411Y-83230990D01*
X150171632Y-83068475D01*
X150378475Y-82861632D01*
X150495000Y-82687240D01*
X150611525Y-82861632D01*
X150818368Y-83068475D01*
X151061589Y-83230990D01*
X151331842Y-83342932D01*
X151618740Y-83400000D01*
X151911260Y-83400000D01*
X152198158Y-83342932D01*
X152468411Y-83230990D01*
X152711632Y-83068475D01*
X152918475Y-82861632D01*
X153035000Y-82687240D01*
X153151525Y-82861632D01*
X153358368Y-83068475D01*
X153601589Y-83230990D01*
X153871842Y-83342932D01*
X154158740Y-83400000D01*
X154451260Y-83400000D01*
X154738158Y-83342932D01*
X155008411Y-83230990D01*
X155251632Y-83068475D01*
X155458475Y-82861632D01*
X155575000Y-82687240D01*
X155691525Y-82861632D01*
X155898368Y-83068475D01*
X156141589Y-83230990D01*
X156411842Y-83342932D01*
X156698740Y-83400000D01*
X156991260Y-83400000D01*
X157278158Y-83342932D01*
X157548411Y-83230990D01*
X157791632Y-83068475D01*
X157998475Y-82861632D01*
X158115000Y-82687240D01*
X158231525Y-82861632D01*
X158438368Y-83068475D01*
X158681589Y-83230990D01*
X158951842Y-83342932D01*
X159238740Y-83400000D01*
X159531260Y-83400000D01*
X159818158Y-83342932D01*
X160088411Y-83230990D01*
X160331632Y-83068475D01*
X160538475Y-82861632D01*
X160655000Y-82687240D01*
X160771525Y-82861632D01*
X160978368Y-83068475D01*
X161221589Y-83230990D01*
X161491842Y-83342932D01*
X161778740Y-83400000D01*
X162071260Y-83400000D01*
X162358158Y-83342932D01*
X162628411Y-83230990D01*
X162871632Y-83068475D01*
X163078475Y-82861632D01*
X163195000Y-82687240D01*
X163311525Y-82861632D01*
X163518368Y-83068475D01*
X163761589Y-83230990D01*
X164031842Y-83342932D01*
X164318740Y-83400000D01*
X164611260Y-83400000D01*
X164898158Y-83342932D01*
X165168411Y-83230990D01*
X165411632Y-83068475D01*
X165618475Y-82861632D01*
X165735000Y-82687240D01*
X165851525Y-82861632D01*
X166058368Y-83068475D01*
X166301589Y-83230990D01*
X166571842Y-83342932D01*
X166858740Y-83400000D01*
X167151260Y-83400000D01*
X167438158Y-83342932D01*
X167708411Y-83230990D01*
X167951632Y-83068475D01*
X168158475Y-82861632D01*
X168275000Y-82687240D01*
X168391525Y-82861632D01*
X168598368Y-83068475D01*
X168841589Y-83230990D01*
X169111842Y-83342932D01*
X169398740Y-83400000D01*
X169691260Y-83400000D01*
X169978158Y-83342932D01*
X170248411Y-83230990D01*
X170491632Y-83068475D01*
X170698475Y-82861632D01*
X170815000Y-82687240D01*
X170931525Y-82861632D01*
X171138368Y-83068475D01*
X171381589Y-83230990D01*
X171651842Y-83342932D01*
X171938740Y-83400000D01*
X172231260Y-83400000D01*
X172518158Y-83342932D01*
X172788411Y-83230990D01*
X173031632Y-83068475D01*
X173238475Y-82861632D01*
X173355000Y-82687240D01*
X173471525Y-82861632D01*
X173678368Y-83068475D01*
X173921589Y-83230990D01*
X174191842Y-83342932D01*
X174478740Y-83400000D01*
X174771260Y-83400000D01*
X175058158Y-83342932D01*
X175328411Y-83230990D01*
X175571632Y-83068475D01*
X175778475Y-82861632D01*
X175895000Y-82687240D01*
X176011525Y-82861632D01*
X176218368Y-83068475D01*
X176461589Y-83230990D01*
X176731842Y-83342932D01*
X177018740Y-83400000D01*
X177311260Y-83400000D01*
X177598158Y-83342932D01*
X177868411Y-83230990D01*
X178111632Y-83068475D01*
X178318475Y-82861632D01*
X178480990Y-82618411D01*
X178592932Y-82348158D01*
X178650000Y-82061260D01*
X178650000Y-81768740D01*
X178592932Y-81481842D01*
X178480990Y-81211589D01*
X178318475Y-80968368D01*
X178111632Y-80761525D01*
X177937240Y-80645000D01*
X178111632Y-80528475D01*
X178318475Y-80321632D01*
X178480990Y-80078411D01*
X178592932Y-79808158D01*
X178650000Y-79521260D01*
X178650000Y-79228740D01*
X178592932Y-78941842D01*
X178480990Y-78671589D01*
X178412726Y-78569425D01*
X179219222Y-78800684D01*
X180461875Y-79312870D01*
X181639680Y-79960374D01*
X182737979Y-80735139D01*
X183743067Y-81627498D01*
X184642430Y-82626341D01*
X185424839Y-83719199D01*
X186080552Y-84892460D01*
X186601404Y-86131516D01*
X186980886Y-87420889D01*
X187214281Y-88744535D01*
X187299763Y-90103235D01*
X187300000Y-90171154D01*
X187300001Y-119361545D01*
X187223942Y-120721974D01*
X186999795Y-122047209D01*
X186629317Y-123339219D01*
X186117137Y-124581861D01*
X185469628Y-125759677D01*
X184694864Y-126857975D01*
X183802496Y-127863072D01*
X182803663Y-128762426D01*
X181710807Y-129544835D01*
X180537537Y-130200553D01*
X179298484Y-130721404D01*
X178248646Y-131030387D01*
X178382157Y-130806252D01*
X178479481Y-130531891D01*
X178358814Y-130302000D01*
X177165000Y-130302000D01*
X177165000Y-130322000D01*
X176911000Y-130322000D01*
X176911000Y-130302000D01*
X174625000Y-130302000D01*
X174625000Y-130322000D01*
X174371000Y-130322000D01*
X174371000Y-130302000D01*
X174351000Y-130302000D01*
X174351000Y-130048000D01*
X174371000Y-130048000D01*
X174371000Y-127762000D01*
X174625000Y-127762000D01*
X174625000Y-130048000D01*
X176911000Y-130048000D01*
X176911000Y-127762000D01*
X177165000Y-127762000D01*
X177165000Y-130048000D01*
X178358814Y-130048000D01*
X178479481Y-129818109D01*
X178382157Y-129543748D01*
X178233178Y-129293645D01*
X178038269Y-129077412D01*
X177807120Y-128905000D01*
X178038269Y-128732588D01*
X178233178Y-128516355D01*
X178382157Y-128266252D01*
X178479481Y-127991891D01*
X178358814Y-127762000D01*
X177165000Y-127762000D01*
X176911000Y-127762000D01*
X174625000Y-127762000D01*
X174371000Y-127762000D01*
X174351000Y-127762000D01*
X174351000Y-127508000D01*
X174371000Y-127508000D01*
X174371000Y-126314845D01*
X174625000Y-126314845D01*
X174625000Y-127508000D01*
X176911000Y-127508000D01*
X176911000Y-126314845D01*
X177165000Y-126314845D01*
X177165000Y-127508000D01*
X178358814Y-127508000D01*
X178479481Y-127278109D01*
X178382157Y-127003748D01*
X178233178Y-126753645D01*
X178038269Y-126537412D01*
X177804920Y-126363359D01*
X177542099Y-126238175D01*
X177394890Y-126193524D01*
X177165000Y-126314845D01*
X176911000Y-126314845D01*
X176681110Y-126193524D01*
X176533901Y-126238175D01*
X176271080Y-126363359D01*
X176037731Y-126537412D01*
X175842822Y-126753645D01*
X175768000Y-126879255D01*
X175693178Y-126753645D01*
X175498269Y-126537412D01*
X175264920Y-126363359D01*
X175002099Y-126238175D01*
X174854890Y-126193524D01*
X174625000Y-126314845D01*
X174371000Y-126314845D01*
X174141110Y-126193524D01*
X173993901Y-126238175D01*
X173731080Y-126363359D01*
X173497731Y-126537412D01*
X173302822Y-126753645D01*
X173233195Y-126870534D01*
X173111475Y-126688368D01*
X172904632Y-126481525D01*
X172661411Y-126319010D01*
X172391158Y-126207068D01*
X172104260Y-126150000D01*
X171811740Y-126150000D01*
X171524842Y-126207068D01*
X171254589Y-126319010D01*
X171011368Y-126481525D01*
X170804525Y-126688368D01*
X170688000Y-126862760D01*
X170571475Y-126688368D01*
X170364632Y-126481525D01*
X170121411Y-126319010D01*
X169851158Y-126207068D01*
X169564260Y-126150000D01*
X169271740Y-126150000D01*
X168984842Y-126207068D01*
X168714589Y-126319010D01*
X168471368Y-126481525D01*
X168264525Y-126688368D01*
X168148000Y-126862760D01*
X168031475Y-126688368D01*
X167824632Y-126481525D01*
X167581411Y-126319010D01*
X167311158Y-126207068D01*
X167024260Y-126150000D01*
X166731740Y-126150000D01*
X166444842Y-126207068D01*
X166174589Y-126319010D01*
X165931368Y-126481525D01*
X165724525Y-126688368D01*
X165608000Y-126862760D01*
X165491475Y-126688368D01*
X165284632Y-126481525D01*
X165041411Y-126319010D01*
X164771158Y-126207068D01*
X164484260Y-126150000D01*
X164191740Y-126150000D01*
X163904842Y-126207068D01*
X163634589Y-126319010D01*
X163391368Y-126481525D01*
X163184525Y-126688368D01*
X163068000Y-126862760D01*
X162951475Y-126688368D01*
X162744632Y-126481525D01*
X162501411Y-126319010D01*
X162231158Y-126207068D01*
X161944260Y-126150000D01*
X161651740Y-126150000D01*
X161364842Y-126207068D01*
X161094589Y-126319010D01*
X160851368Y-126481525D01*
X160644525Y-126688368D01*
X160528000Y-126862760D01*
X160411475Y-126688368D01*
X160204632Y-126481525D01*
X159961411Y-126319010D01*
X159691158Y-126207068D01*
X159404260Y-126150000D01*
X159111740Y-126150000D01*
X158824842Y-126207068D01*
X158554589Y-126319010D01*
X158311368Y-126481525D01*
X158104525Y-126688368D01*
X157988000Y-126862760D01*
X157871475Y-126688368D01*
X157664632Y-126481525D01*
X157421411Y-126319010D01*
X157151158Y-126207068D01*
X156864260Y-126150000D01*
X156571740Y-126150000D01*
X156284842Y-126207068D01*
X156014589Y-126319010D01*
X155771368Y-126481525D01*
X155564525Y-126688368D01*
X155448000Y-126862760D01*
X155331475Y-126688368D01*
X155124632Y-126481525D01*
X154881411Y-126319010D01*
X154611158Y-126207068D01*
X154324260Y-126150000D01*
X154031740Y-126150000D01*
X153744842Y-126207068D01*
X153474589Y-126319010D01*
X153231368Y-126481525D01*
X153024525Y-126688368D01*
X152908000Y-126862760D01*
X152791475Y-126688368D01*
X152584632Y-126481525D01*
X152341411Y-126319010D01*
X152071158Y-126207068D01*
X151784260Y-126150000D01*
X151491740Y-126150000D01*
X151204842Y-126207068D01*
X150934589Y-126319010D01*
X150691368Y-126481525D01*
X150484525Y-126688368D01*
X150368000Y-126862760D01*
X150251475Y-126688368D01*
X150044632Y-126481525D01*
X149801411Y-126319010D01*
X149531158Y-126207068D01*
X149244260Y-126150000D01*
X148951740Y-126150000D01*
X148664842Y-126207068D01*
X148394589Y-126319010D01*
X148151368Y-126481525D01*
X147944525Y-126688368D01*
X147828000Y-126862760D01*
X147711475Y-126688368D01*
X147504632Y-126481525D01*
X147261411Y-126319010D01*
X146991158Y-126207068D01*
X146704260Y-126150000D01*
X146411740Y-126150000D01*
X146124842Y-126207068D01*
X145854589Y-126319010D01*
X145611368Y-126481525D01*
X145404525Y-126688368D01*
X145288000Y-126862760D01*
X145171475Y-126688368D01*
X144964632Y-126481525D01*
X144721411Y-126319010D01*
X144451158Y-126207068D01*
X144164260Y-126150000D01*
X143871740Y-126150000D01*
X143584842Y-126207068D01*
X143314589Y-126319010D01*
X143071368Y-126481525D01*
X142864525Y-126688368D01*
X142748000Y-126862760D01*
X142631475Y-126688368D01*
X142424632Y-126481525D01*
X142181411Y-126319010D01*
X141911158Y-126207068D01*
X141624260Y-126150000D01*
X141331740Y-126150000D01*
X141044842Y-126207068D01*
X140968000Y-126238897D01*
X140968000Y-125310000D01*
X142504528Y-125310000D01*
X142516788Y-125434482D01*
X142553098Y-125554180D01*
X142612063Y-125664494D01*
X142691415Y-125761185D01*
X142788106Y-125840537D01*
X142898420Y-125899502D01*
X143018118Y-125935812D01*
X143142600Y-125948072D01*
X143706850Y-125945000D01*
X143865600Y-125786250D01*
X143865600Y-124587000D01*
X144119600Y-124587000D01*
X144119600Y-125786250D01*
X144278350Y-125945000D01*
X144842600Y-125948072D01*
X144967082Y-125935812D01*
X145086780Y-125899502D01*
X145197094Y-125840537D01*
X145293785Y-125761185D01*
X145373137Y-125664494D01*
X145432102Y-125554180D01*
X145456566Y-125473534D01*
X145532331Y-125557588D01*
X145765680Y-125731641D01*
X146028501Y-125856825D01*
X146175710Y-125901476D01*
X146405600Y-125780155D01*
X146405600Y-124587000D01*
X144119600Y-124587000D01*
X143865600Y-124587000D01*
X142666350Y-124587000D01*
X142507600Y-124745750D01*
X142504528Y-125310000D01*
X140968000Y-125310000D01*
X140968000Y-123610000D01*
X142504528Y-123610000D01*
X142507600Y-124174250D01*
X142666350Y-124333000D01*
X143865600Y-124333000D01*
X143865600Y-123133750D01*
X144119600Y-123133750D01*
X144119600Y-124333000D01*
X146405600Y-124333000D01*
X146405600Y-123139845D01*
X146175710Y-123018524D01*
X146028501Y-123063175D01*
X145765680Y-123188359D01*
X145532331Y-123362412D01*
X145456566Y-123446466D01*
X145432102Y-123365820D01*
X145373137Y-123255506D01*
X145293785Y-123158815D01*
X145197094Y-123079463D01*
X145086780Y-123020498D01*
X144967082Y-122984188D01*
X144842600Y-122971928D01*
X144278350Y-122975000D01*
X144119600Y-123133750D01*
X143865600Y-123133750D01*
X143706850Y-122975000D01*
X143142600Y-122971928D01*
X143018118Y-122984188D01*
X142898420Y-123020498D01*
X142788106Y-123079463D01*
X142691415Y-123158815D01*
X142612063Y-123255506D01*
X142553098Y-123365820D01*
X142516788Y-123485518D01*
X142504528Y-123610000D01*
X140968000Y-123610000D01*
X140968000Y-123020310D01*
X141011937Y-122976373D01*
X141125205Y-122806855D01*
X141203226Y-122618497D01*
X141243000Y-122418538D01*
X141243000Y-122214660D01*
X141203226Y-122014701D01*
X141125205Y-121826343D01*
X141011937Y-121656825D01*
X140867774Y-121512662D01*
X140698256Y-121399394D01*
X140509898Y-121321373D01*
X140309939Y-121281599D01*
X140106061Y-121281599D01*
X139906102Y-121321373D01*
X139717744Y-121399394D01*
X139548226Y-121512662D01*
X139404063Y-121656825D01*
X139290795Y-121826343D01*
X139212774Y-122014701D01*
X139173000Y-122214660D01*
X139173000Y-122418538D01*
X139212774Y-122618497D01*
X139290795Y-122806855D01*
X139404063Y-122976373D01*
X139448000Y-123020310D01*
X139448001Y-126238897D01*
X139371158Y-126207068D01*
X139084260Y-126150000D01*
X138791740Y-126150000D01*
X138504842Y-126207068D01*
X138234589Y-126319010D01*
X137991368Y-126481525D01*
X137784525Y-126688368D01*
X137668000Y-126862760D01*
X137551475Y-126688368D01*
X137344632Y-126481525D01*
X137101411Y-126319010D01*
X136873518Y-126224614D01*
X137923141Y-125174991D01*
X137966449Y-125139449D01*
X138108284Y-124966623D01*
X138213676Y-124769447D01*
X138266594Y-124595000D01*
X138278577Y-124555500D01*
X138286131Y-124478799D01*
X138295000Y-124388752D01*
X138295000Y-124388745D01*
X138300490Y-124333001D01*
X138295000Y-124277257D01*
X138295000Y-118483000D01*
X140152257Y-118483000D01*
X140207999Y-118488490D01*
X140263741Y-118483000D01*
X154630249Y-118483000D01*
X154686000Y-118488491D01*
X154741751Y-118483000D01*
X156363421Y-118483000D01*
X151852747Y-122993675D01*
X151758860Y-122975000D01*
X151466340Y-122975000D01*
X151179442Y-123032068D01*
X150909189Y-123144010D01*
X150665968Y-123306525D01*
X150459125Y-123513368D01*
X150342600Y-123687760D01*
X150226075Y-123513368D01*
X150019232Y-123306525D01*
X149776011Y-123144010D01*
X149505758Y-123032068D01*
X149218860Y-122975000D01*
X148926340Y-122975000D01*
X148639442Y-123032068D01*
X148369189Y-123144010D01*
X148125968Y-123306525D01*
X147919125Y-123513368D01*
X147797405Y-123695534D01*
X147727778Y-123578645D01*
X147532869Y-123362412D01*
X147299520Y-123188359D01*
X147036699Y-123063175D01*
X146889490Y-123018524D01*
X146659600Y-123139845D01*
X146659600Y-124333000D01*
X146679600Y-124333000D01*
X146679600Y-124587000D01*
X146659600Y-124587000D01*
X146659600Y-125780155D01*
X146889490Y-125901476D01*
X147036699Y-125856825D01*
X147299520Y-125731641D01*
X147532869Y-125557588D01*
X147727778Y-125341355D01*
X147797405Y-125224466D01*
X147919125Y-125406632D01*
X148125968Y-125613475D01*
X148369189Y-125775990D01*
X148639442Y-125887932D01*
X148926340Y-125945000D01*
X149218860Y-125945000D01*
X149505758Y-125887932D01*
X149776011Y-125775990D01*
X150019232Y-125613475D01*
X150226075Y-125406632D01*
X150342600Y-125232240D01*
X150459125Y-125406632D01*
X150665968Y-125613475D01*
X150909189Y-125775990D01*
X151179442Y-125887932D01*
X151466340Y-125945000D01*
X151758860Y-125945000D01*
X152045758Y-125887932D01*
X152316011Y-125775990D01*
X152559232Y-125613475D01*
X152766075Y-125406632D01*
X152882600Y-125232240D01*
X152999125Y-125406632D01*
X153205968Y-125613475D01*
X153449189Y-125775990D01*
X153719442Y-125887932D01*
X154006340Y-125945000D01*
X154298860Y-125945000D01*
X154585758Y-125887932D01*
X154856011Y-125775990D01*
X155099232Y-125613475D01*
X155306075Y-125406632D01*
X155422600Y-125232240D01*
X155539125Y-125406632D01*
X155745968Y-125613475D01*
X155989189Y-125775990D01*
X156259442Y-125887932D01*
X156546340Y-125945000D01*
X156838860Y-125945000D01*
X157125758Y-125887932D01*
X157396011Y-125775990D01*
X157639232Y-125613475D01*
X157770196Y-125482511D01*
X179990088Y-125482511D01*
X179990088Y-125926689D01*
X180076743Y-126362334D01*
X180246723Y-126772702D01*
X180493495Y-127142023D01*
X180807577Y-127456105D01*
X181176898Y-127702877D01*
X181587266Y-127872857D01*
X182022911Y-127959512D01*
X182467089Y-127959512D01*
X182902734Y-127872857D01*
X183313102Y-127702877D01*
X183682423Y-127456105D01*
X183996505Y-127142023D01*
X184243277Y-126772702D01*
X184413257Y-126362334D01*
X184499912Y-125926689D01*
X184499912Y-125482511D01*
X184413257Y-125046866D01*
X184243277Y-124636498D01*
X183996505Y-124267177D01*
X183682423Y-123953095D01*
X183313102Y-123706323D01*
X182902734Y-123536343D01*
X182467089Y-123449688D01*
X182022911Y-123449688D01*
X181587266Y-123536343D01*
X181176898Y-123706323D01*
X180807577Y-123953095D01*
X180493495Y-124267177D01*
X180246723Y-124636498D01*
X180076743Y-125046866D01*
X179990088Y-125482511D01*
X157770196Y-125482511D01*
X157846075Y-125406632D01*
X158008590Y-125163411D01*
X158120532Y-124893158D01*
X158177600Y-124606260D01*
X158177600Y-124313740D01*
X158120532Y-124026842D01*
X158008590Y-123756589D01*
X157846075Y-123513368D01*
X157639232Y-123306525D01*
X157396011Y-123144010D01*
X157125758Y-123032068D01*
X156880830Y-122983348D01*
X158583179Y-121281000D01*
X167596531Y-121281000D01*
X167640000Y-121285281D01*
X167683469Y-121281000D01*
X167683477Y-121281000D01*
X167813490Y-121268195D01*
X167980313Y-121217589D01*
X168134059Y-121135411D01*
X168268817Y-121024817D01*
X168296534Y-120991044D01*
X171943579Y-117344000D01*
X176097344Y-117344000D01*
X176138525Y-117405632D01*
X176345368Y-117612475D01*
X176588589Y-117774990D01*
X176858842Y-117886932D01*
X177145740Y-117944000D01*
X177438260Y-117944000D01*
X177725158Y-117886932D01*
X177995411Y-117774990D01*
X178238632Y-117612475D01*
X178445475Y-117405632D01*
X178607990Y-117162411D01*
X178719932Y-116892158D01*
X178777000Y-116605260D01*
X178777000Y-116312740D01*
X178719932Y-116025842D01*
X178607990Y-115755589D01*
X178445475Y-115512368D01*
X178238632Y-115305525D01*
X178064240Y-115189000D01*
X178238632Y-115072475D01*
X178445475Y-114865632D01*
X178607990Y-114622411D01*
X178719932Y-114352158D01*
X178777000Y-114065260D01*
X178777000Y-113772740D01*
X178719932Y-113485842D01*
X178607990Y-113215589D01*
X178445475Y-112972368D01*
X178313620Y-112840513D01*
X178386180Y-112818502D01*
X178496494Y-112759537D01*
X178593185Y-112680185D01*
X178672537Y-112583494D01*
X178731502Y-112473180D01*
X178767812Y-112353482D01*
X178780072Y-112229000D01*
X178777000Y-111664750D01*
X178618250Y-111506000D01*
X177419000Y-111506000D01*
X177419000Y-111526000D01*
X177165000Y-111526000D01*
X177165000Y-111506000D01*
X175965750Y-111506000D01*
X175807000Y-111664750D01*
X175803928Y-112229000D01*
X175816188Y-112353482D01*
X175852498Y-112473180D01*
X175911463Y-112583494D01*
X175990815Y-112680185D01*
X176087506Y-112759537D01*
X176197820Y-112818502D01*
X176270380Y-112840513D01*
X176138525Y-112972368D01*
X176097344Y-113034000D01*
X171366469Y-113034000D01*
X171323000Y-113029719D01*
X171279531Y-113034000D01*
X171279523Y-113034000D01*
X171149510Y-113046805D01*
X170982687Y-113097411D01*
X170871251Y-113156974D01*
X170828941Y-113179589D01*
X170727953Y-113262468D01*
X170727951Y-113262470D01*
X170694183Y-113290183D01*
X170666470Y-113323951D01*
X166003422Y-117987000D01*
X163272131Y-117987000D01*
X164339140Y-116919992D01*
X164382449Y-116884449D01*
X164524284Y-116711623D01*
X164532313Y-116696601D01*
X164550482Y-116694812D01*
X164670180Y-116658502D01*
X164780494Y-116599537D01*
X164877185Y-116520185D01*
X164956537Y-116423494D01*
X165015502Y-116313180D01*
X165051812Y-116193482D01*
X165064072Y-116069000D01*
X165064072Y-115169000D01*
X165051812Y-115044518D01*
X165015502Y-114924820D01*
X164956537Y-114814506D01*
X164877185Y-114717815D01*
X164780494Y-114638463D01*
X164670180Y-114579498D01*
X164550482Y-114543188D01*
X164426000Y-114530928D01*
X163899059Y-114530928D01*
X163798498Y-114500423D01*
X163576000Y-114478509D01*
X163353501Y-114500423D01*
X163252940Y-114530928D01*
X162726000Y-114530928D01*
X162601518Y-114543188D01*
X162481820Y-114579498D01*
X162371506Y-114638463D01*
X162274815Y-114717815D01*
X162195463Y-114814506D01*
X162136498Y-114924820D01*
X162100188Y-115044518D01*
X162087928Y-115169000D01*
X162087928Y-115960941D01*
X161835869Y-116213000D01*
X158204132Y-116213000D01*
X157345000Y-115353869D01*
X157345000Y-114725748D01*
X157328577Y-114559001D01*
X157323072Y-114540854D01*
X157323072Y-114481500D01*
X157306248Y-114310684D01*
X157256423Y-114146433D01*
X157176226Y-113996394D01*
X157215537Y-113948494D01*
X157274502Y-113838180D01*
X157310812Y-113718482D01*
X157323072Y-113594000D01*
X157320000Y-113342250D01*
X157161250Y-113183500D01*
X156337000Y-113183500D01*
X156337000Y-113203500D01*
X156083000Y-113203500D01*
X156083000Y-113183500D01*
X155258750Y-113183500D01*
X155100000Y-113342250D01*
X155096928Y-113594000D01*
X155109188Y-113718482D01*
X155145498Y-113838180D01*
X155204463Y-113948494D01*
X155243774Y-113996394D01*
X155163577Y-114146433D01*
X155113752Y-114310684D01*
X155096928Y-114481500D01*
X155096928Y-114540855D01*
X155091423Y-114559002D01*
X155075000Y-114725749D01*
X155075000Y-115353868D01*
X154215869Y-116213000D01*
X142010932Y-116213000D01*
X142017472Y-116146600D01*
X142014400Y-115957350D01*
X141855650Y-115798600D01*
X140968900Y-115798600D01*
X140968900Y-115818600D01*
X140714900Y-115818600D01*
X140714900Y-115798600D01*
X140694900Y-115798600D01*
X140694900Y-115544600D01*
X140714900Y-115544600D01*
X140714900Y-115524600D01*
X140968900Y-115524600D01*
X140968900Y-115544600D01*
X141855650Y-115544600D01*
X142014400Y-115385850D01*
X142017472Y-115196600D01*
X142005212Y-115072118D01*
X141968902Y-114952420D01*
X141934293Y-114887672D01*
X142639200Y-114887672D01*
X142763682Y-114875412D01*
X142824200Y-114857054D01*
X142884718Y-114875412D01*
X143009200Y-114887672D01*
X143909200Y-114887672D01*
X144033682Y-114875412D01*
X144094200Y-114857054D01*
X144154718Y-114875412D01*
X144279200Y-114887672D01*
X145179200Y-114887672D01*
X145303682Y-114875412D01*
X145364200Y-114857054D01*
X145424718Y-114875412D01*
X145549200Y-114887672D01*
X146449200Y-114887672D01*
X146573682Y-114875412D01*
X146634200Y-114857054D01*
X146694718Y-114875412D01*
X146819200Y-114887672D01*
X147719200Y-114887672D01*
X147843682Y-114875412D01*
X147904200Y-114857054D01*
X147964718Y-114875412D01*
X148089200Y-114887672D01*
X148989200Y-114887672D01*
X149113682Y-114875412D01*
X149174200Y-114857054D01*
X149234718Y-114875412D01*
X149359200Y-114887672D01*
X150259200Y-114887672D01*
X150383682Y-114875412D01*
X150444200Y-114857054D01*
X150504718Y-114875412D01*
X150629200Y-114887672D01*
X151529200Y-114887672D01*
X151653682Y-114875412D01*
X151773380Y-114839102D01*
X151883694Y-114780137D01*
X151980385Y-114700785D01*
X152059737Y-114604094D01*
X152118702Y-114493780D01*
X152155012Y-114374082D01*
X152167272Y-114249600D01*
X152167272Y-114035000D01*
X153387678Y-114035000D01*
X153425000Y-114038676D01*
X153462322Y-114035000D01*
X153462333Y-114035000D01*
X153573986Y-114024003D01*
X153717247Y-113980546D01*
X153849276Y-113909974D01*
X153965001Y-113815001D01*
X153988804Y-113785997D01*
X155098843Y-112675958D01*
X155100000Y-112770750D01*
X155258750Y-112929500D01*
X156083000Y-112929500D01*
X156083000Y-112042750D01*
X156337000Y-112042750D01*
X156337000Y-112929500D01*
X157161250Y-112929500D01*
X157320000Y-112770750D01*
X157321241Y-112669000D01*
X162087928Y-112669000D01*
X162100188Y-112793482D01*
X162136498Y-112913180D01*
X162195463Y-113023494D01*
X162274815Y-113120185D01*
X162371506Y-113199537D01*
X162481820Y-113258502D01*
X162601518Y-113294812D01*
X162726000Y-113307072D01*
X163290250Y-113304000D01*
X163449000Y-113145250D01*
X163449000Y-112346000D01*
X163703000Y-112346000D01*
X163703000Y-113145250D01*
X163861750Y-113304000D01*
X164426000Y-113307072D01*
X164550482Y-113294812D01*
X164670180Y-113258502D01*
X164780494Y-113199537D01*
X164877185Y-113120185D01*
X164956537Y-113023494D01*
X165015502Y-112913180D01*
X165051812Y-112793482D01*
X165064072Y-112669000D01*
X165061000Y-112504750D01*
X164902250Y-112346000D01*
X163703000Y-112346000D01*
X163449000Y-112346000D01*
X162249750Y-112346000D01*
X162091000Y-112504750D01*
X162087928Y-112669000D01*
X157321241Y-112669000D01*
X157323072Y-112519000D01*
X157310812Y-112394518D01*
X157274502Y-112274820D01*
X157215537Y-112164506D01*
X157136185Y-112067815D01*
X157039494Y-111988463D01*
X156929180Y-111929498D01*
X156809482Y-111893188D01*
X156685000Y-111880928D01*
X156495750Y-111884000D01*
X156337000Y-112042750D01*
X156083000Y-112042750D01*
X155924250Y-111884000D01*
X155891336Y-111883466D01*
X155959004Y-111815798D01*
X155988001Y-111792001D01*
X156006877Y-111769000D01*
X162087928Y-111769000D01*
X162091000Y-111933250D01*
X162249750Y-112092000D01*
X163449000Y-112092000D01*
X163449000Y-111292750D01*
X163703000Y-111292750D01*
X163703000Y-112092000D01*
X164902250Y-112092000D01*
X165061000Y-111933250D01*
X165064072Y-111769000D01*
X165051812Y-111644518D01*
X165015502Y-111524820D01*
X164956537Y-111414506D01*
X164877185Y-111317815D01*
X164780494Y-111238463D01*
X164670180Y-111179498D01*
X164550482Y-111143188D01*
X164426000Y-111130928D01*
X163861750Y-111134000D01*
X163703000Y-111292750D01*
X163449000Y-111292750D01*
X163290250Y-111134000D01*
X162726000Y-111130928D01*
X162601518Y-111143188D01*
X162481820Y-111179498D01*
X162371506Y-111238463D01*
X162274815Y-111317815D01*
X162195463Y-111414506D01*
X162136498Y-111524820D01*
X162100188Y-111644518D01*
X162087928Y-111769000D01*
X156006877Y-111769000D01*
X156015640Y-111758323D01*
X156082974Y-111676277D01*
X156153546Y-111544247D01*
X156165148Y-111506000D01*
X156197003Y-111400986D01*
X156208000Y-111289333D01*
X156208000Y-111289324D01*
X156211676Y-111252001D01*
X156208000Y-111214678D01*
X156208000Y-111063046D01*
X156302494Y-111012537D01*
X156399185Y-110933185D01*
X156478537Y-110836494D01*
X156537502Y-110726180D01*
X156573812Y-110606482D01*
X156581443Y-110529000D01*
X175803928Y-110529000D01*
X175807000Y-111093250D01*
X175965750Y-111252000D01*
X177165000Y-111252000D01*
X177165000Y-110052750D01*
X177419000Y-110052750D01*
X177419000Y-111252000D01*
X178618250Y-111252000D01*
X178777000Y-111093250D01*
X178780072Y-110529000D01*
X178767812Y-110404518D01*
X178731502Y-110284820D01*
X178672537Y-110174506D01*
X178593185Y-110077815D01*
X178496494Y-109998463D01*
X178386180Y-109939498D01*
X178266482Y-109903188D01*
X178142000Y-109890928D01*
X177577750Y-109894000D01*
X177419000Y-110052750D01*
X177165000Y-110052750D01*
X177006250Y-109894000D01*
X176442000Y-109890928D01*
X176317518Y-109903188D01*
X176197820Y-109939498D01*
X176087506Y-109998463D01*
X175990815Y-110077815D01*
X175911463Y-110174506D01*
X175852498Y-110284820D01*
X175816188Y-110404518D01*
X175803928Y-110529000D01*
X156581443Y-110529000D01*
X156586072Y-110482000D01*
X156586072Y-109482000D01*
X156573812Y-109357518D01*
X156537502Y-109237820D01*
X156478537Y-109127506D01*
X156399185Y-109030815D01*
X156320207Y-108966000D01*
X156399185Y-108901185D01*
X156478537Y-108804494D01*
X156537502Y-108694180D01*
X156573812Y-108574482D01*
X156586072Y-108450000D01*
X156586072Y-107450000D01*
X156573812Y-107325518D01*
X156537502Y-107205820D01*
X156478537Y-107095506D01*
X156399185Y-106998815D01*
X156320207Y-106934000D01*
X156399185Y-106869185D01*
X156478537Y-106772494D01*
X156537502Y-106662180D01*
X156573812Y-106542482D01*
X156586072Y-106418000D01*
X156586072Y-105418000D01*
X156573812Y-105293518D01*
X156537502Y-105173820D01*
X156478537Y-105063506D01*
X156399185Y-104966815D01*
X156320207Y-104902000D01*
X156399185Y-104837185D01*
X156478537Y-104740494D01*
X156537502Y-104630180D01*
X156573812Y-104510482D01*
X156586072Y-104386000D01*
X156586072Y-103386000D01*
X156573812Y-103261518D01*
X156537502Y-103141820D01*
X156478537Y-103031506D01*
X156399185Y-102934815D01*
X156320207Y-102870000D01*
X156399185Y-102805185D01*
X156478537Y-102708494D01*
X156537502Y-102598180D01*
X156573812Y-102478482D01*
X156586072Y-102354000D01*
X156583000Y-102139750D01*
X156424250Y-101981000D01*
X155575000Y-101981000D01*
X155575000Y-102001000D01*
X155321000Y-102001000D01*
X155321000Y-101981000D01*
X155301000Y-101981000D01*
X155301000Y-101727000D01*
X155321000Y-101727000D01*
X155321000Y-100877750D01*
X155575000Y-100877750D01*
X155575000Y-101727000D01*
X156424250Y-101727000D01*
X156583000Y-101568250D01*
X156586072Y-101354000D01*
X156573812Y-101229518D01*
X156537502Y-101109820D01*
X156478537Y-100999506D01*
X156399185Y-100902815D01*
X156302494Y-100823463D01*
X156192180Y-100764498D01*
X156072482Y-100728188D01*
X155948000Y-100715928D01*
X155733750Y-100719000D01*
X155575000Y-100877750D01*
X155321000Y-100877750D01*
X155162250Y-100719000D01*
X154948000Y-100715928D01*
X154823518Y-100728188D01*
X154703820Y-100764498D01*
X154593506Y-100823463D01*
X154496815Y-100902815D01*
X154467392Y-100938668D01*
X153717272Y-100188549D01*
X153717272Y-100136737D01*
X153828300Y-100147672D01*
X154403300Y-100147672D01*
X154574116Y-100130848D01*
X154738367Y-100081023D01*
X154889742Y-100000112D01*
X154913639Y-99980501D01*
X154986306Y-100040137D01*
X155096620Y-100099102D01*
X155216318Y-100135412D01*
X155340800Y-100147672D01*
X155580050Y-100144600D01*
X155738800Y-99985850D01*
X155738800Y-99161600D01*
X155992800Y-99161600D01*
X155992800Y-99985850D01*
X156151550Y-100144600D01*
X156390800Y-100147672D01*
X156515282Y-100135412D01*
X156634980Y-100099102D01*
X156745294Y-100040137D01*
X156841985Y-99960785D01*
X156921337Y-99864094D01*
X156980302Y-99753780D01*
X157016612Y-99634082D01*
X157028872Y-99509600D01*
X157025800Y-99320350D01*
X156867050Y-99161600D01*
X155992800Y-99161600D01*
X155738800Y-99161600D01*
X155718800Y-99161600D01*
X155718800Y-98907600D01*
X155738800Y-98907600D01*
X155738800Y-98083350D01*
X155992800Y-98083350D01*
X155992800Y-98907600D01*
X156867050Y-98907600D01*
X157025800Y-98748850D01*
X157028872Y-98559600D01*
X157016612Y-98435118D01*
X156980302Y-98315420D01*
X156921337Y-98205106D01*
X156841985Y-98108415D01*
X156745294Y-98029063D01*
X156634980Y-97970098D01*
X156515282Y-97933788D01*
X156390800Y-97921528D01*
X156151550Y-97924600D01*
X155992800Y-98083350D01*
X155738800Y-98083350D01*
X155580050Y-97924600D01*
X155340800Y-97921528D01*
X155216318Y-97933788D01*
X155096620Y-97970098D01*
X154986306Y-98029063D01*
X154913639Y-98088699D01*
X154889742Y-98069088D01*
X154738367Y-97988177D01*
X154574116Y-97938352D01*
X154403300Y-97921528D01*
X153828300Y-97921528D01*
X153657484Y-97938352D01*
X153493233Y-97988177D01*
X153401831Y-98037032D01*
X153323380Y-97995098D01*
X153203682Y-97958788D01*
X153079200Y-97946528D01*
X152143907Y-97946528D01*
X152183676Y-97872125D01*
X152248577Y-97658177D01*
X152265000Y-97491430D01*
X152265000Y-97491423D01*
X152270490Y-97435679D01*
X152267961Y-97410000D01*
X155388034Y-97410000D01*
X155510433Y-97475423D01*
X155674684Y-97525248D01*
X155845500Y-97542072D01*
X156320500Y-97542072D01*
X156382804Y-97535936D01*
X156814008Y-97967140D01*
X156849551Y-98010449D01*
X156937037Y-98082247D01*
X157022377Y-98152284D01*
X157219553Y-98257676D01*
X157433501Y-98322577D01*
X157656000Y-98344491D01*
X157711752Y-98339000D01*
X163885752Y-98339000D01*
X164052499Y-98322577D01*
X164153060Y-98292072D01*
X164680000Y-98292072D01*
X164804482Y-98279812D01*
X164924180Y-98243502D01*
X165034494Y-98184537D01*
X165131185Y-98105185D01*
X165210537Y-98008494D01*
X165269502Y-97898180D01*
X165305812Y-97778482D01*
X165318072Y-97654000D01*
X165318072Y-96754000D01*
X165305812Y-96629518D01*
X165269502Y-96509820D01*
X165210537Y-96399506D01*
X165131185Y-96302815D01*
X165034494Y-96223463D01*
X164924180Y-96164498D01*
X164804482Y-96128188D01*
X164680000Y-96115928D01*
X164153060Y-96115928D01*
X164052499Y-96085423D01*
X163885752Y-96069000D01*
X158126132Y-96069000D01*
X157660495Y-95603364D01*
X157624949Y-95560051D01*
X157452123Y-95418216D01*
X157254947Y-95312824D01*
X157184982Y-95291600D01*
X157196072Y-95179000D01*
X157193000Y-94927250D01*
X157034250Y-94768500D01*
X156210000Y-94768500D01*
X156210000Y-94788500D01*
X155956000Y-94788500D01*
X155956000Y-94768500D01*
X155131750Y-94768500D01*
X154973000Y-94927250D01*
X154970404Y-95140000D01*
X152156478Y-95140000D01*
X152155012Y-95125118D01*
X152118702Y-95005420D01*
X152059737Y-94895106D01*
X151980385Y-94798415D01*
X151883694Y-94719063D01*
X151773380Y-94660098D01*
X151653682Y-94623788D01*
X151529200Y-94611528D01*
X150629200Y-94611528D01*
X150504718Y-94623788D01*
X150444200Y-94642146D01*
X150383682Y-94623788D01*
X150259200Y-94611528D01*
X149359200Y-94611528D01*
X149234718Y-94623788D01*
X149174200Y-94642146D01*
X149113682Y-94623788D01*
X148989200Y-94611528D01*
X148089200Y-94611528D01*
X147964718Y-94623788D01*
X147904200Y-94642146D01*
X147843682Y-94623788D01*
X147719200Y-94611528D01*
X146819200Y-94611528D01*
X146694718Y-94623788D01*
X146634200Y-94642146D01*
X146573682Y-94623788D01*
X146449200Y-94611528D01*
X145549200Y-94611528D01*
X145424718Y-94623788D01*
X145364200Y-94642146D01*
X145303682Y-94623788D01*
X145179200Y-94611528D01*
X144279200Y-94611528D01*
X144154718Y-94623788D01*
X144094200Y-94642146D01*
X144033682Y-94623788D01*
X143909200Y-94611528D01*
X143009200Y-94611528D01*
X142884718Y-94623788D01*
X142824200Y-94642146D01*
X142763682Y-94623788D01*
X142639200Y-94611528D01*
X141739200Y-94611528D01*
X141614718Y-94623788D01*
X141554200Y-94642146D01*
X141493682Y-94623788D01*
X141369200Y-94611528D01*
X140887288Y-94611528D01*
X140897848Y-94576716D01*
X140914672Y-94405900D01*
X140914672Y-94104000D01*
X154969928Y-94104000D01*
X154973000Y-94355750D01*
X155131750Y-94514500D01*
X155956000Y-94514500D01*
X155956000Y-93627750D01*
X156210000Y-93627750D01*
X156210000Y-94514500D01*
X157034250Y-94514500D01*
X157193000Y-94355750D01*
X157194241Y-94254000D01*
X162341928Y-94254000D01*
X162354188Y-94378482D01*
X162390498Y-94498180D01*
X162449463Y-94608494D01*
X162528815Y-94705185D01*
X162625506Y-94784537D01*
X162735820Y-94843502D01*
X162855518Y-94879812D01*
X162980000Y-94892072D01*
X163544250Y-94889000D01*
X163703000Y-94730250D01*
X163703000Y-93931000D01*
X163957000Y-93931000D01*
X163957000Y-94730250D01*
X164115750Y-94889000D01*
X164680000Y-94892072D01*
X164804482Y-94879812D01*
X164924180Y-94843502D01*
X165034494Y-94784537D01*
X165131185Y-94705185D01*
X165210537Y-94608494D01*
X165269502Y-94498180D01*
X165305812Y-94378482D01*
X165318072Y-94254000D01*
X165315000Y-94089750D01*
X165156250Y-93931000D01*
X163957000Y-93931000D01*
X163703000Y-93931000D01*
X162503750Y-93931000D01*
X162345000Y-94089750D01*
X162341928Y-94254000D01*
X157194241Y-94254000D01*
X157196072Y-94104000D01*
X157183812Y-93979518D01*
X157147502Y-93859820D01*
X157088537Y-93749506D01*
X157009185Y-93652815D01*
X156912494Y-93573463D01*
X156802180Y-93514498D01*
X156682482Y-93478188D01*
X156558000Y-93465928D01*
X156368750Y-93469000D01*
X156210000Y-93627750D01*
X155956000Y-93627750D01*
X155797250Y-93469000D01*
X155608000Y-93465928D01*
X155483518Y-93478188D01*
X155363820Y-93514498D01*
X155253506Y-93573463D01*
X155156815Y-93652815D01*
X155077463Y-93749506D01*
X155018498Y-93859820D01*
X154982188Y-93979518D01*
X154969928Y-94104000D01*
X140914672Y-94104000D01*
X140914672Y-93905900D01*
X140897848Y-93735084D01*
X140848023Y-93570833D01*
X140767112Y-93419458D01*
X140713392Y-93354000D01*
X162341928Y-93354000D01*
X162345000Y-93518250D01*
X162503750Y-93677000D01*
X163703000Y-93677000D01*
X163703000Y-92877750D01*
X163957000Y-92877750D01*
X163957000Y-93677000D01*
X165156250Y-93677000D01*
X165315000Y-93518250D01*
X165318072Y-93354000D01*
X165305812Y-93229518D01*
X165269502Y-93109820D01*
X165210537Y-92999506D01*
X165131185Y-92902815D01*
X165034494Y-92823463D01*
X164924180Y-92764498D01*
X164804482Y-92728188D01*
X164680000Y-92715928D01*
X164115750Y-92719000D01*
X163957000Y-92877750D01*
X163703000Y-92877750D01*
X163544250Y-92719000D01*
X162980000Y-92715928D01*
X162855518Y-92728188D01*
X162735820Y-92764498D01*
X162625506Y-92823463D01*
X162528815Y-92902815D01*
X162449463Y-92999506D01*
X162390498Y-93109820D01*
X162354188Y-93229518D01*
X162341928Y-93354000D01*
X140713392Y-93354000D01*
X140658223Y-93286777D01*
X140605368Y-93243400D01*
X140658223Y-93200023D01*
X140767112Y-93067342D01*
X140848023Y-92915967D01*
X140897848Y-92751716D01*
X140914672Y-92580900D01*
X140914672Y-92080900D01*
X140897848Y-91910084D01*
X140869611Y-91817000D01*
X167101546Y-91817000D01*
X167149744Y-91849205D01*
X167338102Y-91927226D01*
X167538061Y-91967000D01*
X167741939Y-91967000D01*
X167941898Y-91927226D01*
X168130256Y-91849205D01*
X168299774Y-91735937D01*
X168443937Y-91591774D01*
X168557205Y-91422256D01*
X168635226Y-91233898D01*
X168649676Y-91161254D01*
X175838862Y-98350441D01*
X175864068Y-98477158D01*
X175976010Y-98747411D01*
X176138525Y-98990632D01*
X176345368Y-99197475D01*
X176588589Y-99359990D01*
X176858842Y-99471932D01*
X177145740Y-99529000D01*
X177438260Y-99529000D01*
X177725158Y-99471932D01*
X177995411Y-99359990D01*
X178238632Y-99197475D01*
X178445475Y-98990632D01*
X178607990Y-98747411D01*
X178719932Y-98477158D01*
X178777000Y-98190260D01*
X178777000Y-97897740D01*
X178719932Y-97610842D01*
X178607990Y-97340589D01*
X178445475Y-97097368D01*
X178238632Y-96890525D01*
X178064240Y-96774000D01*
X178238632Y-96657475D01*
X178445475Y-96450632D01*
X178607990Y-96207411D01*
X178719932Y-95937158D01*
X178777000Y-95650260D01*
X178777000Y-95357740D01*
X178719932Y-95070842D01*
X178607990Y-94800589D01*
X178445475Y-94557368D01*
X178313620Y-94425513D01*
X178386180Y-94403502D01*
X178496494Y-94344537D01*
X178593185Y-94265185D01*
X178672537Y-94168494D01*
X178731502Y-94058180D01*
X178767812Y-93938482D01*
X178780072Y-93814000D01*
X178777000Y-93249750D01*
X178618250Y-93091000D01*
X177419000Y-93091000D01*
X177419000Y-93111000D01*
X177165000Y-93111000D01*
X177165000Y-93091000D01*
X175965750Y-93091000D01*
X175807000Y-93249750D01*
X175803928Y-93814000D01*
X175816188Y-93938482D01*
X175852498Y-94058180D01*
X175911463Y-94168494D01*
X175990815Y-94265185D01*
X176087506Y-94344537D01*
X176197820Y-94403502D01*
X176270380Y-94425513D01*
X176138525Y-94557368D01*
X175976010Y-94800589D01*
X175864068Y-95070842D01*
X175807000Y-95357740D01*
X175807000Y-95650260D01*
X175848010Y-95856432D01*
X172105578Y-92114000D01*
X175803928Y-92114000D01*
X175807000Y-92678250D01*
X175965750Y-92837000D01*
X177165000Y-92837000D01*
X177165000Y-91637750D01*
X177419000Y-91637750D01*
X177419000Y-92837000D01*
X178618250Y-92837000D01*
X178777000Y-92678250D01*
X178780072Y-92114000D01*
X178767812Y-91989518D01*
X178731502Y-91869820D01*
X178672537Y-91759506D01*
X178593185Y-91662815D01*
X178496494Y-91583463D01*
X178386180Y-91524498D01*
X178266482Y-91488188D01*
X178142000Y-91475928D01*
X177577750Y-91479000D01*
X177419000Y-91637750D01*
X177165000Y-91637750D01*
X177006250Y-91479000D01*
X176442000Y-91475928D01*
X176317518Y-91488188D01*
X176197820Y-91524498D01*
X176087506Y-91583463D01*
X175990815Y-91662815D01*
X175911463Y-91759506D01*
X175852498Y-91869820D01*
X175816188Y-91989518D01*
X175803928Y-92114000D01*
X172105578Y-92114000D01*
X168296534Y-88304956D01*
X168268817Y-88271183D01*
X168134059Y-88160589D01*
X167980313Y-88078411D01*
X167813490Y-88027805D01*
X167683477Y-88015000D01*
X167683469Y-88015000D01*
X167640000Y-88010719D01*
X167596531Y-88015000D01*
X139616465Y-88015000D01*
X139572999Y-88010719D01*
X139529533Y-88015000D01*
X139529523Y-88015000D01*
X139399510Y-88027805D01*
X139232687Y-88078411D01*
X139078941Y-88160589D01*
X139078939Y-88160590D01*
X139078940Y-88160590D01*
X138977953Y-88243468D01*
X138977951Y-88243470D01*
X138944183Y-88271183D01*
X138916470Y-88304951D01*
X137707951Y-89513471D01*
X137674184Y-89541183D01*
X137646471Y-89574951D01*
X137646468Y-89574954D01*
X137563590Y-89675941D01*
X137481412Y-89829687D01*
X137430805Y-89996510D01*
X137413719Y-90170000D01*
X137418001Y-90213479D01*
X137418000Y-91496354D01*
X137337488Y-91594458D01*
X137256577Y-91745833D01*
X137206752Y-91910084D01*
X137189928Y-92080900D01*
X137189928Y-92580900D01*
X137206752Y-92751716D01*
X137256577Y-92915967D01*
X137337488Y-93067342D01*
X137446377Y-93200023D01*
X137499232Y-93243400D01*
X137446377Y-93286777D01*
X137337488Y-93419458D01*
X137256577Y-93570833D01*
X137206752Y-93735084D01*
X137189928Y-93905900D01*
X137189928Y-94405900D01*
X137206752Y-94576716D01*
X137217312Y-94611528D01*
X136659200Y-94611528D01*
X136534718Y-94623788D01*
X136474200Y-94642146D01*
X136413682Y-94623788D01*
X136289200Y-94611528D01*
X135389200Y-94611528D01*
X135264718Y-94623788D01*
X135204200Y-94642146D01*
X135143682Y-94623788D01*
X135019200Y-94611528D01*
X134854950Y-94614600D01*
X134696200Y-94773350D01*
X134696200Y-96122600D01*
X134716200Y-96122600D01*
X134716200Y-96376600D01*
X134696200Y-96376600D01*
X134696200Y-97725850D01*
X134854950Y-97884600D01*
X134855000Y-97884601D01*
X134855000Y-97891939D01*
X134894774Y-98091898D01*
X134972795Y-98280256D01*
X135086063Y-98449774D01*
X135230226Y-98593937D01*
X135399744Y-98707205D01*
X135588102Y-98785226D01*
X135788061Y-98825000D01*
X135991939Y-98825000D01*
X136191898Y-98785226D01*
X136380256Y-98707205D01*
X136525000Y-98610490D01*
X136669744Y-98707205D01*
X136858102Y-98785226D01*
X137058061Y-98825000D01*
X137261939Y-98825000D01*
X137461898Y-98785226D01*
X137650256Y-98707205D01*
X137819774Y-98593937D01*
X137963937Y-98449774D01*
X138077205Y-98280256D01*
X138155226Y-98091898D01*
X138195000Y-97891939D01*
X138195000Y-97887672D01*
X138829200Y-97887672D01*
X138953682Y-97875412D01*
X139014200Y-97857054D01*
X139074718Y-97875412D01*
X139199200Y-97887672D01*
X139935000Y-97887672D01*
X139935000Y-97891939D01*
X139974774Y-98091898D01*
X140052795Y-98280256D01*
X140166063Y-98449774D01*
X140310226Y-98593937D01*
X140479744Y-98707205D01*
X140668102Y-98785226D01*
X140868061Y-98825000D01*
X141071939Y-98825000D01*
X141271898Y-98785226D01*
X141460256Y-98707205D01*
X141629774Y-98593937D01*
X141773937Y-98449774D01*
X141887205Y-98280256D01*
X141965226Y-98091898D01*
X142005000Y-97891939D01*
X142005000Y-97887672D01*
X142475000Y-97887672D01*
X142475000Y-97891939D01*
X142514774Y-98091898D01*
X142592795Y-98280256D01*
X142706063Y-98449774D01*
X142850226Y-98593937D01*
X143019744Y-98707205D01*
X143208102Y-98785226D01*
X143408061Y-98825000D01*
X143611939Y-98825000D01*
X143811898Y-98785226D01*
X144000256Y-98707205D01*
X144145000Y-98610490D01*
X144289744Y-98707205D01*
X144478102Y-98785226D01*
X144486335Y-98786864D01*
X143724199Y-99549000D01*
X143662061Y-99549000D01*
X143462102Y-99588774D01*
X143273744Y-99666795D01*
X143104226Y-99780063D01*
X142960063Y-99924226D01*
X142846795Y-100093744D01*
X142768774Y-100282102D01*
X142729000Y-100482061D01*
X142729000Y-100685939D01*
X142768774Y-100885898D01*
X142846795Y-101074256D01*
X142960063Y-101243774D01*
X143104226Y-101387937D01*
X143273744Y-101501205D01*
X143462102Y-101579226D01*
X143662061Y-101619000D01*
X143865939Y-101619000D01*
X144065898Y-101579226D01*
X144254256Y-101501205D01*
X144423774Y-101387937D01*
X144567937Y-101243774D01*
X144681205Y-101074256D01*
X144759226Y-100885898D01*
X144799000Y-100685939D01*
X144799000Y-100623801D01*
X146561003Y-98861799D01*
X146590001Y-98838001D01*
X146684974Y-98722276D01*
X146755546Y-98590247D01*
X146799003Y-98446986D01*
X146810000Y-98335333D01*
X146810000Y-98335324D01*
X146813676Y-98298001D01*
X146810000Y-98260678D01*
X146810000Y-97886766D01*
X146819200Y-97887672D01*
X147719200Y-97887672D01*
X147843682Y-97875412D01*
X147904200Y-97857054D01*
X147964718Y-97875412D01*
X148089200Y-97887672D01*
X148989200Y-97887672D01*
X149082016Y-97878531D01*
X148080865Y-98879682D01*
X148037551Y-98915229D01*
X147895716Y-99088055D01*
X147837231Y-99197475D01*
X147790324Y-99285232D01*
X147725423Y-99499180D01*
X147703509Y-99721678D01*
X147709000Y-99777430D01*
X147709001Y-106971867D01*
X145071869Y-109609000D01*
X137122429Y-109609000D01*
X137066678Y-109603509D01*
X137010926Y-109609000D01*
X136844179Y-109625423D01*
X136630231Y-109690324D01*
X136433055Y-109795716D01*
X136260229Y-109937551D01*
X136224689Y-109980857D01*
X135126865Y-111078682D01*
X135083551Y-111114229D01*
X134941716Y-111287055D01*
X134836325Y-111484231D01*
X134836324Y-111484232D01*
X134771446Y-111698104D01*
X134696200Y-111773350D01*
X134696200Y-113122600D01*
X134716200Y-113122600D01*
X134716200Y-113376600D01*
X134696200Y-113376600D01*
X134696200Y-114725850D01*
X134755001Y-114784651D01*
X134755001Y-114952194D01*
X134680577Y-115091432D01*
X134670728Y-115123899D01*
X134615325Y-115227552D01*
X134550424Y-115441500D01*
X134528510Y-115663999D01*
X134550424Y-115886498D01*
X134604500Y-116064761D01*
X134604501Y-123378367D01*
X133387869Y-124595000D01*
X126832151Y-124595000D01*
X126787023Y-124446233D01*
X126706112Y-124294858D01*
X126597223Y-124162177D01*
X126464542Y-124053288D01*
X126313167Y-123972377D01*
X126148916Y-123922552D01*
X125978100Y-123905728D01*
X125478100Y-123905728D01*
X125307284Y-123922552D01*
X125143033Y-123972377D01*
X124991658Y-124053288D01*
X124858977Y-124162177D01*
X124815600Y-124215032D01*
X124772223Y-124162177D01*
X124639542Y-124053288D01*
X124488167Y-123972377D01*
X124323916Y-123922552D01*
X124153100Y-123905728D01*
X123653100Y-123905728D01*
X123482284Y-123922552D01*
X123318033Y-123972377D01*
X123166658Y-124053288D01*
X123151900Y-124065400D01*
X123137142Y-124053288D01*
X122985767Y-123972377D01*
X122821516Y-123922552D01*
X122650700Y-123905728D01*
X122075700Y-123905728D01*
X121904884Y-123922552D01*
X121740633Y-123972377D01*
X121589258Y-124053288D01*
X121565361Y-124072899D01*
X121492694Y-124013263D01*
X121382380Y-123954298D01*
X121262682Y-123917988D01*
X121138200Y-123905728D01*
X120898950Y-123908800D01*
X120740200Y-124067550D01*
X120740200Y-124891800D01*
X120760200Y-124891800D01*
X120760200Y-125145800D01*
X120740200Y-125145800D01*
X120740200Y-125970050D01*
X120898950Y-126128800D01*
X121138200Y-126131872D01*
X121262682Y-126119612D01*
X121382380Y-126083302D01*
X121492694Y-126024337D01*
X121565361Y-125964701D01*
X121589258Y-125984312D01*
X121740633Y-126065223D01*
X121904884Y-126115048D01*
X122075700Y-126131872D01*
X122650700Y-126131872D01*
X122821516Y-126115048D01*
X122985767Y-126065223D01*
X123137142Y-125984312D01*
X123151900Y-125972200D01*
X123166658Y-125984312D01*
X123318033Y-126065223D01*
X123482284Y-126115048D01*
X123653100Y-126131872D01*
X123722997Y-126131872D01*
X123704869Y-126150000D01*
X123551740Y-126150000D01*
X123264842Y-126207068D01*
X122994589Y-126319010D01*
X122751368Y-126481525D01*
X122544525Y-126688368D01*
X122422805Y-126870534D01*
X122353178Y-126753645D01*
X122158269Y-126537412D01*
X121924920Y-126363359D01*
X121662099Y-126238175D01*
X121514890Y-126193524D01*
X121285000Y-126314845D01*
X121285000Y-127508000D01*
X121305000Y-127508000D01*
X121305000Y-127762000D01*
X121285000Y-127762000D01*
X121285000Y-130048000D01*
X121305000Y-130048000D01*
X121305000Y-130302000D01*
X121285000Y-130302000D01*
X121285000Y-130322000D01*
X121031000Y-130322000D01*
X121031000Y-130302000D01*
X119831750Y-130302000D01*
X119673000Y-130460750D01*
X119669928Y-131025000D01*
X119682188Y-131149482D01*
X119718498Y-131269180D01*
X119777463Y-131379494D01*
X119810705Y-131420000D01*
X107975926Y-131420000D01*
X107060207Y-131347931D01*
X106192322Y-131139570D01*
X105367720Y-130798009D01*
X104606701Y-130331655D01*
X103928006Y-129751994D01*
X103348345Y-129073299D01*
X103109115Y-128682911D01*
X113950088Y-128682911D01*
X113950088Y-129127089D01*
X114036743Y-129562734D01*
X114206723Y-129973102D01*
X114453495Y-130342423D01*
X114767577Y-130656505D01*
X115136898Y-130903277D01*
X115547266Y-131073257D01*
X115982911Y-131159912D01*
X116427089Y-131159912D01*
X116862734Y-131073257D01*
X117273102Y-130903277D01*
X117642423Y-130656505D01*
X117956505Y-130342423D01*
X118203277Y-129973102D01*
X118373257Y-129562734D01*
X118420545Y-129325000D01*
X119669928Y-129325000D01*
X119673000Y-129889250D01*
X119831750Y-130048000D01*
X121031000Y-130048000D01*
X121031000Y-127762000D01*
X119837186Y-127762000D01*
X119716519Y-127991891D01*
X119813843Y-128266252D01*
X119962822Y-128516355D01*
X120139626Y-128712502D01*
X120063820Y-128735498D01*
X119953506Y-128794463D01*
X119856815Y-128873815D01*
X119777463Y-128970506D01*
X119718498Y-129080820D01*
X119682188Y-129200518D01*
X119669928Y-129325000D01*
X118420545Y-129325000D01*
X118459912Y-129127089D01*
X118459912Y-128682911D01*
X118373257Y-128247266D01*
X118203277Y-127836898D01*
X117956505Y-127467577D01*
X117767037Y-127278109D01*
X119716519Y-127278109D01*
X119837186Y-127508000D01*
X121031000Y-127508000D01*
X121031000Y-126314845D01*
X120801110Y-126193524D01*
X120653901Y-126238175D01*
X120391080Y-126363359D01*
X120157731Y-126537412D01*
X119962822Y-126753645D01*
X119813843Y-127003748D01*
X119716519Y-127278109D01*
X117767037Y-127278109D01*
X117642423Y-127153495D01*
X117273102Y-126906723D01*
X116862734Y-126736743D01*
X116427089Y-126650088D01*
X115982911Y-126650088D01*
X115547266Y-126736743D01*
X115136898Y-126906723D01*
X114767577Y-127153495D01*
X114453495Y-127467577D01*
X114206723Y-127836898D01*
X114036743Y-128247266D01*
X113950088Y-128682911D01*
X103109115Y-128682911D01*
X102881989Y-128312275D01*
X102540430Y-127487678D01*
X102332068Y-126619791D01*
X102260000Y-125704074D01*
X102260000Y-125493800D01*
X119450128Y-125493800D01*
X119462388Y-125618282D01*
X119498698Y-125737980D01*
X119557663Y-125848294D01*
X119637015Y-125944985D01*
X119733706Y-126024337D01*
X119844020Y-126083302D01*
X119963718Y-126119612D01*
X120088200Y-126131872D01*
X120327450Y-126128800D01*
X120486200Y-125970050D01*
X120486200Y-125145800D01*
X119611950Y-125145800D01*
X119453200Y-125304550D01*
X119450128Y-125493800D01*
X102260000Y-125493800D01*
X102260000Y-124543800D01*
X119450128Y-124543800D01*
X119453200Y-124733050D01*
X119611950Y-124891800D01*
X120486200Y-124891800D01*
X120486200Y-124067550D01*
X120327450Y-123908800D01*
X120088200Y-123905728D01*
X119963718Y-123917988D01*
X119844020Y-123954298D01*
X119733706Y-124013263D01*
X119637015Y-124092615D01*
X119557663Y-124189306D01*
X119498698Y-124299620D01*
X119462388Y-124419318D01*
X119450128Y-124543800D01*
X102260000Y-124543800D01*
X102260000Y-114249600D01*
X133481128Y-114249600D01*
X133493388Y-114374082D01*
X133529698Y-114493780D01*
X133588663Y-114604094D01*
X133668015Y-114700785D01*
X133764706Y-114780137D01*
X133875020Y-114839102D01*
X133994718Y-114875412D01*
X134119200Y-114887672D01*
X134283450Y-114884600D01*
X134442200Y-114725850D01*
X134442200Y-113376600D01*
X133642950Y-113376600D01*
X133484200Y-113535350D01*
X133481128Y-114249600D01*
X102260000Y-114249600D01*
X102260000Y-112249600D01*
X133481128Y-112249600D01*
X133484200Y-112963850D01*
X133642950Y-113122600D01*
X134442200Y-113122600D01*
X134442200Y-111773350D01*
X134283450Y-111614600D01*
X134119200Y-111611528D01*
X133994718Y-111623788D01*
X133875020Y-111660098D01*
X133764706Y-111719063D01*
X133668015Y-111798415D01*
X133588663Y-111895106D01*
X133529698Y-112005420D01*
X133493388Y-112125118D01*
X133481128Y-112249600D01*
X102260000Y-112249600D01*
X102260000Y-111785000D01*
X121252581Y-111785000D01*
X121285000Y-111788193D01*
X121317419Y-111785000D01*
X121414383Y-111775450D01*
X121538793Y-111737710D01*
X121653450Y-111676425D01*
X121753948Y-111593948D01*
X121836425Y-111493450D01*
X121897710Y-111378793D01*
X121935450Y-111254383D01*
X121948193Y-111125000D01*
X121945000Y-111092581D01*
X121945000Y-108249600D01*
X138931128Y-108249600D01*
X138943388Y-108374082D01*
X138979698Y-108493780D01*
X139038663Y-108604094D01*
X139118015Y-108700785D01*
X139214706Y-108780137D01*
X139325020Y-108839102D01*
X139444718Y-108875412D01*
X139569200Y-108887672D01*
X141783450Y-108884600D01*
X141942200Y-108725850D01*
X141942200Y-105876600D01*
X142196200Y-105876600D01*
X142196200Y-108725850D01*
X142354950Y-108884600D01*
X144569200Y-108887672D01*
X144693682Y-108875412D01*
X144813380Y-108839102D01*
X144923694Y-108780137D01*
X145020385Y-108700785D01*
X145099737Y-108604094D01*
X145158702Y-108493780D01*
X145195012Y-108374082D01*
X145207272Y-108249600D01*
X145204200Y-106035350D01*
X145045450Y-105876600D01*
X142196200Y-105876600D01*
X141942200Y-105876600D01*
X139092950Y-105876600D01*
X138934200Y-106035350D01*
X138931128Y-108249600D01*
X121945000Y-108249600D01*
X121945000Y-103249600D01*
X138931128Y-103249600D01*
X138934200Y-105463850D01*
X139092950Y-105622600D01*
X141942200Y-105622600D01*
X141942200Y-102773350D01*
X142196200Y-102773350D01*
X142196200Y-105622600D01*
X145045450Y-105622600D01*
X145204200Y-105463850D01*
X145207272Y-103249600D01*
X145195012Y-103125118D01*
X145158702Y-103005420D01*
X145099737Y-102895106D01*
X145020385Y-102798415D01*
X144923694Y-102719063D01*
X144813380Y-102660098D01*
X144693682Y-102623788D01*
X144569200Y-102611528D01*
X142354950Y-102614600D01*
X142196200Y-102773350D01*
X141942200Y-102773350D01*
X141783450Y-102614600D01*
X139569200Y-102611528D01*
X139444718Y-102623788D01*
X139325020Y-102660098D01*
X139214706Y-102719063D01*
X139118015Y-102798415D01*
X139038663Y-102895106D01*
X138979698Y-103005420D01*
X138943388Y-103125118D01*
X138931128Y-103249600D01*
X121945000Y-103249600D01*
X121945000Y-97249600D01*
X133481128Y-97249600D01*
X133493388Y-97374082D01*
X133529698Y-97493780D01*
X133588663Y-97604094D01*
X133668015Y-97700785D01*
X133764706Y-97780137D01*
X133875020Y-97839102D01*
X133994718Y-97875412D01*
X134119200Y-97887672D01*
X134283450Y-97884600D01*
X134442200Y-97725850D01*
X134442200Y-96376600D01*
X133642950Y-96376600D01*
X133484200Y-96535350D01*
X133481128Y-97249600D01*
X121945000Y-97249600D01*
X121945000Y-95249600D01*
X133481128Y-95249600D01*
X133484200Y-95963850D01*
X133642950Y-96122600D01*
X134442200Y-96122600D01*
X134442200Y-94773350D01*
X134283450Y-94614600D01*
X134119200Y-94611528D01*
X133994718Y-94623788D01*
X133875020Y-94660098D01*
X133764706Y-94719063D01*
X133668015Y-94798415D01*
X133588663Y-94895106D01*
X133529698Y-95005420D01*
X133493388Y-95125118D01*
X133481128Y-95249600D01*
X121945000Y-95249600D01*
X121945000Y-93377419D01*
X121948193Y-93345000D01*
X121935450Y-93215617D01*
X121897710Y-93091207D01*
X121836425Y-92976550D01*
X121753948Y-92876052D01*
X121653450Y-92793575D01*
X121538793Y-92732290D01*
X121414383Y-92694550D01*
X121317419Y-92685000D01*
X121285000Y-92681807D01*
X121252581Y-92685000D01*
X107340000Y-92685000D01*
X107340000Y-83572511D01*
X179990088Y-83572511D01*
X179990088Y-84016689D01*
X180076743Y-84452334D01*
X180246723Y-84862702D01*
X180493495Y-85232023D01*
X180807577Y-85546105D01*
X181176898Y-85792877D01*
X181587266Y-85962857D01*
X182022911Y-86049512D01*
X182467089Y-86049512D01*
X182902734Y-85962857D01*
X183313102Y-85792877D01*
X183682423Y-85546105D01*
X183996505Y-85232023D01*
X184243277Y-84862702D01*
X184413257Y-84452334D01*
X184499912Y-84016689D01*
X184499912Y-83572511D01*
X184413257Y-83136866D01*
X184243277Y-82726498D01*
X183996505Y-82357177D01*
X183682423Y-82043095D01*
X183313102Y-81796323D01*
X182902734Y-81626343D01*
X182467089Y-81539688D01*
X182022911Y-81539688D01*
X181587266Y-81626343D01*
X181176898Y-81796323D01*
X180807577Y-82043095D01*
X180493495Y-82357177D01*
X180246723Y-82726498D01*
X180076743Y-83136866D01*
X179990088Y-83572511D01*
X107340000Y-83572511D01*
X107340000Y-80422911D01*
X113964466Y-80422911D01*
X113964466Y-80867089D01*
X114051121Y-81302734D01*
X114221101Y-81713102D01*
X114467873Y-82082423D01*
X114781955Y-82396505D01*
X115151276Y-82643277D01*
X115561644Y-82813257D01*
X115997289Y-82899912D01*
X116441467Y-82899912D01*
X116877112Y-82813257D01*
X117287480Y-82643277D01*
X117656801Y-82396505D01*
X117970883Y-82082423D01*
X118217655Y-81713102D01*
X118387635Y-81302734D01*
X118474290Y-80867089D01*
X118474290Y-80422911D01*
X118387635Y-79987266D01*
X118217655Y-79576898D01*
X117970883Y-79207577D01*
X117656801Y-78893495D01*
X117287480Y-78646723D01*
X116877112Y-78476743D01*
X116441467Y-78390088D01*
X115997289Y-78390088D01*
X115561644Y-78476743D01*
X115151276Y-78646723D01*
X114781955Y-78893495D01*
X114467873Y-79207577D01*
X114221101Y-79576898D01*
X114051121Y-79987266D01*
X113964466Y-80422911D01*
X107340000Y-80422911D01*
X107340000Y-78130000D01*
X120475345Y-78130000D01*
X120338368Y-78221525D01*
%TA.AperFunction,Conductor*%
D22*
G36*
X120338368Y-78221525D02*
G01*
X120131525Y-78428368D01*
X119969010Y-78671589D01*
X119857068Y-78941842D01*
X119800000Y-79228740D01*
X119800000Y-79521260D01*
X119857068Y-79808158D01*
X119969010Y-80078411D01*
X120131525Y-80321632D01*
X120263380Y-80453487D01*
X120190820Y-80475498D01*
X120080506Y-80534463D01*
X119983815Y-80613815D01*
X119904463Y-80710506D01*
X119845498Y-80820820D01*
X119809188Y-80940518D01*
X119796928Y-81065000D01*
X119796928Y-82765000D01*
X119809188Y-82889482D01*
X119845498Y-83009180D01*
X119904463Y-83119494D01*
X119983815Y-83216185D01*
X120080506Y-83295537D01*
X120190820Y-83354502D01*
X120310518Y-83390812D01*
X120435000Y-83403072D01*
X122135000Y-83403072D01*
X122259482Y-83390812D01*
X122379180Y-83354502D01*
X122489494Y-83295537D01*
X122586185Y-83216185D01*
X122665537Y-83119494D01*
X122724502Y-83009180D01*
X122746513Y-82936620D01*
X122878368Y-83068475D01*
X123121589Y-83230990D01*
X123391842Y-83342932D01*
X123678740Y-83400000D01*
X123971260Y-83400000D01*
X124258158Y-83342932D01*
X124528411Y-83230990D01*
X124771632Y-83068475D01*
X124978475Y-82861632D01*
X125095000Y-82687240D01*
X125211525Y-82861632D01*
X125418368Y-83068475D01*
X125661589Y-83230990D01*
X125931842Y-83342932D01*
X126218740Y-83400000D01*
X126511260Y-83400000D01*
X126798158Y-83342932D01*
X127068411Y-83230990D01*
X127311632Y-83068475D01*
X127518475Y-82861632D01*
X127635000Y-82687240D01*
X127751525Y-82861632D01*
X127958368Y-83068475D01*
X128201589Y-83230990D01*
X128471842Y-83342932D01*
X128758740Y-83400000D01*
X129051260Y-83400000D01*
X129338158Y-83342932D01*
X129608411Y-83230990D01*
X129851632Y-83068475D01*
X130058475Y-82861632D01*
X130175000Y-82687240D01*
X130291525Y-82861632D01*
X130498368Y-83068475D01*
X130741589Y-83230990D01*
X131011842Y-83342932D01*
X131298740Y-83400000D01*
X131591260Y-83400000D01*
X131878158Y-83342932D01*
X132148411Y-83230990D01*
X132391632Y-83068475D01*
X132598475Y-82861632D01*
X132715000Y-82687240D01*
X132831525Y-82861632D01*
X133038368Y-83068475D01*
X133281589Y-83230990D01*
X133551842Y-83342932D01*
X133838740Y-83400000D01*
X134131260Y-83400000D01*
X134418158Y-83342932D01*
X134688411Y-83230990D01*
X134931632Y-83068475D01*
X135138475Y-82861632D01*
X135255000Y-82687240D01*
X135371525Y-82861632D01*
X135578368Y-83068475D01*
X135821589Y-83230990D01*
X136091842Y-83342932D01*
X136378740Y-83400000D01*
X136671260Y-83400000D01*
X136958158Y-83342932D01*
X137228411Y-83230990D01*
X137471632Y-83068475D01*
X137678475Y-82861632D01*
X137795000Y-82687240D01*
X137911525Y-82861632D01*
X138118368Y-83068475D01*
X138361589Y-83230990D01*
X138631842Y-83342932D01*
X138918740Y-83400000D01*
X139211260Y-83400000D01*
X139498158Y-83342932D01*
X139768411Y-83230990D01*
X140011632Y-83068475D01*
X140218475Y-82861632D01*
X140335000Y-82687240D01*
X140451525Y-82861632D01*
X140658368Y-83068475D01*
X140901589Y-83230990D01*
X141171842Y-83342932D01*
X141458740Y-83400000D01*
X141751260Y-83400000D01*
X142038158Y-83342932D01*
X142308411Y-83230990D01*
X142551632Y-83068475D01*
X142758475Y-82861632D01*
X142875000Y-82687240D01*
X142991525Y-82861632D01*
X143198368Y-83068475D01*
X143441589Y-83230990D01*
X143711842Y-83342932D01*
X143998740Y-83400000D01*
X144291260Y-83400000D01*
X144578158Y-83342932D01*
X144848411Y-83230990D01*
X145091632Y-83068475D01*
X145298475Y-82861632D01*
X145415000Y-82687240D01*
X145531525Y-82861632D01*
X145738368Y-83068475D01*
X145981589Y-83230990D01*
X146251842Y-83342932D01*
X146538740Y-83400000D01*
X146831260Y-83400000D01*
X147118158Y-83342932D01*
X147388411Y-83230990D01*
X147631632Y-83068475D01*
X147838475Y-82861632D01*
X147955000Y-82687240D01*
X148071525Y-82861632D01*
X148278368Y-83068475D01*
X148521589Y-83230990D01*
X148791842Y-83342932D01*
X149078740Y-83400000D01*
X149371260Y-83400000D01*
X149658158Y-83342932D01*
X149928411Y-83230990D01*
X150171632Y-83068475D01*
X150378475Y-82861632D01*
X150495000Y-82687240D01*
X150611525Y-82861632D01*
X150818368Y-83068475D01*
X151061589Y-83230990D01*
X151331842Y-83342932D01*
X151618740Y-83400000D01*
X151911260Y-83400000D01*
X152198158Y-83342932D01*
X152468411Y-83230990D01*
X152711632Y-83068475D01*
X152918475Y-82861632D01*
X153035000Y-82687240D01*
X153151525Y-82861632D01*
X153358368Y-83068475D01*
X153601589Y-83230990D01*
X153871842Y-83342932D01*
X154158740Y-83400000D01*
X154451260Y-83400000D01*
X154738158Y-83342932D01*
X155008411Y-83230990D01*
X155251632Y-83068475D01*
X155458475Y-82861632D01*
X155575000Y-82687240D01*
X155691525Y-82861632D01*
X155898368Y-83068475D01*
X156141589Y-83230990D01*
X156411842Y-83342932D01*
X156698740Y-83400000D01*
X156991260Y-83400000D01*
X157278158Y-83342932D01*
X157548411Y-83230990D01*
X157791632Y-83068475D01*
X157998475Y-82861632D01*
X158115000Y-82687240D01*
X158231525Y-82861632D01*
X158438368Y-83068475D01*
X158681589Y-83230990D01*
X158951842Y-83342932D01*
X159238740Y-83400000D01*
X159531260Y-83400000D01*
X159818158Y-83342932D01*
X160088411Y-83230990D01*
X160331632Y-83068475D01*
X160538475Y-82861632D01*
X160655000Y-82687240D01*
X160771525Y-82861632D01*
X160978368Y-83068475D01*
X161221589Y-83230990D01*
X161491842Y-83342932D01*
X161778740Y-83400000D01*
X162071260Y-83400000D01*
X162358158Y-83342932D01*
X162628411Y-83230990D01*
X162871632Y-83068475D01*
X163078475Y-82861632D01*
X163195000Y-82687240D01*
X163311525Y-82861632D01*
X163518368Y-83068475D01*
X163761589Y-83230990D01*
X164031842Y-83342932D01*
X164318740Y-83400000D01*
X164611260Y-83400000D01*
X164898158Y-83342932D01*
X165168411Y-83230990D01*
X165411632Y-83068475D01*
X165618475Y-82861632D01*
X165735000Y-82687240D01*
X165851525Y-82861632D01*
X166058368Y-83068475D01*
X166301589Y-83230990D01*
X166571842Y-83342932D01*
X166858740Y-83400000D01*
X167151260Y-83400000D01*
X167438158Y-83342932D01*
X167708411Y-83230990D01*
X167951632Y-83068475D01*
X168158475Y-82861632D01*
X168275000Y-82687240D01*
X168391525Y-82861632D01*
X168598368Y-83068475D01*
X168841589Y-83230990D01*
X169111842Y-83342932D01*
X169398740Y-83400000D01*
X169691260Y-83400000D01*
X169978158Y-83342932D01*
X170248411Y-83230990D01*
X170491632Y-83068475D01*
X170698475Y-82861632D01*
X170815000Y-82687240D01*
X170931525Y-82861632D01*
X171138368Y-83068475D01*
X171381589Y-83230990D01*
X171651842Y-83342932D01*
X171938740Y-83400000D01*
X172231260Y-83400000D01*
X172518158Y-83342932D01*
X172788411Y-83230990D01*
X173031632Y-83068475D01*
X173238475Y-82861632D01*
X173355000Y-82687240D01*
X173471525Y-82861632D01*
X173678368Y-83068475D01*
X173921589Y-83230990D01*
X174191842Y-83342932D01*
X174478740Y-83400000D01*
X174771260Y-83400000D01*
X175058158Y-83342932D01*
X175328411Y-83230990D01*
X175571632Y-83068475D01*
X175778475Y-82861632D01*
X175895000Y-82687240D01*
X176011525Y-82861632D01*
X176218368Y-83068475D01*
X176461589Y-83230990D01*
X176731842Y-83342932D01*
X177018740Y-83400000D01*
X177311260Y-83400000D01*
X177598158Y-83342932D01*
X177868411Y-83230990D01*
X178111632Y-83068475D01*
X178318475Y-82861632D01*
X178480990Y-82618411D01*
X178592932Y-82348158D01*
X178650000Y-82061260D01*
X178650000Y-81768740D01*
X178592932Y-81481842D01*
X178480990Y-81211589D01*
X178318475Y-80968368D01*
X178111632Y-80761525D01*
X177937240Y-80645000D01*
X178111632Y-80528475D01*
X178318475Y-80321632D01*
X178480990Y-80078411D01*
X178592932Y-79808158D01*
X178650000Y-79521260D01*
X178650000Y-79228740D01*
X178592932Y-78941842D01*
X178480990Y-78671589D01*
X178412726Y-78569425D01*
X179219222Y-78800684D01*
X180461875Y-79312870D01*
X181639680Y-79960374D01*
X182737979Y-80735139D01*
X183743067Y-81627498D01*
X184642430Y-82626341D01*
X185424839Y-83719199D01*
X186080552Y-84892460D01*
X186601404Y-86131516D01*
X186980886Y-87420889D01*
X187214281Y-88744535D01*
X187299763Y-90103235D01*
X187300000Y-90171154D01*
X187300001Y-119361545D01*
X187223942Y-120721974D01*
X186999795Y-122047209D01*
X186629317Y-123339219D01*
X186117137Y-124581861D01*
X185469628Y-125759677D01*
X184694864Y-126857975D01*
X183802496Y-127863072D01*
X182803663Y-128762426D01*
X181710807Y-129544835D01*
X180537537Y-130200553D01*
X179298484Y-130721404D01*
X178248646Y-131030387D01*
X178382157Y-130806252D01*
X178479481Y-130531891D01*
X178358814Y-130302000D01*
X177165000Y-130302000D01*
X177165000Y-130322000D01*
X176911000Y-130322000D01*
X176911000Y-130302000D01*
X174625000Y-130302000D01*
X174625000Y-130322000D01*
X174371000Y-130322000D01*
X174371000Y-130302000D01*
X174351000Y-130302000D01*
X174351000Y-130048000D01*
X174371000Y-130048000D01*
X174371000Y-127762000D01*
X174625000Y-127762000D01*
X174625000Y-130048000D01*
X176911000Y-130048000D01*
X176911000Y-127762000D01*
X177165000Y-127762000D01*
X177165000Y-130048000D01*
X178358814Y-130048000D01*
X178479481Y-129818109D01*
X178382157Y-129543748D01*
X178233178Y-129293645D01*
X178038269Y-129077412D01*
X177807120Y-128905000D01*
X178038269Y-128732588D01*
X178233178Y-128516355D01*
X178382157Y-128266252D01*
X178479481Y-127991891D01*
X178358814Y-127762000D01*
X177165000Y-127762000D01*
X176911000Y-127762000D01*
X174625000Y-127762000D01*
X174371000Y-127762000D01*
X174351000Y-127762000D01*
X174351000Y-127508000D01*
X174371000Y-127508000D01*
X174371000Y-126314845D01*
X174625000Y-126314845D01*
X174625000Y-127508000D01*
X176911000Y-127508000D01*
X176911000Y-126314845D01*
X177165000Y-126314845D01*
X177165000Y-127508000D01*
X178358814Y-127508000D01*
X178479481Y-127278109D01*
X178382157Y-127003748D01*
X178233178Y-126753645D01*
X178038269Y-126537412D01*
X177804920Y-126363359D01*
X177542099Y-126238175D01*
X177394890Y-126193524D01*
X177165000Y-126314845D01*
X176911000Y-126314845D01*
X176681110Y-126193524D01*
X176533901Y-126238175D01*
X176271080Y-126363359D01*
X176037731Y-126537412D01*
X175842822Y-126753645D01*
X175768000Y-126879255D01*
X175693178Y-126753645D01*
X175498269Y-126537412D01*
X175264920Y-126363359D01*
X175002099Y-126238175D01*
X174854890Y-126193524D01*
X174625000Y-126314845D01*
X174371000Y-126314845D01*
X174141110Y-126193524D01*
X173993901Y-126238175D01*
X173731080Y-126363359D01*
X173497731Y-126537412D01*
X173302822Y-126753645D01*
X173233195Y-126870534D01*
X173111475Y-126688368D01*
X172904632Y-126481525D01*
X172661411Y-126319010D01*
X172391158Y-126207068D01*
X172104260Y-126150000D01*
X171811740Y-126150000D01*
X171524842Y-126207068D01*
X171254589Y-126319010D01*
X171011368Y-126481525D01*
X170804525Y-126688368D01*
X170688000Y-126862760D01*
X170571475Y-126688368D01*
X170364632Y-126481525D01*
X170121411Y-126319010D01*
X169851158Y-126207068D01*
X169564260Y-126150000D01*
X169271740Y-126150000D01*
X168984842Y-126207068D01*
X168714589Y-126319010D01*
X168471368Y-126481525D01*
X168264525Y-126688368D01*
X168148000Y-126862760D01*
X168031475Y-126688368D01*
X167824632Y-126481525D01*
X167581411Y-126319010D01*
X167311158Y-126207068D01*
X167024260Y-126150000D01*
X166731740Y-126150000D01*
X166444842Y-126207068D01*
X166174589Y-126319010D01*
X165931368Y-126481525D01*
X165724525Y-126688368D01*
X165608000Y-126862760D01*
X165491475Y-126688368D01*
X165284632Y-126481525D01*
X165041411Y-126319010D01*
X164771158Y-126207068D01*
X164484260Y-126150000D01*
X164191740Y-126150000D01*
X163904842Y-126207068D01*
X163634589Y-126319010D01*
X163391368Y-126481525D01*
X163184525Y-126688368D01*
X163068000Y-126862760D01*
X162951475Y-126688368D01*
X162744632Y-126481525D01*
X162501411Y-126319010D01*
X162231158Y-126207068D01*
X161944260Y-126150000D01*
X161651740Y-126150000D01*
X161364842Y-126207068D01*
X161094589Y-126319010D01*
X160851368Y-126481525D01*
X160644525Y-126688368D01*
X160528000Y-126862760D01*
X160411475Y-126688368D01*
X160204632Y-126481525D01*
X159961411Y-126319010D01*
X159691158Y-126207068D01*
X159404260Y-126150000D01*
X159111740Y-126150000D01*
X158824842Y-126207068D01*
X158554589Y-126319010D01*
X158311368Y-126481525D01*
X158104525Y-126688368D01*
X157988000Y-126862760D01*
X157871475Y-126688368D01*
X157664632Y-126481525D01*
X157421411Y-126319010D01*
X157151158Y-126207068D01*
X156864260Y-126150000D01*
X156571740Y-126150000D01*
X156284842Y-126207068D01*
X156014589Y-126319010D01*
X155771368Y-126481525D01*
X155564525Y-126688368D01*
X155448000Y-126862760D01*
X155331475Y-126688368D01*
X155124632Y-126481525D01*
X154881411Y-126319010D01*
X154611158Y-126207068D01*
X154324260Y-126150000D01*
X154031740Y-126150000D01*
X153744842Y-126207068D01*
X153474589Y-126319010D01*
X153231368Y-126481525D01*
X153024525Y-126688368D01*
X152908000Y-126862760D01*
X152791475Y-126688368D01*
X152584632Y-126481525D01*
X152341411Y-126319010D01*
X152071158Y-126207068D01*
X151784260Y-126150000D01*
X151491740Y-126150000D01*
X151204842Y-126207068D01*
X150934589Y-126319010D01*
X150691368Y-126481525D01*
X150484525Y-126688368D01*
X150368000Y-126862760D01*
X150251475Y-126688368D01*
X150044632Y-126481525D01*
X149801411Y-126319010D01*
X149531158Y-126207068D01*
X149244260Y-126150000D01*
X148951740Y-126150000D01*
X148664842Y-126207068D01*
X148394589Y-126319010D01*
X148151368Y-126481525D01*
X147944525Y-126688368D01*
X147828000Y-126862760D01*
X147711475Y-126688368D01*
X147504632Y-126481525D01*
X147261411Y-126319010D01*
X146991158Y-126207068D01*
X146704260Y-126150000D01*
X146411740Y-126150000D01*
X146124842Y-126207068D01*
X145854589Y-126319010D01*
X145611368Y-126481525D01*
X145404525Y-126688368D01*
X145288000Y-126862760D01*
X145171475Y-126688368D01*
X144964632Y-126481525D01*
X144721411Y-126319010D01*
X144451158Y-126207068D01*
X144164260Y-126150000D01*
X143871740Y-126150000D01*
X143584842Y-126207068D01*
X143314589Y-126319010D01*
X143071368Y-126481525D01*
X142864525Y-126688368D01*
X142748000Y-126862760D01*
X142631475Y-126688368D01*
X142424632Y-126481525D01*
X142181411Y-126319010D01*
X141911158Y-126207068D01*
X141624260Y-126150000D01*
X141331740Y-126150000D01*
X141044842Y-126207068D01*
X140968000Y-126238897D01*
X140968000Y-125310000D01*
X142504528Y-125310000D01*
X142516788Y-125434482D01*
X142553098Y-125554180D01*
X142612063Y-125664494D01*
X142691415Y-125761185D01*
X142788106Y-125840537D01*
X142898420Y-125899502D01*
X143018118Y-125935812D01*
X143142600Y-125948072D01*
X143706850Y-125945000D01*
X143865600Y-125786250D01*
X143865600Y-124587000D01*
X144119600Y-124587000D01*
X144119600Y-125786250D01*
X144278350Y-125945000D01*
X144842600Y-125948072D01*
X144967082Y-125935812D01*
X145086780Y-125899502D01*
X145197094Y-125840537D01*
X145293785Y-125761185D01*
X145373137Y-125664494D01*
X145432102Y-125554180D01*
X145456566Y-125473534D01*
X145532331Y-125557588D01*
X145765680Y-125731641D01*
X146028501Y-125856825D01*
X146175710Y-125901476D01*
X146405600Y-125780155D01*
X146405600Y-124587000D01*
X144119600Y-124587000D01*
X143865600Y-124587000D01*
X142666350Y-124587000D01*
X142507600Y-124745750D01*
X142504528Y-125310000D01*
X140968000Y-125310000D01*
X140968000Y-123610000D01*
X142504528Y-123610000D01*
X142507600Y-124174250D01*
X142666350Y-124333000D01*
X143865600Y-124333000D01*
X143865600Y-123133750D01*
X144119600Y-123133750D01*
X144119600Y-124333000D01*
X146405600Y-124333000D01*
X146405600Y-123139845D01*
X146175710Y-123018524D01*
X146028501Y-123063175D01*
X145765680Y-123188359D01*
X145532331Y-123362412D01*
X145456566Y-123446466D01*
X145432102Y-123365820D01*
X145373137Y-123255506D01*
X145293785Y-123158815D01*
X145197094Y-123079463D01*
X145086780Y-123020498D01*
X144967082Y-122984188D01*
X144842600Y-122971928D01*
X144278350Y-122975000D01*
X144119600Y-123133750D01*
X143865600Y-123133750D01*
X143706850Y-122975000D01*
X143142600Y-122971928D01*
X143018118Y-122984188D01*
X142898420Y-123020498D01*
X142788106Y-123079463D01*
X142691415Y-123158815D01*
X142612063Y-123255506D01*
X142553098Y-123365820D01*
X142516788Y-123485518D01*
X142504528Y-123610000D01*
X140968000Y-123610000D01*
X140968000Y-123020310D01*
X141011937Y-122976373D01*
X141125205Y-122806855D01*
X141203226Y-122618497D01*
X141243000Y-122418538D01*
X141243000Y-122214660D01*
X141203226Y-122014701D01*
X141125205Y-121826343D01*
X141011937Y-121656825D01*
X140867774Y-121512662D01*
X140698256Y-121399394D01*
X140509898Y-121321373D01*
X140309939Y-121281599D01*
X140106061Y-121281599D01*
X139906102Y-121321373D01*
X139717744Y-121399394D01*
X139548226Y-121512662D01*
X139404063Y-121656825D01*
X139290795Y-121826343D01*
X139212774Y-122014701D01*
X139173000Y-122214660D01*
X139173000Y-122418538D01*
X139212774Y-122618497D01*
X139290795Y-122806855D01*
X139404063Y-122976373D01*
X139448000Y-123020310D01*
X139448001Y-126238897D01*
X139371158Y-126207068D01*
X139084260Y-126150000D01*
X138791740Y-126150000D01*
X138504842Y-126207068D01*
X138234589Y-126319010D01*
X137991368Y-126481525D01*
X137784525Y-126688368D01*
X137668000Y-126862760D01*
X137551475Y-126688368D01*
X137344632Y-126481525D01*
X137101411Y-126319010D01*
X136873518Y-126224614D01*
X137923141Y-125174991D01*
X137966449Y-125139449D01*
X138108284Y-124966623D01*
X138213676Y-124769447D01*
X138266594Y-124595000D01*
X138278577Y-124555500D01*
X138286131Y-124478799D01*
X138295000Y-124388752D01*
X138295000Y-124388745D01*
X138300490Y-124333001D01*
X138295000Y-124277257D01*
X138295000Y-118483000D01*
X140152257Y-118483000D01*
X140207999Y-118488490D01*
X140263741Y-118483000D01*
X154630249Y-118483000D01*
X154686000Y-118488491D01*
X154741751Y-118483000D01*
X156363421Y-118483000D01*
X151852747Y-122993675D01*
X151758860Y-122975000D01*
X151466340Y-122975000D01*
X151179442Y-123032068D01*
X150909189Y-123144010D01*
X150665968Y-123306525D01*
X150459125Y-123513368D01*
X150342600Y-123687760D01*
X150226075Y-123513368D01*
X150019232Y-123306525D01*
X149776011Y-123144010D01*
X149505758Y-123032068D01*
X149218860Y-122975000D01*
X148926340Y-122975000D01*
X148639442Y-123032068D01*
X148369189Y-123144010D01*
X148125968Y-123306525D01*
X147919125Y-123513368D01*
X147797405Y-123695534D01*
X147727778Y-123578645D01*
X147532869Y-123362412D01*
X147299520Y-123188359D01*
X147036699Y-123063175D01*
X146889490Y-123018524D01*
X146659600Y-123139845D01*
X146659600Y-124333000D01*
X146679600Y-124333000D01*
X146679600Y-124587000D01*
X146659600Y-124587000D01*
X146659600Y-125780155D01*
X146889490Y-125901476D01*
X147036699Y-125856825D01*
X147299520Y-125731641D01*
X147532869Y-125557588D01*
X147727778Y-125341355D01*
X147797405Y-125224466D01*
X147919125Y-125406632D01*
X148125968Y-125613475D01*
X148369189Y-125775990D01*
X148639442Y-125887932D01*
X148926340Y-125945000D01*
X149218860Y-125945000D01*
X149505758Y-125887932D01*
X149776011Y-125775990D01*
X150019232Y-125613475D01*
X150226075Y-125406632D01*
X150342600Y-125232240D01*
X150459125Y-125406632D01*
X150665968Y-125613475D01*
X150909189Y-125775990D01*
X151179442Y-125887932D01*
X151466340Y-125945000D01*
X151758860Y-125945000D01*
X152045758Y-125887932D01*
X152316011Y-125775990D01*
X152559232Y-125613475D01*
X152766075Y-125406632D01*
X152882600Y-125232240D01*
X152999125Y-125406632D01*
X153205968Y-125613475D01*
X153449189Y-125775990D01*
X153719442Y-125887932D01*
X154006340Y-125945000D01*
X154298860Y-125945000D01*
X154585758Y-125887932D01*
X154856011Y-125775990D01*
X155099232Y-125613475D01*
X155306075Y-125406632D01*
X155422600Y-125232240D01*
X155539125Y-125406632D01*
X155745968Y-125613475D01*
X155989189Y-125775990D01*
X156259442Y-125887932D01*
X156546340Y-125945000D01*
X156838860Y-125945000D01*
X157125758Y-125887932D01*
X157396011Y-125775990D01*
X157639232Y-125613475D01*
X157770196Y-125482511D01*
X179990088Y-125482511D01*
X179990088Y-125926689D01*
X180076743Y-126362334D01*
X180246723Y-126772702D01*
X180493495Y-127142023D01*
X180807577Y-127456105D01*
X181176898Y-127702877D01*
X181587266Y-127872857D01*
X182022911Y-127959512D01*
X182467089Y-127959512D01*
X182902734Y-127872857D01*
X183313102Y-127702877D01*
X183682423Y-127456105D01*
X183996505Y-127142023D01*
X184243277Y-126772702D01*
X184413257Y-126362334D01*
X184499912Y-125926689D01*
X184499912Y-125482511D01*
X184413257Y-125046866D01*
X184243277Y-124636498D01*
X183996505Y-124267177D01*
X183682423Y-123953095D01*
X183313102Y-123706323D01*
X182902734Y-123536343D01*
X182467089Y-123449688D01*
X182022911Y-123449688D01*
X181587266Y-123536343D01*
X181176898Y-123706323D01*
X180807577Y-123953095D01*
X180493495Y-124267177D01*
X180246723Y-124636498D01*
X180076743Y-125046866D01*
X179990088Y-125482511D01*
X157770196Y-125482511D01*
X157846075Y-125406632D01*
X158008590Y-125163411D01*
X158120532Y-124893158D01*
X158177600Y-124606260D01*
X158177600Y-124313740D01*
X158120532Y-124026842D01*
X158008590Y-123756589D01*
X157846075Y-123513368D01*
X157639232Y-123306525D01*
X157396011Y-123144010D01*
X157125758Y-123032068D01*
X156880830Y-122983348D01*
X158583179Y-121281000D01*
X167596531Y-121281000D01*
X167640000Y-121285281D01*
X167683469Y-121281000D01*
X167683477Y-121281000D01*
X167813490Y-121268195D01*
X167980313Y-121217589D01*
X168134059Y-121135411D01*
X168268817Y-121024817D01*
X168296534Y-120991044D01*
X171943579Y-117344000D01*
X176097344Y-117344000D01*
X176138525Y-117405632D01*
X176345368Y-117612475D01*
X176588589Y-117774990D01*
X176858842Y-117886932D01*
X177145740Y-117944000D01*
X177438260Y-117944000D01*
X177725158Y-117886932D01*
X177995411Y-117774990D01*
X178238632Y-117612475D01*
X178445475Y-117405632D01*
X178607990Y-117162411D01*
X178719932Y-116892158D01*
X178777000Y-116605260D01*
X178777000Y-116312740D01*
X178719932Y-116025842D01*
X178607990Y-115755589D01*
X178445475Y-115512368D01*
X178238632Y-115305525D01*
X178064240Y-115189000D01*
X178238632Y-115072475D01*
X178445475Y-114865632D01*
X178607990Y-114622411D01*
X178719932Y-114352158D01*
X178777000Y-114065260D01*
X178777000Y-113772740D01*
X178719932Y-113485842D01*
X178607990Y-113215589D01*
X178445475Y-112972368D01*
X178313620Y-112840513D01*
X178386180Y-112818502D01*
X178496494Y-112759537D01*
X178593185Y-112680185D01*
X178672537Y-112583494D01*
X178731502Y-112473180D01*
X178767812Y-112353482D01*
X178780072Y-112229000D01*
X178777000Y-111664750D01*
X178618250Y-111506000D01*
X177419000Y-111506000D01*
X177419000Y-111526000D01*
X177165000Y-111526000D01*
X177165000Y-111506000D01*
X175965750Y-111506000D01*
X175807000Y-111664750D01*
X175803928Y-112229000D01*
X175816188Y-112353482D01*
X175852498Y-112473180D01*
X175911463Y-112583494D01*
X175990815Y-112680185D01*
X176087506Y-112759537D01*
X176197820Y-112818502D01*
X176270380Y-112840513D01*
X176138525Y-112972368D01*
X176097344Y-113034000D01*
X171366469Y-113034000D01*
X171323000Y-113029719D01*
X171279531Y-113034000D01*
X171279523Y-113034000D01*
X171149510Y-113046805D01*
X170982687Y-113097411D01*
X170871251Y-113156974D01*
X170828941Y-113179589D01*
X170727953Y-113262468D01*
X170727951Y-113262470D01*
X170694183Y-113290183D01*
X170666470Y-113323951D01*
X166003422Y-117987000D01*
X163272131Y-117987000D01*
X164339140Y-116919992D01*
X164382449Y-116884449D01*
X164524284Y-116711623D01*
X164532313Y-116696601D01*
X164550482Y-116694812D01*
X164670180Y-116658502D01*
X164780494Y-116599537D01*
X164877185Y-116520185D01*
X164956537Y-116423494D01*
X165015502Y-116313180D01*
X165051812Y-116193482D01*
X165064072Y-116069000D01*
X165064072Y-115169000D01*
X165051812Y-115044518D01*
X165015502Y-114924820D01*
X164956537Y-114814506D01*
X164877185Y-114717815D01*
X164780494Y-114638463D01*
X164670180Y-114579498D01*
X164550482Y-114543188D01*
X164426000Y-114530928D01*
X163899059Y-114530928D01*
X163798498Y-114500423D01*
X163576000Y-114478509D01*
X163353501Y-114500423D01*
X163252940Y-114530928D01*
X162726000Y-114530928D01*
X162601518Y-114543188D01*
X162481820Y-114579498D01*
X162371506Y-114638463D01*
X162274815Y-114717815D01*
X162195463Y-114814506D01*
X162136498Y-114924820D01*
X162100188Y-115044518D01*
X162087928Y-115169000D01*
X162087928Y-115960941D01*
X161835869Y-116213000D01*
X158204132Y-116213000D01*
X157345000Y-115353869D01*
X157345000Y-114725748D01*
X157328577Y-114559001D01*
X157323072Y-114540854D01*
X157323072Y-114481500D01*
X157306248Y-114310684D01*
X157256423Y-114146433D01*
X157176226Y-113996394D01*
X157215537Y-113948494D01*
X157274502Y-113838180D01*
X157310812Y-113718482D01*
X157323072Y-113594000D01*
X157320000Y-113342250D01*
X157161250Y-113183500D01*
X156337000Y-113183500D01*
X156337000Y-113203500D01*
X156083000Y-113203500D01*
X156083000Y-113183500D01*
X155258750Y-113183500D01*
X155100000Y-113342250D01*
X155096928Y-113594000D01*
X155109188Y-113718482D01*
X155145498Y-113838180D01*
X155204463Y-113948494D01*
X155243774Y-113996394D01*
X155163577Y-114146433D01*
X155113752Y-114310684D01*
X155096928Y-114481500D01*
X155096928Y-114540855D01*
X155091423Y-114559002D01*
X155075000Y-114725749D01*
X155075000Y-115353868D01*
X154215869Y-116213000D01*
X142010932Y-116213000D01*
X142017472Y-116146600D01*
X142014400Y-115957350D01*
X141855650Y-115798600D01*
X140968900Y-115798600D01*
X140968900Y-115818600D01*
X140714900Y-115818600D01*
X140714900Y-115798600D01*
X140694900Y-115798600D01*
X140694900Y-115544600D01*
X140714900Y-115544600D01*
X140714900Y-115524600D01*
X140968900Y-115524600D01*
X140968900Y-115544600D01*
X141855650Y-115544600D01*
X142014400Y-115385850D01*
X142017472Y-115196600D01*
X142005212Y-115072118D01*
X141968902Y-114952420D01*
X141934293Y-114887672D01*
X142639200Y-114887672D01*
X142763682Y-114875412D01*
X142824200Y-114857054D01*
X142884718Y-114875412D01*
X143009200Y-114887672D01*
X143909200Y-114887672D01*
X144033682Y-114875412D01*
X144094200Y-114857054D01*
X144154718Y-114875412D01*
X144279200Y-114887672D01*
X145179200Y-114887672D01*
X145303682Y-114875412D01*
X145364200Y-114857054D01*
X145424718Y-114875412D01*
X145549200Y-114887672D01*
X146449200Y-114887672D01*
X146573682Y-114875412D01*
X146634200Y-114857054D01*
X146694718Y-114875412D01*
X146819200Y-114887672D01*
X147719200Y-114887672D01*
X147843682Y-114875412D01*
X147904200Y-114857054D01*
X147964718Y-114875412D01*
X148089200Y-114887672D01*
X148989200Y-114887672D01*
X149113682Y-114875412D01*
X149174200Y-114857054D01*
X149234718Y-114875412D01*
X149359200Y-114887672D01*
X150259200Y-114887672D01*
X150383682Y-114875412D01*
X150444200Y-114857054D01*
X150504718Y-114875412D01*
X150629200Y-114887672D01*
X151529200Y-114887672D01*
X151653682Y-114875412D01*
X151773380Y-114839102D01*
X151883694Y-114780137D01*
X151980385Y-114700785D01*
X152059737Y-114604094D01*
X152118702Y-114493780D01*
X152155012Y-114374082D01*
X152167272Y-114249600D01*
X152167272Y-114035000D01*
X153387678Y-114035000D01*
X153425000Y-114038676D01*
X153462322Y-114035000D01*
X153462333Y-114035000D01*
X153573986Y-114024003D01*
X153717247Y-113980546D01*
X153849276Y-113909974D01*
X153965001Y-113815001D01*
X153988804Y-113785997D01*
X155098843Y-112675958D01*
X155100000Y-112770750D01*
X155258750Y-112929500D01*
X156083000Y-112929500D01*
X156083000Y-112042750D01*
X156337000Y-112042750D01*
X156337000Y-112929500D01*
X157161250Y-112929500D01*
X157320000Y-112770750D01*
X157321241Y-112669000D01*
X162087928Y-112669000D01*
X162100188Y-112793482D01*
X162136498Y-112913180D01*
X162195463Y-113023494D01*
X162274815Y-113120185D01*
X162371506Y-113199537D01*
X162481820Y-113258502D01*
X162601518Y-113294812D01*
X162726000Y-113307072D01*
X163290250Y-113304000D01*
X163449000Y-113145250D01*
X163449000Y-112346000D01*
X163703000Y-112346000D01*
X163703000Y-113145250D01*
X163861750Y-113304000D01*
X164426000Y-113307072D01*
X164550482Y-113294812D01*
X164670180Y-113258502D01*
X164780494Y-113199537D01*
X164877185Y-113120185D01*
X164956537Y-113023494D01*
X165015502Y-112913180D01*
X165051812Y-112793482D01*
X165064072Y-112669000D01*
X165061000Y-112504750D01*
X164902250Y-112346000D01*
X163703000Y-112346000D01*
X163449000Y-112346000D01*
X162249750Y-112346000D01*
X162091000Y-112504750D01*
X162087928Y-112669000D01*
X157321241Y-112669000D01*
X157323072Y-112519000D01*
X157310812Y-112394518D01*
X157274502Y-112274820D01*
X157215537Y-112164506D01*
X157136185Y-112067815D01*
X157039494Y-111988463D01*
X156929180Y-111929498D01*
X156809482Y-111893188D01*
X156685000Y-111880928D01*
X156495750Y-111884000D01*
X156337000Y-112042750D01*
X156083000Y-112042750D01*
X155924250Y-111884000D01*
X155891336Y-111883466D01*
X155959004Y-111815798D01*
X155988001Y-111792001D01*
X156006877Y-111769000D01*
X162087928Y-111769000D01*
X162091000Y-111933250D01*
X162249750Y-112092000D01*
X163449000Y-112092000D01*
X163449000Y-111292750D01*
X163703000Y-111292750D01*
X163703000Y-112092000D01*
X164902250Y-112092000D01*
X165061000Y-111933250D01*
X165064072Y-111769000D01*
X165051812Y-111644518D01*
X165015502Y-111524820D01*
X164956537Y-111414506D01*
X164877185Y-111317815D01*
X164780494Y-111238463D01*
X164670180Y-111179498D01*
X164550482Y-111143188D01*
X164426000Y-111130928D01*
X163861750Y-111134000D01*
X163703000Y-111292750D01*
X163449000Y-111292750D01*
X163290250Y-111134000D01*
X162726000Y-111130928D01*
X162601518Y-111143188D01*
X162481820Y-111179498D01*
X162371506Y-111238463D01*
X162274815Y-111317815D01*
X162195463Y-111414506D01*
X162136498Y-111524820D01*
X162100188Y-111644518D01*
X162087928Y-111769000D01*
X156006877Y-111769000D01*
X156015640Y-111758323D01*
X156082974Y-111676277D01*
X156153546Y-111544247D01*
X156165148Y-111506000D01*
X156197003Y-111400986D01*
X156208000Y-111289333D01*
X156208000Y-111289324D01*
X156211676Y-111252001D01*
X156208000Y-111214678D01*
X156208000Y-111063046D01*
X156302494Y-111012537D01*
X156399185Y-110933185D01*
X156478537Y-110836494D01*
X156537502Y-110726180D01*
X156573812Y-110606482D01*
X156581443Y-110529000D01*
X175803928Y-110529000D01*
X175807000Y-111093250D01*
X175965750Y-111252000D01*
X177165000Y-111252000D01*
X177165000Y-110052750D01*
X177419000Y-110052750D01*
X177419000Y-111252000D01*
X178618250Y-111252000D01*
X178777000Y-111093250D01*
X178780072Y-110529000D01*
X178767812Y-110404518D01*
X178731502Y-110284820D01*
X178672537Y-110174506D01*
X178593185Y-110077815D01*
X178496494Y-109998463D01*
X178386180Y-109939498D01*
X178266482Y-109903188D01*
X178142000Y-109890928D01*
X177577750Y-109894000D01*
X177419000Y-110052750D01*
X177165000Y-110052750D01*
X177006250Y-109894000D01*
X176442000Y-109890928D01*
X176317518Y-109903188D01*
X176197820Y-109939498D01*
X176087506Y-109998463D01*
X175990815Y-110077815D01*
X175911463Y-110174506D01*
X175852498Y-110284820D01*
X175816188Y-110404518D01*
X175803928Y-110529000D01*
X156581443Y-110529000D01*
X156586072Y-110482000D01*
X156586072Y-109482000D01*
X156573812Y-109357518D01*
X156537502Y-109237820D01*
X156478537Y-109127506D01*
X156399185Y-109030815D01*
X156320207Y-108966000D01*
X156399185Y-108901185D01*
X156478537Y-108804494D01*
X156537502Y-108694180D01*
X156573812Y-108574482D01*
X156586072Y-108450000D01*
X156586072Y-107450000D01*
X156573812Y-107325518D01*
X156537502Y-107205820D01*
X156478537Y-107095506D01*
X156399185Y-106998815D01*
X156320207Y-106934000D01*
X156399185Y-106869185D01*
X156478537Y-106772494D01*
X156537502Y-106662180D01*
X156573812Y-106542482D01*
X156586072Y-106418000D01*
X156586072Y-105418000D01*
X156573812Y-105293518D01*
X156537502Y-105173820D01*
X156478537Y-105063506D01*
X156399185Y-104966815D01*
X156320207Y-104902000D01*
X156399185Y-104837185D01*
X156478537Y-104740494D01*
X156537502Y-104630180D01*
X156573812Y-104510482D01*
X156586072Y-104386000D01*
X156586072Y-103386000D01*
X156573812Y-103261518D01*
X156537502Y-103141820D01*
X156478537Y-103031506D01*
X156399185Y-102934815D01*
X156320207Y-102870000D01*
X156399185Y-102805185D01*
X156478537Y-102708494D01*
X156537502Y-102598180D01*
X156573812Y-102478482D01*
X156586072Y-102354000D01*
X156583000Y-102139750D01*
X156424250Y-101981000D01*
X155575000Y-101981000D01*
X155575000Y-102001000D01*
X155321000Y-102001000D01*
X155321000Y-101981000D01*
X155301000Y-101981000D01*
X155301000Y-101727000D01*
X155321000Y-101727000D01*
X155321000Y-100877750D01*
X155575000Y-100877750D01*
X155575000Y-101727000D01*
X156424250Y-101727000D01*
X156583000Y-101568250D01*
X156586072Y-101354000D01*
X156573812Y-101229518D01*
X156537502Y-101109820D01*
X156478537Y-100999506D01*
X156399185Y-100902815D01*
X156302494Y-100823463D01*
X156192180Y-100764498D01*
X156072482Y-100728188D01*
X155948000Y-100715928D01*
X155733750Y-100719000D01*
X155575000Y-100877750D01*
X155321000Y-100877750D01*
X155162250Y-100719000D01*
X154948000Y-100715928D01*
X154823518Y-100728188D01*
X154703820Y-100764498D01*
X154593506Y-100823463D01*
X154496815Y-100902815D01*
X154467392Y-100938668D01*
X153717272Y-100188549D01*
X153717272Y-100136737D01*
X153828300Y-100147672D01*
X154403300Y-100147672D01*
X154574116Y-100130848D01*
X154738367Y-100081023D01*
X154889742Y-100000112D01*
X154913639Y-99980501D01*
X154986306Y-100040137D01*
X155096620Y-100099102D01*
X155216318Y-100135412D01*
X155340800Y-100147672D01*
X155580050Y-100144600D01*
X155738800Y-99985850D01*
X155738800Y-99161600D01*
X155992800Y-99161600D01*
X155992800Y-99985850D01*
X156151550Y-100144600D01*
X156390800Y-100147672D01*
X156515282Y-100135412D01*
X156634980Y-100099102D01*
X156745294Y-100040137D01*
X156841985Y-99960785D01*
X156921337Y-99864094D01*
X156980302Y-99753780D01*
X157016612Y-99634082D01*
X157028872Y-99509600D01*
X157025800Y-99320350D01*
X156867050Y-99161600D01*
X155992800Y-99161600D01*
X155738800Y-99161600D01*
X155718800Y-99161600D01*
X155718800Y-98907600D01*
X155738800Y-98907600D01*
X155738800Y-98083350D01*
X155992800Y-98083350D01*
X155992800Y-98907600D01*
X156867050Y-98907600D01*
X157025800Y-98748850D01*
X157028872Y-98559600D01*
X157016612Y-98435118D01*
X156980302Y-98315420D01*
X156921337Y-98205106D01*
X156841985Y-98108415D01*
X156745294Y-98029063D01*
X156634980Y-97970098D01*
X156515282Y-97933788D01*
X156390800Y-97921528D01*
X156151550Y-97924600D01*
X155992800Y-98083350D01*
X155738800Y-98083350D01*
X155580050Y-97924600D01*
X155340800Y-97921528D01*
X155216318Y-97933788D01*
X155096620Y-97970098D01*
X154986306Y-98029063D01*
X154913639Y-98088699D01*
X154889742Y-98069088D01*
X154738367Y-97988177D01*
X154574116Y-97938352D01*
X154403300Y-97921528D01*
X153828300Y-97921528D01*
X153657484Y-97938352D01*
X153493233Y-97988177D01*
X153401831Y-98037032D01*
X153323380Y-97995098D01*
X153203682Y-97958788D01*
X153079200Y-97946528D01*
X152143907Y-97946528D01*
X152183676Y-97872125D01*
X152248577Y-97658177D01*
X152265000Y-97491430D01*
X152265000Y-97491423D01*
X152270490Y-97435679D01*
X152267961Y-97410000D01*
X155388034Y-97410000D01*
X155510433Y-97475423D01*
X155674684Y-97525248D01*
X155845500Y-97542072D01*
X156320500Y-97542072D01*
X156382804Y-97535936D01*
X156814008Y-97967140D01*
X156849551Y-98010449D01*
X156937037Y-98082247D01*
X157022377Y-98152284D01*
X157219553Y-98257676D01*
X157433501Y-98322577D01*
X157656000Y-98344491D01*
X157711752Y-98339000D01*
X163885752Y-98339000D01*
X164052499Y-98322577D01*
X164153060Y-98292072D01*
X164680000Y-98292072D01*
X164804482Y-98279812D01*
X164924180Y-98243502D01*
X165034494Y-98184537D01*
X165131185Y-98105185D01*
X165210537Y-98008494D01*
X165269502Y-97898180D01*
X165305812Y-97778482D01*
X165318072Y-97654000D01*
X165318072Y-96754000D01*
X165305812Y-96629518D01*
X165269502Y-96509820D01*
X165210537Y-96399506D01*
X165131185Y-96302815D01*
X165034494Y-96223463D01*
X164924180Y-96164498D01*
X164804482Y-96128188D01*
X164680000Y-96115928D01*
X164153060Y-96115928D01*
X164052499Y-96085423D01*
X163885752Y-96069000D01*
X158126132Y-96069000D01*
X157660495Y-95603364D01*
X157624949Y-95560051D01*
X157452123Y-95418216D01*
X157254947Y-95312824D01*
X157184982Y-95291600D01*
X157196072Y-95179000D01*
X157193000Y-94927250D01*
X157034250Y-94768500D01*
X156210000Y-94768500D01*
X156210000Y-94788500D01*
X155956000Y-94788500D01*
X155956000Y-94768500D01*
X155131750Y-94768500D01*
X154973000Y-94927250D01*
X154970404Y-95140000D01*
X152156478Y-95140000D01*
X152155012Y-95125118D01*
X152118702Y-95005420D01*
X152059737Y-94895106D01*
X151980385Y-94798415D01*
X151883694Y-94719063D01*
X151773380Y-94660098D01*
X151653682Y-94623788D01*
X151529200Y-94611528D01*
X150629200Y-94611528D01*
X150504718Y-94623788D01*
X150444200Y-94642146D01*
X150383682Y-94623788D01*
X150259200Y-94611528D01*
X149359200Y-94611528D01*
X149234718Y-94623788D01*
X149174200Y-94642146D01*
X149113682Y-94623788D01*
X148989200Y-94611528D01*
X148089200Y-94611528D01*
X147964718Y-94623788D01*
X147904200Y-94642146D01*
X147843682Y-94623788D01*
X147719200Y-94611528D01*
X146819200Y-94611528D01*
X146694718Y-94623788D01*
X146634200Y-94642146D01*
X146573682Y-94623788D01*
X146449200Y-94611528D01*
X145549200Y-94611528D01*
X145424718Y-94623788D01*
X145364200Y-94642146D01*
X145303682Y-94623788D01*
X145179200Y-94611528D01*
X144279200Y-94611528D01*
X144154718Y-94623788D01*
X144094200Y-94642146D01*
X144033682Y-94623788D01*
X143909200Y-94611528D01*
X143009200Y-94611528D01*
X142884718Y-94623788D01*
X142824200Y-94642146D01*
X142763682Y-94623788D01*
X142639200Y-94611528D01*
X141739200Y-94611528D01*
X141614718Y-94623788D01*
X141554200Y-94642146D01*
X141493682Y-94623788D01*
X141369200Y-94611528D01*
X140887288Y-94611528D01*
X140897848Y-94576716D01*
X140914672Y-94405900D01*
X140914672Y-94104000D01*
X154969928Y-94104000D01*
X154973000Y-94355750D01*
X155131750Y-94514500D01*
X155956000Y-94514500D01*
X155956000Y-93627750D01*
X156210000Y-93627750D01*
X156210000Y-94514500D01*
X157034250Y-94514500D01*
X157193000Y-94355750D01*
X157194241Y-94254000D01*
X162341928Y-94254000D01*
X162354188Y-94378482D01*
X162390498Y-94498180D01*
X162449463Y-94608494D01*
X162528815Y-94705185D01*
X162625506Y-94784537D01*
X162735820Y-94843502D01*
X162855518Y-94879812D01*
X162980000Y-94892072D01*
X163544250Y-94889000D01*
X163703000Y-94730250D01*
X163703000Y-93931000D01*
X163957000Y-93931000D01*
X163957000Y-94730250D01*
X164115750Y-94889000D01*
X164680000Y-94892072D01*
X164804482Y-94879812D01*
X164924180Y-94843502D01*
X165034494Y-94784537D01*
X165131185Y-94705185D01*
X165210537Y-94608494D01*
X165269502Y-94498180D01*
X165305812Y-94378482D01*
X165318072Y-94254000D01*
X165315000Y-94089750D01*
X165156250Y-93931000D01*
X163957000Y-93931000D01*
X163703000Y-93931000D01*
X162503750Y-93931000D01*
X162345000Y-94089750D01*
X162341928Y-94254000D01*
X157194241Y-94254000D01*
X157196072Y-94104000D01*
X157183812Y-93979518D01*
X157147502Y-93859820D01*
X157088537Y-93749506D01*
X157009185Y-93652815D01*
X156912494Y-93573463D01*
X156802180Y-93514498D01*
X156682482Y-93478188D01*
X156558000Y-93465928D01*
X156368750Y-93469000D01*
X156210000Y-93627750D01*
X155956000Y-93627750D01*
X155797250Y-93469000D01*
X155608000Y-93465928D01*
X155483518Y-93478188D01*
X155363820Y-93514498D01*
X155253506Y-93573463D01*
X155156815Y-93652815D01*
X155077463Y-93749506D01*
X155018498Y-93859820D01*
X154982188Y-93979518D01*
X154969928Y-94104000D01*
X140914672Y-94104000D01*
X140914672Y-93905900D01*
X140897848Y-93735084D01*
X140848023Y-93570833D01*
X140767112Y-93419458D01*
X140713392Y-93354000D01*
X162341928Y-93354000D01*
X162345000Y-93518250D01*
X162503750Y-93677000D01*
X163703000Y-93677000D01*
X163703000Y-92877750D01*
X163957000Y-92877750D01*
X163957000Y-93677000D01*
X165156250Y-93677000D01*
X165315000Y-93518250D01*
X165318072Y-93354000D01*
X165305812Y-93229518D01*
X165269502Y-93109820D01*
X165210537Y-92999506D01*
X165131185Y-92902815D01*
X165034494Y-92823463D01*
X164924180Y-92764498D01*
X164804482Y-92728188D01*
X164680000Y-92715928D01*
X164115750Y-92719000D01*
X163957000Y-92877750D01*
X163703000Y-92877750D01*
X163544250Y-92719000D01*
X162980000Y-92715928D01*
X162855518Y-92728188D01*
X162735820Y-92764498D01*
X162625506Y-92823463D01*
X162528815Y-92902815D01*
X162449463Y-92999506D01*
X162390498Y-93109820D01*
X162354188Y-93229518D01*
X162341928Y-93354000D01*
X140713392Y-93354000D01*
X140658223Y-93286777D01*
X140605368Y-93243400D01*
X140658223Y-93200023D01*
X140767112Y-93067342D01*
X140848023Y-92915967D01*
X140897848Y-92751716D01*
X140914672Y-92580900D01*
X140914672Y-92080900D01*
X140897848Y-91910084D01*
X140869611Y-91817000D01*
X167101546Y-91817000D01*
X167149744Y-91849205D01*
X167338102Y-91927226D01*
X167538061Y-91967000D01*
X167741939Y-91967000D01*
X167941898Y-91927226D01*
X168130256Y-91849205D01*
X168299774Y-91735937D01*
X168443937Y-91591774D01*
X168557205Y-91422256D01*
X168635226Y-91233898D01*
X168649676Y-91161254D01*
X175838862Y-98350441D01*
X175864068Y-98477158D01*
X175976010Y-98747411D01*
X176138525Y-98990632D01*
X176345368Y-99197475D01*
X176588589Y-99359990D01*
X176858842Y-99471932D01*
X177145740Y-99529000D01*
X177438260Y-99529000D01*
X177725158Y-99471932D01*
X177995411Y-99359990D01*
X178238632Y-99197475D01*
X178445475Y-98990632D01*
X178607990Y-98747411D01*
X178719932Y-98477158D01*
X178777000Y-98190260D01*
X178777000Y-97897740D01*
X178719932Y-97610842D01*
X178607990Y-97340589D01*
X178445475Y-97097368D01*
X178238632Y-96890525D01*
X178064240Y-96774000D01*
X178238632Y-96657475D01*
X178445475Y-96450632D01*
X178607990Y-96207411D01*
X178719932Y-95937158D01*
X178777000Y-95650260D01*
X178777000Y-95357740D01*
X178719932Y-95070842D01*
X178607990Y-94800589D01*
X178445475Y-94557368D01*
X178313620Y-94425513D01*
X178386180Y-94403502D01*
X178496494Y-94344537D01*
X178593185Y-94265185D01*
X178672537Y-94168494D01*
X178731502Y-94058180D01*
X178767812Y-93938482D01*
X178780072Y-93814000D01*
X178777000Y-93249750D01*
X178618250Y-93091000D01*
X177419000Y-93091000D01*
X177419000Y-93111000D01*
X177165000Y-93111000D01*
X177165000Y-93091000D01*
X175965750Y-93091000D01*
X175807000Y-93249750D01*
X175803928Y-93814000D01*
X175816188Y-93938482D01*
X175852498Y-94058180D01*
X175911463Y-94168494D01*
X175990815Y-94265185D01*
X176087506Y-94344537D01*
X176197820Y-94403502D01*
X176270380Y-94425513D01*
X176138525Y-94557368D01*
X175976010Y-94800589D01*
X175864068Y-95070842D01*
X175807000Y-95357740D01*
X175807000Y-95650260D01*
X175848010Y-95856432D01*
X172105578Y-92114000D01*
X175803928Y-92114000D01*
X175807000Y-92678250D01*
X175965750Y-92837000D01*
X177165000Y-92837000D01*
X177165000Y-91637750D01*
X177419000Y-91637750D01*
X177419000Y-92837000D01*
X178618250Y-92837000D01*
X178777000Y-92678250D01*
X178780072Y-92114000D01*
X178767812Y-91989518D01*
X178731502Y-91869820D01*
X178672537Y-91759506D01*
X178593185Y-91662815D01*
X178496494Y-91583463D01*
X178386180Y-91524498D01*
X178266482Y-91488188D01*
X178142000Y-91475928D01*
X177577750Y-91479000D01*
X177419000Y-91637750D01*
X177165000Y-91637750D01*
X177006250Y-91479000D01*
X176442000Y-91475928D01*
X176317518Y-91488188D01*
X176197820Y-91524498D01*
X176087506Y-91583463D01*
X175990815Y-91662815D01*
X175911463Y-91759506D01*
X175852498Y-91869820D01*
X175816188Y-91989518D01*
X175803928Y-92114000D01*
X172105578Y-92114000D01*
X168296534Y-88304956D01*
X168268817Y-88271183D01*
X168134059Y-88160589D01*
X167980313Y-88078411D01*
X167813490Y-88027805D01*
X167683477Y-88015000D01*
X167683469Y-88015000D01*
X167640000Y-88010719D01*
X167596531Y-88015000D01*
X139616465Y-88015000D01*
X139572999Y-88010719D01*
X139529533Y-88015000D01*
X139529523Y-88015000D01*
X139399510Y-88027805D01*
X139232687Y-88078411D01*
X139078941Y-88160589D01*
X139078939Y-88160590D01*
X139078940Y-88160590D01*
X138977953Y-88243468D01*
X138977951Y-88243470D01*
X138944183Y-88271183D01*
X138916470Y-88304951D01*
X137707951Y-89513471D01*
X137674184Y-89541183D01*
X137646471Y-89574951D01*
X137646468Y-89574954D01*
X137563590Y-89675941D01*
X137481412Y-89829687D01*
X137430805Y-89996510D01*
X137413719Y-90170000D01*
X137418001Y-90213479D01*
X137418000Y-91496354D01*
X137337488Y-91594458D01*
X137256577Y-91745833D01*
X137206752Y-91910084D01*
X137189928Y-92080900D01*
X137189928Y-92580900D01*
X137206752Y-92751716D01*
X137256577Y-92915967D01*
X137337488Y-93067342D01*
X137446377Y-93200023D01*
X137499232Y-93243400D01*
X137446377Y-93286777D01*
X137337488Y-93419458D01*
X137256577Y-93570833D01*
X137206752Y-93735084D01*
X137189928Y-93905900D01*
X137189928Y-94405900D01*
X137206752Y-94576716D01*
X137217312Y-94611528D01*
X136659200Y-94611528D01*
X136534718Y-94623788D01*
X136474200Y-94642146D01*
X136413682Y-94623788D01*
X136289200Y-94611528D01*
X135389200Y-94611528D01*
X135264718Y-94623788D01*
X135204200Y-94642146D01*
X135143682Y-94623788D01*
X135019200Y-94611528D01*
X134854950Y-94614600D01*
X134696200Y-94773350D01*
X134696200Y-96122600D01*
X134716200Y-96122600D01*
X134716200Y-96376600D01*
X134696200Y-96376600D01*
X134696200Y-97725850D01*
X134854950Y-97884600D01*
X134855000Y-97884601D01*
X134855000Y-97891939D01*
X134894774Y-98091898D01*
X134972795Y-98280256D01*
X135086063Y-98449774D01*
X135230226Y-98593937D01*
X135399744Y-98707205D01*
X135588102Y-98785226D01*
X135788061Y-98825000D01*
X135991939Y-98825000D01*
X136191898Y-98785226D01*
X136380256Y-98707205D01*
X136525000Y-98610490D01*
X136669744Y-98707205D01*
X136858102Y-98785226D01*
X137058061Y-98825000D01*
X137261939Y-98825000D01*
X137461898Y-98785226D01*
X137650256Y-98707205D01*
X137819774Y-98593937D01*
X137963937Y-98449774D01*
X138077205Y-98280256D01*
X138155226Y-98091898D01*
X138195000Y-97891939D01*
X138195000Y-97887672D01*
X138829200Y-97887672D01*
X138953682Y-97875412D01*
X139014200Y-97857054D01*
X139074718Y-97875412D01*
X139199200Y-97887672D01*
X139935000Y-97887672D01*
X139935000Y-97891939D01*
X139974774Y-98091898D01*
X140052795Y-98280256D01*
X140166063Y-98449774D01*
X140310226Y-98593937D01*
X140479744Y-98707205D01*
X140668102Y-98785226D01*
X140868061Y-98825000D01*
X141071939Y-98825000D01*
X141271898Y-98785226D01*
X141460256Y-98707205D01*
X141629774Y-98593937D01*
X141773937Y-98449774D01*
X141887205Y-98280256D01*
X141965226Y-98091898D01*
X142005000Y-97891939D01*
X142005000Y-97887672D01*
X142475000Y-97887672D01*
X142475000Y-97891939D01*
X142514774Y-98091898D01*
X142592795Y-98280256D01*
X142706063Y-98449774D01*
X142850226Y-98593937D01*
X143019744Y-98707205D01*
X143208102Y-98785226D01*
X143408061Y-98825000D01*
X143611939Y-98825000D01*
X143811898Y-98785226D01*
X144000256Y-98707205D01*
X144145000Y-98610490D01*
X144289744Y-98707205D01*
X144478102Y-98785226D01*
X144486335Y-98786864D01*
X143724199Y-99549000D01*
X143662061Y-99549000D01*
X143462102Y-99588774D01*
X143273744Y-99666795D01*
X143104226Y-99780063D01*
X142960063Y-99924226D01*
X142846795Y-100093744D01*
X142768774Y-100282102D01*
X142729000Y-100482061D01*
X142729000Y-100685939D01*
X142768774Y-100885898D01*
X142846795Y-101074256D01*
X142960063Y-101243774D01*
X143104226Y-101387937D01*
X143273744Y-101501205D01*
X143462102Y-101579226D01*
X143662061Y-101619000D01*
X143865939Y-101619000D01*
X144065898Y-101579226D01*
X144254256Y-101501205D01*
X144423774Y-101387937D01*
X144567937Y-101243774D01*
X144681205Y-101074256D01*
X144759226Y-100885898D01*
X144799000Y-100685939D01*
X144799000Y-100623801D01*
X146561003Y-98861799D01*
X146590001Y-98838001D01*
X146684974Y-98722276D01*
X146755546Y-98590247D01*
X146799003Y-98446986D01*
X146810000Y-98335333D01*
X146810000Y-98335324D01*
X146813676Y-98298001D01*
X146810000Y-98260678D01*
X146810000Y-97886766D01*
X146819200Y-97887672D01*
X147719200Y-97887672D01*
X147843682Y-97875412D01*
X147904200Y-97857054D01*
X147964718Y-97875412D01*
X148089200Y-97887672D01*
X148989200Y-97887672D01*
X149082016Y-97878531D01*
X148080865Y-98879682D01*
X148037551Y-98915229D01*
X147895716Y-99088055D01*
X147837231Y-99197475D01*
X147790324Y-99285232D01*
X147725423Y-99499180D01*
X147703509Y-99721678D01*
X147709000Y-99777430D01*
X147709001Y-106971867D01*
X145071869Y-109609000D01*
X137122429Y-109609000D01*
X137066678Y-109603509D01*
X137010926Y-109609000D01*
X136844179Y-109625423D01*
X136630231Y-109690324D01*
X136433055Y-109795716D01*
X136260229Y-109937551D01*
X136224689Y-109980857D01*
X135126865Y-111078682D01*
X135083551Y-111114229D01*
X134941716Y-111287055D01*
X134836325Y-111484231D01*
X134836324Y-111484232D01*
X134771446Y-111698104D01*
X134696200Y-111773350D01*
X134696200Y-113122600D01*
X134716200Y-113122600D01*
X134716200Y-113376600D01*
X134696200Y-113376600D01*
X134696200Y-114725850D01*
X134755001Y-114784651D01*
X134755001Y-114952194D01*
X134680577Y-115091432D01*
X134670728Y-115123899D01*
X134615325Y-115227552D01*
X134550424Y-115441500D01*
X134528510Y-115663999D01*
X134550424Y-115886498D01*
X134604500Y-116064761D01*
X134604501Y-123378367D01*
X133387869Y-124595000D01*
X126832151Y-124595000D01*
X126787023Y-124446233D01*
X126706112Y-124294858D01*
X126597223Y-124162177D01*
X126464542Y-124053288D01*
X126313167Y-123972377D01*
X126148916Y-123922552D01*
X125978100Y-123905728D01*
X125478100Y-123905728D01*
X125307284Y-123922552D01*
X125143033Y-123972377D01*
X124991658Y-124053288D01*
X124858977Y-124162177D01*
X124815600Y-124215032D01*
X124772223Y-124162177D01*
X124639542Y-124053288D01*
X124488167Y-123972377D01*
X124323916Y-123922552D01*
X124153100Y-123905728D01*
X123653100Y-123905728D01*
X123482284Y-123922552D01*
X123318033Y-123972377D01*
X123166658Y-124053288D01*
X123151900Y-124065400D01*
X123137142Y-124053288D01*
X122985767Y-123972377D01*
X122821516Y-123922552D01*
X122650700Y-123905728D01*
X122075700Y-123905728D01*
X121904884Y-123922552D01*
X121740633Y-123972377D01*
X121589258Y-124053288D01*
X121565361Y-124072899D01*
X121492694Y-124013263D01*
X121382380Y-123954298D01*
X121262682Y-123917988D01*
X121138200Y-123905728D01*
X120898950Y-123908800D01*
X120740200Y-124067550D01*
X120740200Y-124891800D01*
X120760200Y-124891800D01*
X120760200Y-125145800D01*
X120740200Y-125145800D01*
X120740200Y-125970050D01*
X120898950Y-126128800D01*
X121138200Y-126131872D01*
X121262682Y-126119612D01*
X121382380Y-126083302D01*
X121492694Y-126024337D01*
X121565361Y-125964701D01*
X121589258Y-125984312D01*
X121740633Y-126065223D01*
X121904884Y-126115048D01*
X122075700Y-126131872D01*
X122650700Y-126131872D01*
X122821516Y-126115048D01*
X122985767Y-126065223D01*
X123137142Y-125984312D01*
X123151900Y-125972200D01*
X123166658Y-125984312D01*
X123318033Y-126065223D01*
X123482284Y-126115048D01*
X123653100Y-126131872D01*
X123722997Y-126131872D01*
X123704869Y-126150000D01*
X123551740Y-126150000D01*
X123264842Y-126207068D01*
X122994589Y-126319010D01*
X122751368Y-126481525D01*
X122544525Y-126688368D01*
X122422805Y-126870534D01*
X122353178Y-126753645D01*
X122158269Y-126537412D01*
X121924920Y-126363359D01*
X121662099Y-126238175D01*
X121514890Y-126193524D01*
X121285000Y-126314845D01*
X121285000Y-127508000D01*
X121305000Y-127508000D01*
X121305000Y-127762000D01*
X121285000Y-127762000D01*
X121285000Y-130048000D01*
X121305000Y-130048000D01*
X121305000Y-130302000D01*
X121285000Y-130302000D01*
X121285000Y-130322000D01*
X121031000Y-130322000D01*
X121031000Y-130302000D01*
X119831750Y-130302000D01*
X119673000Y-130460750D01*
X119669928Y-131025000D01*
X119682188Y-131149482D01*
X119718498Y-131269180D01*
X119777463Y-131379494D01*
X119810705Y-131420000D01*
X107975926Y-131420000D01*
X107060207Y-131347931D01*
X106192322Y-131139570D01*
X105367720Y-130798009D01*
X104606701Y-130331655D01*
X103928006Y-129751994D01*
X103348345Y-129073299D01*
X103109115Y-128682911D01*
X113950088Y-128682911D01*
X113950088Y-129127089D01*
X114036743Y-129562734D01*
X114206723Y-129973102D01*
X114453495Y-130342423D01*
X114767577Y-130656505D01*
X115136898Y-130903277D01*
X115547266Y-131073257D01*
X115982911Y-131159912D01*
X116427089Y-131159912D01*
X116862734Y-131073257D01*
X117273102Y-130903277D01*
X117642423Y-130656505D01*
X117956505Y-130342423D01*
X118203277Y-129973102D01*
X118373257Y-129562734D01*
X118420545Y-129325000D01*
X119669928Y-129325000D01*
X119673000Y-129889250D01*
X119831750Y-130048000D01*
X121031000Y-130048000D01*
X121031000Y-127762000D01*
X119837186Y-127762000D01*
X119716519Y-127991891D01*
X119813843Y-128266252D01*
X119962822Y-128516355D01*
X120139626Y-128712502D01*
X120063820Y-128735498D01*
X119953506Y-128794463D01*
X119856815Y-128873815D01*
X119777463Y-128970506D01*
X119718498Y-129080820D01*
X119682188Y-129200518D01*
X119669928Y-129325000D01*
X118420545Y-129325000D01*
X118459912Y-129127089D01*
X118459912Y-128682911D01*
X118373257Y-128247266D01*
X118203277Y-127836898D01*
X117956505Y-127467577D01*
X117767037Y-127278109D01*
X119716519Y-127278109D01*
X119837186Y-127508000D01*
X121031000Y-127508000D01*
X121031000Y-126314845D01*
X120801110Y-126193524D01*
X120653901Y-126238175D01*
X120391080Y-126363359D01*
X120157731Y-126537412D01*
X119962822Y-126753645D01*
X119813843Y-127003748D01*
X119716519Y-127278109D01*
X117767037Y-127278109D01*
X117642423Y-127153495D01*
X117273102Y-126906723D01*
X116862734Y-126736743D01*
X116427089Y-126650088D01*
X115982911Y-126650088D01*
X115547266Y-126736743D01*
X115136898Y-126906723D01*
X114767577Y-127153495D01*
X114453495Y-127467577D01*
X114206723Y-127836898D01*
X114036743Y-128247266D01*
X113950088Y-128682911D01*
X103109115Y-128682911D01*
X102881989Y-128312275D01*
X102540430Y-127487678D01*
X102332068Y-126619791D01*
X102260000Y-125704074D01*
X102260000Y-125493800D01*
X119450128Y-125493800D01*
X119462388Y-125618282D01*
X119498698Y-125737980D01*
X119557663Y-125848294D01*
X119637015Y-125944985D01*
X119733706Y-126024337D01*
X119844020Y-126083302D01*
X119963718Y-126119612D01*
X120088200Y-126131872D01*
X120327450Y-126128800D01*
X120486200Y-125970050D01*
X120486200Y-125145800D01*
X119611950Y-125145800D01*
X119453200Y-125304550D01*
X119450128Y-125493800D01*
X102260000Y-125493800D01*
X102260000Y-124543800D01*
X119450128Y-124543800D01*
X119453200Y-124733050D01*
X119611950Y-124891800D01*
X120486200Y-124891800D01*
X120486200Y-124067550D01*
X120327450Y-123908800D01*
X120088200Y-123905728D01*
X119963718Y-123917988D01*
X119844020Y-123954298D01*
X119733706Y-124013263D01*
X119637015Y-124092615D01*
X119557663Y-124189306D01*
X119498698Y-124299620D01*
X119462388Y-124419318D01*
X119450128Y-124543800D01*
X102260000Y-124543800D01*
X102260000Y-114249600D01*
X133481128Y-114249600D01*
X133493388Y-114374082D01*
X133529698Y-114493780D01*
X133588663Y-114604094D01*
X133668015Y-114700785D01*
X133764706Y-114780137D01*
X133875020Y-114839102D01*
X133994718Y-114875412D01*
X134119200Y-114887672D01*
X134283450Y-114884600D01*
X134442200Y-114725850D01*
X134442200Y-113376600D01*
X133642950Y-113376600D01*
X133484200Y-113535350D01*
X133481128Y-114249600D01*
X102260000Y-114249600D01*
X102260000Y-112249600D01*
X133481128Y-112249600D01*
X133484200Y-112963850D01*
X133642950Y-113122600D01*
X134442200Y-113122600D01*
X134442200Y-111773350D01*
X134283450Y-111614600D01*
X134119200Y-111611528D01*
X133994718Y-111623788D01*
X133875020Y-111660098D01*
X133764706Y-111719063D01*
X133668015Y-111798415D01*
X133588663Y-111895106D01*
X133529698Y-112005420D01*
X133493388Y-112125118D01*
X133481128Y-112249600D01*
X102260000Y-112249600D01*
X102260000Y-111785000D01*
X121252581Y-111785000D01*
X121285000Y-111788193D01*
X121317419Y-111785000D01*
X121414383Y-111775450D01*
X121538793Y-111737710D01*
X121653450Y-111676425D01*
X121753948Y-111593948D01*
X121836425Y-111493450D01*
X121897710Y-111378793D01*
X121935450Y-111254383D01*
X121948193Y-111125000D01*
X121945000Y-111092581D01*
X121945000Y-108249600D01*
X138931128Y-108249600D01*
X138943388Y-108374082D01*
X138979698Y-108493780D01*
X139038663Y-108604094D01*
X139118015Y-108700785D01*
X139214706Y-108780137D01*
X139325020Y-108839102D01*
X139444718Y-108875412D01*
X139569200Y-108887672D01*
X141783450Y-108884600D01*
X141942200Y-108725850D01*
X141942200Y-105876600D01*
X142196200Y-105876600D01*
X142196200Y-108725850D01*
X142354950Y-108884600D01*
X144569200Y-108887672D01*
X144693682Y-108875412D01*
X144813380Y-108839102D01*
X144923694Y-108780137D01*
X145020385Y-108700785D01*
X145099737Y-108604094D01*
X145158702Y-108493780D01*
X145195012Y-108374082D01*
X145207272Y-108249600D01*
X145204200Y-106035350D01*
X145045450Y-105876600D01*
X142196200Y-105876600D01*
X141942200Y-105876600D01*
X139092950Y-105876600D01*
X138934200Y-106035350D01*
X138931128Y-108249600D01*
X121945000Y-108249600D01*
X121945000Y-103249600D01*
X138931128Y-103249600D01*
X138934200Y-105463850D01*
X139092950Y-105622600D01*
X141942200Y-105622600D01*
X141942200Y-102773350D01*
X142196200Y-102773350D01*
X142196200Y-105622600D01*
X145045450Y-105622600D01*
X145204200Y-105463850D01*
X145207272Y-103249600D01*
X145195012Y-103125118D01*
X145158702Y-103005420D01*
X145099737Y-102895106D01*
X145020385Y-102798415D01*
X144923694Y-102719063D01*
X144813380Y-102660098D01*
X144693682Y-102623788D01*
X144569200Y-102611528D01*
X142354950Y-102614600D01*
X142196200Y-102773350D01*
X141942200Y-102773350D01*
X141783450Y-102614600D01*
X139569200Y-102611528D01*
X139444718Y-102623788D01*
X139325020Y-102660098D01*
X139214706Y-102719063D01*
X139118015Y-102798415D01*
X139038663Y-102895106D01*
X138979698Y-103005420D01*
X138943388Y-103125118D01*
X138931128Y-103249600D01*
X121945000Y-103249600D01*
X121945000Y-97249600D01*
X133481128Y-97249600D01*
X133493388Y-97374082D01*
X133529698Y-97493780D01*
X133588663Y-97604094D01*
X133668015Y-97700785D01*
X133764706Y-97780137D01*
X133875020Y-97839102D01*
X133994718Y-97875412D01*
X134119200Y-97887672D01*
X134283450Y-97884600D01*
X134442200Y-97725850D01*
X134442200Y-96376600D01*
X133642950Y-96376600D01*
X133484200Y-96535350D01*
X133481128Y-97249600D01*
X121945000Y-97249600D01*
X121945000Y-95249600D01*
X133481128Y-95249600D01*
X133484200Y-95963850D01*
X133642950Y-96122600D01*
X134442200Y-96122600D01*
X134442200Y-94773350D01*
X134283450Y-94614600D01*
X134119200Y-94611528D01*
X133994718Y-94623788D01*
X133875020Y-94660098D01*
X133764706Y-94719063D01*
X133668015Y-94798415D01*
X133588663Y-94895106D01*
X133529698Y-95005420D01*
X133493388Y-95125118D01*
X133481128Y-95249600D01*
X121945000Y-95249600D01*
X121945000Y-93377419D01*
X121948193Y-93345000D01*
X121935450Y-93215617D01*
X121897710Y-93091207D01*
X121836425Y-92976550D01*
X121753948Y-92876052D01*
X121653450Y-92793575D01*
X121538793Y-92732290D01*
X121414383Y-92694550D01*
X121317419Y-92685000D01*
X121285000Y-92681807D01*
X121252581Y-92685000D01*
X107340000Y-92685000D01*
X107340000Y-83572511D01*
X179990088Y-83572511D01*
X179990088Y-84016689D01*
X180076743Y-84452334D01*
X180246723Y-84862702D01*
X180493495Y-85232023D01*
X180807577Y-85546105D01*
X181176898Y-85792877D01*
X181587266Y-85962857D01*
X182022911Y-86049512D01*
X182467089Y-86049512D01*
X182902734Y-85962857D01*
X183313102Y-85792877D01*
X183682423Y-85546105D01*
X183996505Y-85232023D01*
X184243277Y-84862702D01*
X184413257Y-84452334D01*
X184499912Y-84016689D01*
X184499912Y-83572511D01*
X184413257Y-83136866D01*
X184243277Y-82726498D01*
X183996505Y-82357177D01*
X183682423Y-82043095D01*
X183313102Y-81796323D01*
X182902734Y-81626343D01*
X182467089Y-81539688D01*
X182022911Y-81539688D01*
X181587266Y-81626343D01*
X181176898Y-81796323D01*
X180807577Y-82043095D01*
X180493495Y-82357177D01*
X180246723Y-82726498D01*
X180076743Y-83136866D01*
X179990088Y-83572511D01*
X107340000Y-83572511D01*
X107340000Y-80422911D01*
X113964466Y-80422911D01*
X113964466Y-80867089D01*
X114051121Y-81302734D01*
X114221101Y-81713102D01*
X114467873Y-82082423D01*
X114781955Y-82396505D01*
X115151276Y-82643277D01*
X115561644Y-82813257D01*
X115997289Y-82899912D01*
X116441467Y-82899912D01*
X116877112Y-82813257D01*
X117287480Y-82643277D01*
X117656801Y-82396505D01*
X117970883Y-82082423D01*
X118217655Y-81713102D01*
X118387635Y-81302734D01*
X118474290Y-80867089D01*
X118474290Y-80422911D01*
X118387635Y-79987266D01*
X118217655Y-79576898D01*
X117970883Y-79207577D01*
X117656801Y-78893495D01*
X117287480Y-78646723D01*
X116877112Y-78476743D01*
X116441467Y-78390088D01*
X115997289Y-78390088D01*
X115561644Y-78476743D01*
X115151276Y-78646723D01*
X114781955Y-78893495D01*
X114467873Y-79207577D01*
X114221101Y-79576898D01*
X114051121Y-79987266D01*
X113964466Y-80422911D01*
X107340000Y-80422911D01*
X107340000Y-78130000D01*
X120475345Y-78130000D01*
X120338368Y-78221525D01*
G37*
%TD.AperFunction*%
D21*
X150453388Y-99730118D02*
X150441128Y-99854600D01*
X150441128Y-100754600D01*
X150453388Y-100879082D01*
X150471746Y-100939600D01*
X150453388Y-101000118D01*
X150441128Y-101124600D01*
X150441128Y-102024600D01*
X150453388Y-102149082D01*
X150471746Y-102209600D01*
X150453388Y-102270118D01*
X150441128Y-102394600D01*
X150441128Y-103294600D01*
X150453388Y-103419082D01*
X150471746Y-103479600D01*
X150453388Y-103540118D01*
X150441128Y-103664600D01*
X150441128Y-104564600D01*
X150453388Y-104689082D01*
X150471746Y-104749600D01*
X150453388Y-104810118D01*
X150441128Y-104934600D01*
X150441128Y-105834600D01*
X150453388Y-105959082D01*
X150471746Y-106019600D01*
X150453388Y-106080118D01*
X150441128Y-106204600D01*
X150441128Y-107104600D01*
X150453388Y-107229082D01*
X150471746Y-107289600D01*
X150453388Y-107350118D01*
X150441128Y-107474600D01*
X150441128Y-108374600D01*
X150453388Y-108499082D01*
X150471746Y-108559600D01*
X150453388Y-108620118D01*
X150441128Y-108744600D01*
X150441128Y-109644600D01*
X150453388Y-109769082D01*
X150471746Y-109829600D01*
X150453388Y-109890118D01*
X150441128Y-110014600D01*
X150444200Y-110178850D01*
X150602950Y-110337600D01*
X151952200Y-110337600D01*
X151952200Y-110317600D01*
X152206200Y-110317600D01*
X152206200Y-110337600D01*
X152226200Y-110337600D01*
X152226200Y-110591600D01*
X152206200Y-110591600D01*
X152206200Y-110611600D01*
X151952200Y-110611600D01*
X151952200Y-110591600D01*
X150602950Y-110591600D01*
X150444200Y-110750350D01*
X150441791Y-110879177D01*
X150398629Y-110914600D01*
X150335999Y-110965999D01*
X150312201Y-110994997D01*
X149695671Y-111611528D01*
X149359200Y-111611528D01*
X149234718Y-111623788D01*
X149174200Y-111642146D01*
X149113682Y-111623788D01*
X148989200Y-111611528D01*
X148089200Y-111611528D01*
X147964718Y-111623788D01*
X147904200Y-111642146D01*
X147843682Y-111623788D01*
X147719200Y-111611528D01*
X146819200Y-111611528D01*
X146694718Y-111623788D01*
X146634200Y-111642146D01*
X146573682Y-111623788D01*
X146449200Y-111611528D01*
X146274024Y-111611528D01*
X146348449Y-111550449D01*
X146383996Y-111507135D01*
X149607141Y-108283991D01*
X149650449Y-108248449D01*
X149792284Y-108075623D01*
X149897676Y-107878447D01*
X149962577Y-107664499D01*
X149979000Y-107497752D01*
X149979000Y-107497745D01*
X149984490Y-107442001D01*
X149979000Y-107386257D01*
X149979000Y-100191809D01*
X150458917Y-99711893D01*
X150453388Y-99730118D01*
%TA.AperFunction,Conductor*%
D22*
G36*
X150453388Y-99730118D02*
G01*
X150441128Y-99854600D01*
X150441128Y-100754600D01*
X150453388Y-100879082D01*
X150471746Y-100939600D01*
X150453388Y-101000118D01*
X150441128Y-101124600D01*
X150441128Y-102024600D01*
X150453388Y-102149082D01*
X150471746Y-102209600D01*
X150453388Y-102270118D01*
X150441128Y-102394600D01*
X150441128Y-103294600D01*
X150453388Y-103419082D01*
X150471746Y-103479600D01*
X150453388Y-103540118D01*
X150441128Y-103664600D01*
X150441128Y-104564600D01*
X150453388Y-104689082D01*
X150471746Y-104749600D01*
X150453388Y-104810118D01*
X150441128Y-104934600D01*
X150441128Y-105834600D01*
X150453388Y-105959082D01*
X150471746Y-106019600D01*
X150453388Y-106080118D01*
X150441128Y-106204600D01*
X150441128Y-107104600D01*
X150453388Y-107229082D01*
X150471746Y-107289600D01*
X150453388Y-107350118D01*
X150441128Y-107474600D01*
X150441128Y-108374600D01*
X150453388Y-108499082D01*
X150471746Y-108559600D01*
X150453388Y-108620118D01*
X150441128Y-108744600D01*
X150441128Y-109644600D01*
X150453388Y-109769082D01*
X150471746Y-109829600D01*
X150453388Y-109890118D01*
X150441128Y-110014600D01*
X150444200Y-110178850D01*
X150602950Y-110337600D01*
X151952200Y-110337600D01*
X151952200Y-110317600D01*
X152206200Y-110317600D01*
X152206200Y-110337600D01*
X152226200Y-110337600D01*
X152226200Y-110591600D01*
X152206200Y-110591600D01*
X152206200Y-110611600D01*
X151952200Y-110611600D01*
X151952200Y-110591600D01*
X150602950Y-110591600D01*
X150444200Y-110750350D01*
X150441791Y-110879177D01*
X150398629Y-110914600D01*
X150335999Y-110965999D01*
X150312201Y-110994997D01*
X149695671Y-111611528D01*
X149359200Y-111611528D01*
X149234718Y-111623788D01*
X149174200Y-111642146D01*
X149113682Y-111623788D01*
X148989200Y-111611528D01*
X148089200Y-111611528D01*
X147964718Y-111623788D01*
X147904200Y-111642146D01*
X147843682Y-111623788D01*
X147719200Y-111611528D01*
X146819200Y-111611528D01*
X146694718Y-111623788D01*
X146634200Y-111642146D01*
X146573682Y-111623788D01*
X146449200Y-111611528D01*
X146274024Y-111611528D01*
X146348449Y-111550449D01*
X146383996Y-111507135D01*
X149607141Y-108283991D01*
X149650449Y-108248449D01*
X149792284Y-108075623D01*
X149897676Y-107878447D01*
X149962577Y-107664499D01*
X149979000Y-107497752D01*
X149979000Y-107497745D01*
X149984490Y-107442001D01*
X149979000Y-107386257D01*
X149979000Y-100191809D01*
X150458917Y-99711893D01*
X150453388Y-99730118D01*
G37*
%TD.AperFunction*%
%TD*%
M02*
